<?xml version="1.0" encoding="UTF-8"?>
<svg id="Layer_2" data-name="Layer 2" xmlns="http://www.w3.org/2000/svg" viewBox="0 0 1106.89 426.06">
  <defs>
    <style>
      .cls-1 {
        fill: #000;
      }

      .cls-1, .cls-2 {
        stroke-width: 0px;
      }

      .cls-2 {
        fill: lime;
      }

      .cls-3 {
        fill: red;
        stroke: #000;
        stroke-miterlimit: 10;
      }
    </style>
  </defs>
  <g id="Layer_2-2" data-name="Layer 2">
    <g>
      <path class="cls-1" d="M95.91,236.41c-9.91-30.91-22-60.09-46.17-60.09-19.42,0-32.3,24.31-32.3,51.76,0,43.77,19.62,53.49,36.66,59.05,18.83,4.52,31.9,13.2,39.44,25.01,7.73,11.81,11.49,25.01,11.49,38.9,0,42.03-19.42,75.03-46.17,75.03-9.91,0-22.39-6.6-37.45-19.8l-5.75,10.07h-1.78L0,356.24h4.95c13.87,30.91,31.71,59.05,53.9,59.05,19.82,0,36.07-25.7,36.07-56.27,0-15.98-6.34-43.77-40.82-52.8-19.42-5.56-32.3-15.28-38.44-29.18-5.55-12.5-8.32-26.75-8.32-43.07,0-40.29,20.21-68.43,42.41-68.43,8.92,0,19.62,5.9,32.3,17.71l5.55-7.99h1.78l11.69,61.13h-5.15Z"/>
      <path class="cls-1" d="M253.26,169.02v10.77h-8.12c-6.14,0-10.11,2.43-13.08,11.12l-41.81,129.21v70.51c0,9.73,1.78,21.19,9.51,21.19h10.5v10.77h-49.94v-10.77h10.5c6.34,0,9.31-8.34,9.31-21.19v-68.78l-41.22-126.78c-2.97-9.38-6.54-15.28-14.07-15.28h-7.73v-10.77h50.14v10.77h-12.29c-2.38,0-7.33,0-7.33,5.56,0,2.43.99,5.9,2.58,9.73l36.86,112.89,38.05-117.06c.59-2.43.99-4.52.99-5.91,0-3.47-1.78-5.21-3.77-5.21h-12.48v-10.77h43.4Z"/>
      <path class="cls-1" d="M292.49,392.71c0,16.67,8.12,19.1,13.28,19.1h29.73c22.99,0,35.27-16.33,48.35-56.62h5.15l-16.45,67.39h-111.37v-10.77h12.48c6.74,0,8.92-7.99,8.92-19.1v-194.52c0-11.46-3.57-18.41-9.51-18.41h-11.89v-10.77h52.71v10.77h-10.7c-9.12,0-10.7,9.38-10.7,18.41v194.52Z"/>
      <path class="cls-1" d="M419.12,207.23c0-18.41-4.95-27.44-10.5-27.44h-9.12v-10.77h108.2l12.29,67.04h-4.96c-9.31-42.03-18.43-56.27-35.07-56.27h-41.02c-8.72,0-9.91,17.37-9.91,27.44v80.93h33.89c16.05,0,18.23-10.42,18.23-42.38h4.95v95.52h-4.95c0-35.78-3.17-42.38-18.23-42.38h-33.89v93.44c0,15.63,5.94,19.45,10.11,19.45h38.25c23.19,0,34.88-33.69,42.21-54.53h5.15l-17.04,65.3h-108.2v-10.77h10.11c6.34,0,9.51-9.73,9.51-19.45v-185.14Z"/>
      <path class="cls-1" d="M650.98,422.59h-5.75l-10.5-30.22-76.29-202.16v199.38c0,13.55,3.96,22.23,10.9,22.23h7.53v10.77h-43.6v-10.77h8.52c3.57,0,10.3-7.29,10.3-22.23v-193.47c0-14.24-6.34-16.33-9.31-16.33h-9.51v-10.77h29.13l82.24,218.14v-191.74c0-11.81-4.76-15.63-9.91-15.63h-8.72v-10.77h43.79v10.77h-9.31c-5.55,0-9.51,5.56-9.51,15.63v227.17Z"/>
      <path class="cls-1" d="M743.72,194.38c0-7.29-2.18-14.59-10.5-14.59-24.97,0-35.67,16.33-49.14,56.62h-5.15l15.65-67.39h107.01l17.64,66h-4.95c-14.86-42.72-22.99-55.23-49.94-55.23-9.12,0-10.5,10.77-10.5,14.59v199.03c0,14.94,4.76,18.41,9.71,18.41h10.3v10.77h-49.94v-10.77h9.71c6.74,0,10.11-7.29,10.11-18.41v-199.03Z"/>
      <path class="cls-1" d="M946.04,396.88c0,9.03,3.17,14.94,9.91,14.94h10.5v10.77h-51.13v-10.77h12.29c5.35,0,8.32-6.6,8.32-14.94v-96.91h-76.1v96.91c0,13.2,6.34,14.94,9.71,14.94h9.91v10.77h-49.54v-10.77h11.1c4.76,0,8.92-5.21,8.92-14.94v-199.73c0-13.55-4.76-17.37-9.12-17.37h-10.7v-10.77h49.34v10.77h-9.91c-5.75,0-9.71,4.86-9.71,17.37v92.05h76.1v-93.78c0-6.25-1.58-15.63-9.12-15.63h-11.49v-10.77h51.13v10.77h-10.3c-7.13,0-10.11,6.25-10.11,15.63v201.46Z"/>
    </g>
  </g>
  <g id="Layer_3" data-name="Layer 3">
    <g>
      <path class="cls-3" d="M979.89,65.14c45.83,15.73,75.11,61.04,70.63,109.29l7.11,1.53c5.25-52.17-26.5-101.29-76.22-117.93l-1.53,7.11Z"/>
      <path class="cls-3" d="M845.86,130.46c15.73-45.83,61.04-75.11,109.29-70.63l1.53-7.11c-52.17-5.25-101.29,26.5-117.93,76.22l7.11,1.53Z"/>
      <path class="cls-3" d="M911.18,264.48c-45.83-15.73-75.11-61.04-70.63-109.29l-7.11-1.53c-5.25,52.17,26.5,101.29,76.22,117.93l1.53-7.11Z"/>
      <path class="cls-3" d="M1045.2,199.17c-15.73,45.83-61.04,75.11-109.29,70.63l-1.53,7.11c52.17,5.25,101.29-26.5,117.93-76.22l-7.11-1.53Z"/>
    </g>
    <rect class="cls-3" x="965.89" y=".54" width="9.64" height="95.37" transform="translate(31.79 -202.84) rotate(12.13)"/>
    <rect class="cls-3" x="915.48" y="235.19" width="9.64" height="95.37" transform="translate(79.96 -187.01) rotate(12.13)"/>
    <rect class="cls-3" x="1053.84" y="139.54" width="9.64" height="95.37" transform="translate(1464.1 -808.48) rotate(102.13)"/>
    <rect class="cls-3" x="819.19" y="89.12" width="9.64" height="95.37" transform="translate(1130.87 -640.08) rotate(102.13)"/>
  </g>
  <g id="Layer_1-2" data-name="Layer 1">
    <g>
      <path class="cls-2" d="M96.35,219.54c-9.91-30.91-22-60.09-46.17-60.09-19.42,0-32.3,24.31-32.3,51.76,0,43.77,19.62,53.49,36.66,59.05,18.83,4.52,31.9,13.2,39.44,25.01,7.73,11.81,11.49,25.01,11.49,38.9,0,42.03-19.42,75.03-46.17,75.03-9.91,0-22.39-6.6-37.45-19.8l-5.75,10.07h-1.78L.44,339.38h4.95c13.87,30.91,31.71,59.05,53.9,59.05,19.82,0,36.07-25.7,36.07-56.27,0-15.98-6.34-43.77-40.82-52.8-19.42-5.56-32.3-15.28-38.44-29.18-5.55-12.5-8.32-26.75-8.32-43.07,0-40.29,20.21-68.43,42.41-68.43,8.92,0,19.62,5.9,32.3,17.71l5.55-7.99h1.78l11.69,61.13h-5.15Z"/>
      <path class="cls-2" d="M253.7,152.15v10.77h-8.12c-6.14,0-10.11,2.43-13.08,11.12l-41.81,129.21v70.51c0,9.73,1.78,21.19,9.51,21.19h10.5v10.77h-49.94v-10.77h10.5c6.34,0,9.31-8.34,9.31-21.19v-68.78l-41.22-126.78c-2.97-9.38-6.54-15.28-14.07-15.28h-7.73v-10.77h50.14v10.77h-12.29c-2.38,0-7.33,0-7.33,5.56,0,2.43.99,5.9,2.58,9.73l36.86,112.89,38.05-117.06c.59-2.43.99-4.52.99-5.91,0-3.47-1.78-5.21-3.77-5.21h-12.48v-10.77h43.4Z"/>
      <path class="cls-2" d="M292.93,375.85c0,16.67,8.12,19.1,13.28,19.1h29.73c22.99,0,35.27-16.33,48.35-56.62h5.15l-16.45,67.39h-111.37v-10.77h12.48c6.74,0,8.92-7.99,8.92-19.1v-194.52c0-11.46-3.57-18.41-9.51-18.41h-11.89v-10.77h52.71v10.77h-10.7c-9.12,0-10.7,9.38-10.7,18.41v194.52Z"/>
      <path class="cls-2" d="M419.56,190.36c0-18.41-4.95-27.44-10.5-27.44h-9.12v-10.77h108.2l12.29,67.04h-4.96c-9.31-42.03-18.43-56.27-35.07-56.27h-41.02c-8.72,0-9.91,17.37-9.91,27.44v80.93h33.89c16.05,0,18.23-10.42,18.23-42.38h4.95v95.52h-4.95c0-35.78-3.17-42.38-18.23-42.38h-33.89v93.44c0,15.63,5.94,19.45,10.11,19.45h38.25c23.19,0,34.88-33.69,42.21-54.53h5.15l-17.04,65.3h-108.2v-10.77h10.11c6.34,0,9.51-9.73,9.51-19.45v-185.14Z"/>
      <path class="cls-2" d="M651.42,405.72h-5.75l-10.5-30.22-76.29-202.16v199.38c0,13.55,3.96,22.23,10.9,22.23h7.53v10.77h-43.6v-10.77h8.52c3.57,0,10.3-7.29,10.3-22.23v-193.47c0-14.24-6.34-16.33-9.31-16.33h-9.51v-10.77h29.13l82.24,218.14v-191.74c0-11.81-4.76-15.63-9.91-15.63h-8.72v-10.77h43.79v10.77h-9.31c-5.55,0-9.51,5.56-9.51,15.63v227.17Z"/>
      <path class="cls-2" d="M744.16,177.51c0-7.29-2.18-14.59-10.5-14.59-24.97,0-35.67,16.33-49.14,56.62h-5.15l15.65-67.39h107.01l17.64,66h-4.95c-14.86-42.72-22.99-55.23-49.94-55.23-9.12,0-10.5,10.77-10.5,14.59v199.03c0,14.94,4.76,18.41,9.71,18.41h10.3v10.77h-49.94v-10.77h9.71c6.74,0,10.11-7.29,10.11-18.41v-199.03Z"/>
      <path class="cls-2" d="M946.48,380.02c0,9.03,3.17,14.94,9.91,14.94h10.5v10.77h-51.13v-10.77h12.29c5.35,0,8.32-6.6,8.32-14.94v-96.91h-76.1v96.91c0,13.2,6.34,14.94,9.71,14.94h9.91v10.77h-49.54v-10.77h11.1c4.76,0,8.92-5.21,8.92-14.94v-199.73c0-13.55-4.76-17.37-9.12-17.37h-10.7v-10.77h49.34v10.77h-9.91c-5.75,0-9.71,4.86-9.71,17.37v92.05h76.1v-93.78c0-6.25-1.58-15.63-9.12-15.63h-11.49v-10.77h51.13v10.77h-10.3c-7.13,0-10.11,6.25-10.11,15.63v201.46Z"/>
    </g>
  </g>
</svg>