<?xml version="1.0" encoding="UTF-8"?>
<svg id="Layer_2" data-name="Layer 2" xmlns="http://www.w3.org/2000/svg" viewBox="0 0 1649.03 481.94">
  <defs>
    <style>
      .cls-1 {
        fill: #000;
      }

      .cls-1, .cls-2, .cls-3 {
        stroke-width: 0px;
      }

      .cls-2 {
        fill: #3b64a1;
      }

      .cls-3 {
        fill: #fff;
      }
    </style>
  </defs>
  <g id="Layer_3" data-name="Layer 3">
    <path class="cls-3" d="M90.8,0h1558.23v390.99c0,50.19-40.75,90.94-90.94,90.94H0V90.8C0,40.69,40.69,0,90.8,0Z"/>
  </g>
  <g id="Layer_1-2" data-name="Layer 1">
    <g>
      <path class="cls-1" d="M747.71,282.36v3.03c0,21.99-10.1,38.37-30.29,49.13-15.48,8.3-35.23,12.45-59.23,12.45h-5.38c-24.23-.45-42.52-2.92-54.85-7.4v-27.6c14.58,11.67,33.76,17.73,57.55,18.17h3.03c17.05,0,30.68-3.7,40.89-11.11,10.21-7.4,15.31-18.28,15.31-32.64,0-16.6-12.23-31.52-36.68-44.76l-43.41-24.23c-24.9-14.58-37.47-32.75-37.69-54.52v-.67c0-17.5,7.51-31.47,22.55-41.9,15.03-10.43,32.53-15.65,52.5-15.65h3.7c22.66.9,39.15,3.25,49.47,7.07v27.93c-12.34-11.66-27.93-17.84-46.78-18.51h-4.04c-11.89,0-22.72,3.48-32.48,10.43-9.76,6.96-14.64,15.82-14.64,26.59v3.37c1.12,13.01,10.32,24.35,27.6,33.99l38.03,21.87c20.64,11.44,33.2,19.3,37.69,23.56,10.77,10.1,16.49,23.89,17.16,41.39Z"/>
      <path class="cls-1" d="M917.99,179.05c-8.53,7.63-14.13,15.48-16.83,23.56l-74.04,191.15c-1.35,4.49-2.36,9.53-3.03,15.14h-23.22l32.98-86.83-54.86-122.16c-2.92-7.4-7.29-14.36-13.12-20.87h36.68c-.67,3.14-1.01,5.84-1.01,8.08,0,2.47,1.57,7.74,4.71,15.82l39.71,92.55,33.99-95.58c.89-2.69,1.35-5.5,1.35-8.41v-1.68c-.23-3.14-1.35-6.73-3.37-10.77h40.05Z"/>
      <path class="cls-1" d="M969.14,313.32c0,10.32,2.02,20.31,6.06,29.95h-38.37c2.47-6.06,4.04-10.77,4.71-14.13.67-3.37,1.01-8.3,1.01-14.81v-169.61c0-15.03-2.25-26.47-6.73-34.33l33.65-2.36-.34,205.28Z"/>
      <path class="cls-1" d="M1021.3,250.73c-.45,6.06-.67,11.33-.67,15.82,0,16.38,5.16,30.68,15.48,42.91,10.32,12.23,25.24,18.34,44.76,18.34,20.64,0,37.58-5.61,50.82-16.83l-3.37,23.22c-12.79,7.62-28.83,11.44-48.12,11.44-26.25,0-47.28-7.91-63.1-23.73-15.82-15.82-23.73-36.96-23.73-63.44,0-23.56,7.01-43.02,21.03-58.39,14.02-15.36,31.24-23.05,51.66-23.05h1.68c19.74.23,35.78,7.24,48.12,21.03,12.34,13.8,18.73,31.36,19.18,52.67h-113.75ZM1109.47,232.89c-4.71-25.12-18.4-37.69-41.06-37.69h-1.01c-10.1,0-19.07,3.31-26.92,9.93-7.86,6.62-12.9,15.88-15.14,27.76h84.13Z"/>
      <path class="cls-1" d="M1293.55,318.37c0,10.55,2.13,18.62,6.39,24.23h-37.69c3.14-4.49,4.82-7.96,5.05-10.43v-92.21c0-15.93-3.7-27.76-11.11-35.5-7.4-7.74-17.39-11.61-29.95-11.61-13.69,0-24.12,4.15-31.3,12.45-7.18,8.3-10.77,19.63-10.77,33.99v77.74c0,9.42,2.02,17.95,6.06,25.58h-37.02c3.14-5.16,4.71-9.98,4.71-14.47v-128.56c0-5.16-1.68-11.66-5.05-19.52l30.96-1.35-.34,14.47c10.1-11.44,25.12-17.5,45.1-18.17h3.7c16.15,0,30.4,5.67,42.74,17,12.34,11.33,18.51,26.64,18.51,45.94v80.43Z"/>
      <path class="cls-1" d="M1402.92,198.56c-4.71-2.02-10.55-3.03-17.5-3.03h-21.87v113.41c0,12.12,6.61,18.17,19.85,18.17,5.16,0,11.89-1.68,20.19-5.05l-4.38,20.53c-5.61,2.47-12.57,3.7-20.87,3.7-13.91,0-24.29-3.37-31.13-10.1-6.85-6.73-10.26-17.27-10.26-31.63v-109.04h-20.87v-17.5h20.87v-18.17c0-6.5-2.25-11.11-6.73-13.8l33.65-18.17v49.47h39.04v21.2Z"/>
      <path class="cls-1" d="M1427.49,128.57c0-8.52-1.91-14.25-5.72-17.16l32.64-3.37v87.16c12.56-13.23,28.72-19.85,48.46-19.85s33.54,6.17,44.08,18.51c10.54,12.34,15.82,26.7,15.82,43.08v83.46c0,5.38.28,9.31.84,11.78.56,2.47,1.74,5.61,3.53,9.42h-35c1.79-3.37,3.03-6.23,3.7-8.58.67-2.36,1.01-6.45,1.01-12.28v-86.49c0-11.66-3.76-21.09-11.27-28.27-7.52-7.18-16.77-10.77-27.76-10.77s-20.92,3.82-29.78,11.44c-8.87,7.63-13.29,19.07-13.29,34.33v76.06c0,6.06,1.9,14.25,5.72,24.57h-39.37c2.91-4.26,4.71-7.85,5.38-10.77.67-2.91,1.01-7.85,1.01-14.81v-187.45Z"/>
    </g>
  </g>
  <g id="Layer_2-2" data-name="Layer 2">
    <path id="path23" class="cls-2" d="M344.54,58.84c15.73,2.36,31.8,7.86,40.18,10.42,16.88,5.16,44.29,21.2,53.96,28.89,4.58,3.64,14.2,13.16,17.93,17.96,3.63,4.67,10.57,14.79,14.99,21.02,7.04,10.29,15.34,25.61,22.38,39.72,7.86,15.76,8.4,20.32,10.77,33.49l5.2,23.22c.49,4.02.89,18.74-7.75,20.81-8.64,2.06-16.63-1.92-20.4-7.75-5.21-8.07-4.49-19.52-10.39-32.62-4.6-10.59-6.61-25.99-13.95-37.06l-5.76-9.74c-10.19-15.69-20.81-28.14-27.14-36.26-5.58-6.82-15.99-16.1-25.87-22.7-9.13-5.54-23.89-11.85-34.54-15.1-3.39-1.1-17.91-5.37-26.94-6.58-12.25-1.38-20.3-3.31-31.94-4.13-14.37-1.01-21.26-2.29-39.9-.11-7.06,1.91-18.25,2.67-28.31,6.52-8.13,3.32-19.44,8.67-30.52,15.18-11.92,6.54-30.02,19.91-42.02,31.33-12.1,12.93-18.15,19.86-26.49,36.25-3.69,8.11-10.84,20.65-13.72,29.5-1.97,8.99-5.72,25.75-5.09,33.89.28,14.59-.99,17.59.1,29.51.04,10.73,3.56,18.18,5.03,26.96,1.25,6.07,7.07,27.06,10.67,31.93,16.37,35.26,38.33,50.53,62.81,61.55,6.9,3.51,28.49,9.29,34.74,10.95,10.65,1.92,24.67,3.2,38.16,3.46,14.19.28,33.76-1.65,45.63-6.02,12.85-4.72,27.71-11.44,27.53-11.25,5.96-3.29,15.06-8.65,17.89-11.01,5.48-3.51,8.78-4.87,12.02-8.25,4.68-4.1,7.52-6.45,11.06-11.53,1.97-2.86,5.11-7.24,8.16-11.11,3.29-5.38,5.17-11.06,8.38-18.08,3.84-10.38,3.24-9.88,3.97-20.91.69-3.2-.07-13.94-.65-15.76-1.73-9.91-1.12-18.65-3.39-28.28-3.07-13.02-5.61-22.76-9.52-35.25-3.68-14.06-14.48-27.09-22.59-36.4-5.02-5.77-20.61-19.39-42.22-27.9-6.09-2.05-16.05-4.37-22.38-5.52-13.51-1.41-15.71-.51-28.64.44-4.45.78-14.78,2.89-18.58,4.22-11.11,3.9-15.19,6.38-26.55,13.34-5.29,3.07-9.27,5.42-14.68,10.48-4.31,3.99-7.39,10.78-10.89,14.76-4.78,6.51-10.11,15.2-13.69,24.57-3.87,9.32-5.12,22.44-4.53,30.88,0,6.43,1.75,18.21,2.45,20.79.69,2.58,2.43,10.58,2.81,12.18.38,1.6,4.54,10.07,5.11,11.29,2.35,4.99,6.84,12.17,14.4,19.49,5.58,6.1,16.37,12.08,24.45,14.4,7.24,3.98,19.46,4.65,26.22,4.66,3.33-.2,11.82-.72,16.26-1.79,8.99-2.16,10.65-2.22,19.92-6.24,8.32-3.85,13.96-5.24,19.75-9.52,0,0,7.95-6.23,11.56-10.79,1.91-2.41,5.18-13.87,4.59-20.97-.27-9.72,1.14-15.23-.84-23.23-1.98-8-5.37-17.27-9.04-22.98-3.72-5.79-11.71-11.42-20.81-15.91-5.09-2.52-17.16-4.85-22.28-5.45-9.73-1.15-17.86,3.26-22.8,8.31-4.28,4.9-12.75,15.06-9.38,25.58,3.05,9.51,6.74,19.65,21,18.9,9.79,2.04,21.12-.92,24.89.82,5.6,3.18,7.75,10.2,5.72,15.09-1.42,9.44-10.46,10.57-20.11,11.29-8.63,1.45-30.56-2.78-35.38-6.39-3.23-1.92-8.18-6.53-11.67-9.65-2.51-2.24-5.34-7.24-7.28-10.83-2.38-4.41-3.58-7.66-4.19-10.53-.73-3.41-2.22-9.93-1.66-16.44.38-4.39,1.56-6.26,2.73-12.69,2.33-7.28,5.23-12.83,9.89-19.15,6.07-6.16,13.79-13.5,21.31-16.91,6.64-3.51,18.27-4.8,28.79-4.18,8.54.82,18.63,1.86,25.31,4.1,11.43,4.08,14.69,4.9,24.07,10.81,7.93,4.91,15.9,13.93,20.35,21.4,9.47,19.37,14.9,40.92,10.95,69.93-.32,4.9-1.85,9.69-4.91,16.18-2.82,5.99-7.77,13.27-15.19,18.76-2.99,2.77-7.71,6.17-11.54,8.17-5.45,3.31-9.11,5.03-14.8,7.88-4.99,2.35-10.81,5.03-18.4,7.14-8.22,3.25-14.54,3.39-24.88,4.93-10.18,2.55-38.04.73-54.63-6.59-11.33-4.76-24.03-13.16-33.7-23.39-5.37-5.62-10.62-15.83-12.16-17.92-7.68-14.77-9.19-28.66-10.42-31.58-1.67-3.97-2.51-12.86-3.63-18.94-1.26-6.82-.48-35.42,6.4-53.77,3.88-7.31,6.15-13.82,8.78-17.25,4.72-6.72,7-10.91,11.02-15.67,6.05-7.34,10.46-13.33,16.36-17.55,15.02-12.22,27.58-18.66,44.55-26.73,21.09-8.59,27.43-6.81,47.39-6.49,8.98.08,22.05,2.9,28.48,4.07,11.93,1.59,18.77,4.46,26.84,6.72,8.63,2.41,13.62,6.25,20.7,10.53,5.83,3.76,12.69,8.92,17.22,13.11,11.59,8.5,17.18,17.43,24.29,28.4,1.29,1.84,9.72,19.82,11.07,24.82.62,2.51,2.53,9.7,3.76,13.91,1.58,6.67,2.34,12.58,4.1,20.11,1.57,7.76,4.25,22.4,5.41,36.09,1.95,11.74-1.17,35.71-3.02,43.07-4.11,13.72-11.29,30.46-25.47,46.59-6.02,7.14-12.43,12.67-19.83,18.68-5.66,4.72-10.51,7.47-19.25,12.69-11.87,7.08-20.91,11.61-37.55,18.11-6.78,2.17-15.31,5.04-24.51,6.94-17.82,1.65-36.14,3.23-56.13.85-20-2.38-40.03-8.01-51.86-11.65-6.53-2.45-19.18-7.75-24.48-10.61-3.45-1.75-15.02-9.66-16.98-11.57-7.93-4.91-25.67-21.59-37.12-37.14-2.51-4.8-11.53-19.22-13.49-25.54-5.2-10.68-8.83-23.61-10.96-29.13-2.25-12.89-6.05-21.18-7.53-34.12.17-3.04-.61-10.21-1.3-14.17,1.01-8.85-.34-17.2,1.42-26.84,1.54-8.13,3.59-11.53,4.07-18.88.48-3.15,4.52-12.6,5.6-16.81,3.27-6.93,4.08-12.64,8.34-20.39,6.14-12.07,12.56-25.96,22.43-38.1,2.82-3.76,10.81-12.79,13.53-15.91,6.44-6.43,10.22-7.45,17.52-13.91.76-.48,5.58-5.98,10.63-7.87,8.37-6.46,15.6-8.84,23.56-14.72,15.96-7.95,21.78-10.63,37.62-17.23,9.15-3.27,21.92-5.07,26.52-6.86,8.75-.54,17.62-3.33,26.83-2.78,10.33-.1,20.74.64,31.12,1.58,7.02.43,16.15.77,28.54,3.46h0Z"/>
  </g>
</svg>