<?xml version="1.0" encoding="UTF-8"?>
<svg id="Layer_2" data-name="Layer 2" xmlns="http://www.w3.org/2000/svg" viewBox="0 0 1422.02 284.67">
  <defs>
    <style>
      .cls-1 {
        fill: #bb1c24;
      }

      .cls-1, .cls-2 {
        stroke-width: 0px;
      }

      .cls-2 {
        fill: #fff;
      }

      .cls-3 {
        fill: #000;
        stroke: #fff;
        stroke-miterlimit: 10;
        stroke-width: 16px;
      }
    </style>
  </defs>
  <g id="Layer_2-2" data-name="Layer 2">
    <rect class="cls-3" x="8" y="8" width="1406.02" height="268.67" rx="134.34" ry="134.34"/>
  </g>
  <g id="Layer_1-2" data-name="Layer 1">
    <path class="cls-2" d="M145.83,182.09c.83,11.32,10.21,14.63,40.86,14.63s40.86-2.76,40.86-12.15c0-5.25-4.14-8.83-11.32-9.66-6.63-.55-18.77-.83-66.81-.83-36.99-.55-52.45-12.15-52.45-40.03,0-20.15,7.18-32.3,22.64-38.1,10.49-4.14,33.4-6.07,67.64-6.07,44.45,0,60.74,2.76,71.78,12.15,6.9,5.52,9.39,12.42,10.49,28.16h-49.69c-1.1-4.14-1.66-4.97-3.31-6.07-4.14-2.76-14.08-3.87-30.64-3.87-30.64,0-40.03,2.49-40.03,10.77,0,5.25,3.86,8.01,11.6,8.56,8.01.55,16.56.83,66.81,1.1,37.82.28,52.18,11.32,52.18,40.58,0,37.27-17.67,45.83-93.31,45.83-47.48,0-63.77-2.76-75.37-13.53-8.01-7.18-11.32-16.29-11.6-31.47h49.69Z"/>
    <path class="cls-2" d="M312.45,91.29l43.4,53.4,41.6-53.4h53l-73,86.2v47.2h-42v-47.2l-76.4-86.2h53.4Z"/>
    <path class="cls-2" d="M498.45,91.29v99.4h94.8v34h-137.4V91.29h42.6Z"/>
    <path class="cls-2" d="M774.23,182.09c-3.59,36.17-21.53,45-91.38,45-37.82,0-55.77-3.31-67.64-12.15-12.7-9.66-16.56-22.64-16.56-56.04,0-35.06,3.86-48.04,17.67-57.7,12.7-8.83,28.99-11.6,71.5-11.6s59.63,2.76,71.5,12.42c11.6,9.66,16.01,24.29,16.01,53.83,0,1.66,0,7.73-.28,13.25h-127.55c0,13.25,1.38,17.67,6.07,21.26,5.25,3.86,15.46,5.52,33.13,5.52,31.2,0,36.99-2.21,38.93-13.8h48.59ZM726.2,142.34c-.28-10.21-.83-12.7-3.86-15.74-4.42-4.69-14.36-6.63-33.68-6.63-32.85,0-40.58,4.14-41.13,22.36h78.68Z"/>
    <path class="cls-2" d="M839.66,93.2v19.88h2.48c8.83-16.84,23.74-23.19,55.49-23.19s47.21,4.42,58.8,16.29c11.87,12.42,14.36,22.36,14.36,58.25v59.36h-48.86v-59.36c0-20.98-.83-25.67-6.07-30.64-5.25-5.25-14.63-7.18-32.85-7.18s-27.61,2.48-33.4,8.56c-6.07,6.35-7.18,12.42-7.18,36.44v52.18h-48.86V93.2h46.1Z"/>
    <path class="cls-2" d="M1055.55,63.1v30.09h77.3v35.06h-77.3v38.1c0,14.36.28,16.29,2.48,19.6,2.48,4.42,7.45,6.35,16.84,6.35,9.94,0,15.46-1.93,17.67-6.63,1.66-3.04,1.93-4.14,1.93-17.67h44.72c-.55,24.85-2.49,32.85-9.94,42.52-9.94,12.42-24.85,16.56-58.53,16.56-31.2,0-43.9-2.76-53.56-12.15-6.9-6.9-9.66-14.08-10.21-28.99-.28-2.21-.28-8.83-.28-19.6v-38.1h-25.67v-35.06h25.67v-30.09h48.86Z"/>
    <path class="cls-1" d="M1201.87,39.64v73.44h2.21c8.01-16.56,24.02-23.47,54.94-23.47,28.99,0,45.28,4.69,56.59,16.29,11.32,11.6,14.36,23.47,14.36,54.11v63.77h-48.86v-63.77c0-28.44-5.8-33.68-37.82-33.68-34.51,0-41.41,6.9-41.41,41.69v55.77h-48.86V39.64h48.86Z"/>
  </g>
</svg>