<?xml version="1.0" encoding="UTF-8"?>
<svg id="Layer_2" data-name="Layer 2" xmlns="http://www.w3.org/2000/svg" viewBox="0 0 1042.35 480.74">
  <defs>
    <style>
      .cls-1 {
        fill: #000;
      }

      .cls-1, .cls-2 {
        stroke-width: 0px;
      }

      .cls-2 {
        fill: #c1272d;
      }
    </style>
  </defs>
  <g id="Layer_2-2" data-name="Layer 2">
    <g>
      <path class="cls-2" d="M172.3,211.9h-57.39l5.05-17.61c2.36-8.22,3.12-13.45,2.3-15.7-.82-2.25-2.95-3.38-6.37-3.38-3.72,0-6.97,1.52-9.75,4.55-2.78,3.04-5.05,7.64-6.82,13.81-2.27,7.93-2.92,13.91-1.92,17.92.9,4.02,5.33,8.86,13.3,14.53,22.83,16.33,36.31,29.72,40.45,40.19,4.14,10.47,2.87,27.35-3.81,50.64-4.85,16.93-10.41,29.41-16.68,37.43-6.26,8.03-15.85,14.75-28.76,20.18-12.91,5.43-26.9,8.15-41.97,8.15-16.54,0-29.76-3.13-39.65-9.39-9.9-6.26-15.27-14.24-16.11-23.92-.84-9.69,1.29-23.43,6.4-41.25l4.46-15.56h57.39l-8.29,28.92c-2.55,8.91-3.39,14.63-2.5,17.17.88,2.55,3.38,3.82,7.49,3.82s7.63-1.61,10.56-4.84c2.93-3.23,5.31-8.02,7.13-14.38,4.01-13.99,4.73-23.14,2.15-27.45-2.68-4.31-10.26-11.5-22.73-21.58-12.45-10.18-20.5-17.56-24.17-22.16-3.67-4.6-5.98-10.96-6.93-19.08-.95-8.12.39-18.49,4.01-31.12,5.22-18.2,11.36-31.51,18.42-39.92,7.06-8.42,16.46-14.99,28.19-19.74,11.73-4.75,24.94-7.12,39.62-7.12,16.05,0,28.98,2.59,38.79,7.78,9.82,5.19,15.43,11.72,16.84,19.6,1.41,7.88-.59,21.26-6.01,40.14l-2.69,9.4Z"/>
      <path class="cls-2" d="M349.1,139.98l-88.54,151.63-50.5,189.14h-57.25l50.5-189.14.03-151.63h56.77c-4.43,46.39-8.38,77.6-11.84,93.65,10.69-25.35,25.38-56.57,44.06-93.65h56.77Z"/>
      <path class="cls-2" d="M467.67,6.16l-100.71,323.9h37.58l-13.64,47.56h-99.37L405.87,6.16h61.79Z"/>
      <path class="cls-2" d="M504.95,68.1h103.04l-13.64,47.56h-41.25l-38.99,116.94h33.73l-12.96,45.21-30.83.09-44.46,155.28h45.36l-13.64,47.56h-107.15l120.79-412.65Z"/>
      <path class="cls-2" d="M767.87,6.16l-99.11,371.46h-54.16l-1.17-108.03-56.81,211.15h-51.67l93.98-340.76h51.67l3.96,107L716.2,6.16h51.67Z"/>
      <path class="cls-2" d="M918.69,6.16l-19.05,51.87h-36.7l-81.61,319.59h-61.8l81.61-319.59h-36.55l19.05-51.87h135.04Z"/>
      <path class="cls-2" d="M1042.35,139.98l-68.14,237.64h-61.79l28.62-99.81h-18.49l-28.62,99.81h-61.79l68.14-237.64h61.79l-24.37,84.99h18.49l24.37-84.99h61.79Z"/>
    </g>
  </g>
  <g id="Layer_1-2" data-name="Layer 1">
    <g>
      <path class="cls-1" d="M168.3,205.74h-57.39l5.05-17.61c2.36-8.22,3.12-13.45,2.3-15.7-.82-2.25-2.95-3.38-6.37-3.38-3.72,0-6.97,1.52-9.75,4.55-2.78,3.04-5.05,7.64-6.82,13.81-2.27,7.93-2.92,13.91-1.92,17.92.9,4.02,5.33,8.86,13.3,14.53,22.83,16.33,36.31,29.72,40.45,40.19,4.14,10.47,2.87,27.35-3.81,50.64-4.85,16.93-10.41,29.41-16.68,37.43-6.26,8.03-15.85,14.75-28.76,20.18-12.91,5.43-26.9,8.15-41.97,8.15-16.54,0-29.76-3.13-39.65-9.39-9.9-6.26-15.27-14.24-16.11-23.92-.84-9.69,1.29-23.43,6.4-41.25l4.46-15.56h57.39l-8.29,28.92c-2.55,8.91-3.39,14.63-2.5,17.17.88,2.55,3.38,3.82,7.49,3.82s7.63-1.61,10.56-4.84c2.93-3.23,5.31-8.02,7.13-14.38,4.01-13.99,4.73-23.14,2.15-27.45-2.68-4.31-10.26-11.5-22.73-21.58-12.45-10.18-20.5-17.56-24.17-22.16-3.67-4.6-5.98-10.96-6.93-19.08-.95-8.12.39-18.49,4.01-31.12,5.22-18.2,11.36-31.51,18.42-39.92,7.06-8.42,16.46-14.99,28.19-19.74,11.73-4.75,24.94-7.12,39.62-7.12,16.05,0,28.98,2.59,38.79,7.78,9.82,5.19,15.43,11.72,16.84,19.6,1.41,7.88-.59,21.26-6.01,40.14l-2.69,9.4Z"/>
      <path class="cls-1" d="M345.1,133.82l-88.54,151.63-50.5,189.14h-57.25l50.5-189.14.03-151.63h56.77c-4.43,46.39-8.38,77.6-11.84,93.65,10.69-25.35,25.38-56.57,44.06-93.65h56.77Z"/>
      <path class="cls-1" d="M463.67,0l-100.71,323.9h37.58l-13.64,47.56h-99.37L401.87,0h61.79Z"/>
      <path class="cls-1" d="M500.95,61.94h103.04l-13.64,47.56h-41.25l-38.99,116.94h33.73l-12.96,45.21-30.83.09-44.46,155.28h45.36l-13.64,47.56h-107.15L500.95,61.94Z"/>
      <path class="cls-1" d="M763.87,0l-99.11,371.46h-54.16l-1.17-108.03-56.81,211.15h-51.67l93.98-340.76h51.67l3.96,107L712.2,0h51.67Z"/>
      <path class="cls-1" d="M914.69,0l-19.05,51.87h-36.7l-81.61,319.59h-61.8l81.61-319.59h-36.55L779.65,0h135.04Z"/>
      <path class="cls-1" d="M1038.35,133.82l-68.14,237.64h-61.79l28.62-99.81h-18.49l-28.62,99.81h-61.79l68.14-237.64h61.79l-24.37,84.99h18.49l24.37-84.99h61.79Z"/>
    </g>
  </g>
</svg>