<?xml version="1.0" encoding="UTF-8"?>
<svg id="Layer_2" data-name="Layer 2" xmlns="http://www.w3.org/2000/svg" viewBox="0 0 1181.33 645.78">
  <defs>
    <style>
      .cls-1 {
        fill: #000;
      }

      .cls-1, .cls-2 {
        stroke-width: 0px;
      }

      .cls-2 {
        fill: #ed1e90;
      }
    </style>
  </defs>
  <g id="Layer_3" data-name="Layer 3">
    <rect class="cls-1" x="852.41" y="0" width="328.92" height="645.78"/>
  </g>
  <g id="Layer_2-2" data-name="Layer 2">
    <g>
      <path class="cls-2" d="M1072.16,0c13.73,5.9,20.62,21.57,15.45,35.78l-15.45,42.47-42.04-15.3c5.21-14.67-2.38-30.83-17.03-36.16l-.28-.11,9.71-26.68h-14.54l6.78,2.47-7.77,21.35-34.35-12.5,4.12-11.31h-6.86l-3.56,9.77-.61-.22c-14.66-5.34-30.85,2.16-36.3,16.75l-41.69-15.18,4.05-11.12h-39.37v239.27c14.31-10.72,25.82-19.2,29.8-21.8,7.94-5.18,18.91-9.97,39,4.56l117.68,85.17s20.71,16.91,35.55,33.13c14.84,16.22,50.73,53.84,69.71,74.54s-3.45,61.08-31.75,32.78c-28.3-28.3-96.28-99.39-96.28-99.39l-52.8,66.95,67.64,68.33s-12.77,118.72-15.87,143.56c-3.11,24.85-50.73,27.26-46.24-7.25,4.49-34.51,16.22-107.67,16.22-107.67l-80.06-78.28-52.57,93.15v118.73h328.92V0h-109.17ZM958.42,90.68l-7.35,20.18c-20.58-9.75-31.35-32.87-25.6-54.9l20.18,7.34c-1.95,10.88,3.17,21.88,12.77,27.38ZM970.33,124.53l-7.77,21.34-34.35-12.51,7.77-21.34,34.35,12.5ZM959.52,113.94l7.35-20.18c10.88,1.95,21.87-3.18,27.37-12.76l20.18,7.34c-9.75,20.58-32.87,31.35-54.9,25.6ZM977.12,124.73l.28.1c14.21,5.17,29.83-1.73,35.74-15.44l42.1,15.32-15.45,42.46c-5.37,14.73-21.65,22.33-36.39,16.97l-42.3-15.4,16.02-44.02ZM1028.09,69.07l21.35,7.77-12.5,34.35-21.35-7.77,12.5-34.35ZM991.9,24.98c20.57,9.76,31.35,32.87,25.6,54.9l-20.19-7.35c1.95-10.88-3.17-21.87-12.76-27.37l7.35-20.19ZM983.45,21.91l-7.35,20.18c-10.88-1.95-21.87,3.17-27.37,12.76l-20.19-7.35c9.76-20.58,32.87-31.36,54.9-25.6ZM906.03,24.65l21.34,7.77-12.5,34.35-21.34-7.77,12.5-34.35ZM872.33,136.45c-14.73-5.36-22.33-21.65-16.97-36.39l15.45-42.46,41.76,15.2c-4.28,14.3,3.26,29.63,17.46,34.8l.61.22-16.02,44.02-42.3-15.39ZM980.91,213.33l-39.69,12.08-5.18-31.75-25.54-11.73,42.33-1.61-.92,26.46,32.09-16.22,34.51,34.51,30.37-33.82,39.34,3.11-15.18-39.69,24.85-30.71-15.18-26.92,36.93-30.02-14.15,29.33,16.22,28.3-28.07,31.75,16.1,55.22-53.26-.35-35.89,42.79-39.69-40.72ZM1068.33,281.55c-16.92,0-32.31-6.47-43.91-17.03l36.54-43.57,61.69.4-17.16-58.84c17.02,11.79,28.18,31.42,28.18,53.69,0,36.09-29.25,65.34-65.34,65.34Z"/>
      <path class="cls-2" d="M936.73,292.16l-35.2-29.13s-26.25,19.63-49.12,36.92v103.61c24.9-40.65,54.98-83.9,84.32-111.4Z"/>
    </g>
  </g>
  <g id="Layer_4" data-name="Layer 4">
    <g>
      <path class="cls-1" d="M116.65,200.59h-49.2v-45.94c0-21.44-.63-35.09-1.89-40.96-1.26-5.87-3.36-8.81-6.29-8.81-3.19,0-5.6,3.96-7.24,11.88-1.64,7.92-2.45,19.92-2.45,36.01,0,20.68.92,36.26,2.76,46.73,1.76,10.47,6.75,23.1,14.97,37.89,23.58,42.58,38.43,77.52,44.56,104.83,6.12,27.31,9.19,71.33,9.19,132.07,0,44.16-1.7,76.69-5.1,97.61-3.4,20.93-9.96,38.47-19.69,52.64-9.73,14.16-21.06,21.24-33.98,21.24-14.18,0-26.28-8.17-36.3-24.5-10.03-16.33-16.59-37.13-19.69-62.4-3.1-25.27-4.66-61.12-4.66-107.57v-40.58h49.2v75.41c0,23.22.69,38.16,2.08,44.79,1.38,6.64,3.84,9.95,7.36,9.95s6.14-4.21,7.86-12.63c1.72-8.42,2.58-20.92,2.58-37.51,0-36.49-1.64-60.35-4.91-71.58-3.36-11.23-11.62-29.99-24.79-56.27-13.17-26.54-21.89-45.8-26.17-57.8-4.28-11.99-7.82-28.58-10.63-49.76C1.4,234.15,0,207.1,0,174.17c0-47.47,1.99-82.17,5.98-104.12,3.98-21.94,10.42-39.1,19.32-51.49C34.18,6.19,44.92,0,57.51,0c13.76,0,25.48,6.76,35.17,20.29,9.69,13.53,16.11,30.56,19.25,51.1,3.15,20.55,4.72,55.45,4.72,104.7v24.5Z"/>
      <path class="cls-1" d="M250.54,13.01l-38.63,395.43v224.32h-49.08v-224.32L125.58,13.01h48.67c7.6,120.97,11.89,202.38,12.87,244.23,2.94-66.12,7.85-147.53,14.75-244.23h48.67Z"/>
      <path class="cls-1" d="M312.57,13.01v495.73h32.21v124.03h-85.19V13.01h52.98Z"/>
      <path class="cls-1" d="M357.62,13.01h88.34v124.03h-35.36v117.52h33.09v117.9h-33.09v136.28h38.88v124.03h-91.86V13.01Z"/>
      <path class="cls-1" d="M582.99,13.01v619.75h-46.43l-27.56-281.74v281.74h-44.29V13.01h44.29l29.7,279.06V13.01h44.29Z"/>
      <path class="cls-1" d="M710.97,13.01v124.03h-31.46v495.73h-52.98V137.04h-31.33V13.01h115.77Z"/>
      <path class="cls-1" d="M844.86,13.01v619.75h-52.98v-260.3h-15.85v260.3h-52.98V13.01h52.98v221.64h15.85V13.01h52.98Z"/>
    </g>
  </g>
</svg>