<?xml version="1.0" encoding="UTF-8"?>
<svg id="Layer_2" data-name="Layer 2" xmlns="http://www.w3.org/2000/svg" viewBox="0 0 1255.72 388.22">
  <defs>
    <style>
      .cls-1 {
        fill: #000;
      }

      .cls-1, .cls-2 {
        stroke-width: 0px;
      }

      .cls-3 {
        font-family: OrdnerNormal, 'GF Ordner Inverted';
        font-size: 120px;
        letter-spacing: .2em;
      }

      .cls-3, .cls-2 {
        fill: #fff;
      }
    </style>
  </defs>
  <g id="Layer_1-2" data-name="Layer 1">
    <path class="cls-1" d="M12.87,258.61l-5.32-43.16-1.51-26.03-3.82-17.13-2.22-13.6,1.63-5.04,1.78-3.65,3.89-1.89,406.08-49.01,322.65-40.5,248.01-29.15L1190.43,1.95l25.83-1.95,4.5.9,2.77,3.15,4.77,3.31,27.42,202.46-3.01,11.01-4.25,7.37-.59,8.11-4.38,5.94-4.73,4.08-164.64,21.04-221.89,27.21-257.56,29.09-271.92,32.6-221.1,28.18-58.1,3.76-9-3.2-4.98-9.4-1.95-15.05-13.22-70.74-1.53-31.22Z"/>
    <path class="cls-2" d="M269.11,142.01c-.1.12-.22.25-.3.4.09-.12.23-.24.3-.4ZM300.73,126c.11-.12.2-.29.26-.52l-.26.52ZM277.61,128.9c.45-.22.91-.46,1.37-.69-.53.05-1.08.13-1.37.69ZM310.85,123.56c-.59-.29-.87.64-1.19.85,0,.02.02.04,0,.07.48-.16.88-.45,1.19-.92ZM313.86,133.08c.78-1,.86-3.36,2.2-2.97-.06-3.22,1.07-4.45-1.79-6.98-2.24-.25-.84.66-1.42,1.8-.91.13-1.6.38-2.12.8-.42-.47-1.12-.57-1.07-1.25-2.04.69-5.27-.84-5.12,1.47-1.18.86-3.06.74-3.83.12v-.06c-.81.94-2.87-.33-3.05.8-.68-1.19-2.34.28-2.88-1.27-1.69,1.11-3.78,2.09-5.89,1.44-1.54,3.79-5.27-1.14-8.67,1.06.23.33.61.47.47.87-.69,1.7-1.96.41-3.11,0h.02c-2.24,1.07-4.71,1.83-7.2,1.25l-.12-.88c-1.58.56-4.23-.22-4.77,1.47-1.1-.21-3.48,1.51-3.47.08-.76,2.62-3.01-.7-3.42.42-.98,2.46-3.55-.64-4.72,1.84l-.84-.78.62-.99c-.98,1.03-4.08,2.67-4.29,1.08-.63.79-2.18,1.51-3.38.78l-.11-.91c-.83,3.71-3.48-1.54-4.16,1.96-.51.25-.96-.42-1.36-.74l.3-.57-6.53.46c-.58,1.34-1.69-.17-2.6-.06-2.07,2.25-5.48.15-7.31,1.63-.53.07-1.78.41-1.71-.51l-2.51,1.94c-.21-.16-.6-.3-.47-.85-9.02,2.71-16.13,1.63-25.68,2.8l-2.38,1.56c-3.38-.67-7.24-.73-9.5,1.71-1.78-2.48-4.64-.5-6.25-.13,3.89,1.86-2.18.27-2.28,2.44l2.13,2.26c-.82.81-1.24,1.95-2.56,1.57,1.34,1.99,1.58,3.93,2.87,5.39l-.83.83,1.45-.18-.04-.36c.94-1.37.7,1.17,1.63-.2.75-1.35,2.01-.07,2.82.54l1.1-1.4,1.06,1.13c-.06-.52-.31-1.03.21-1.29.4.32,1.16.41,1.06,1.14,1.36-2.33,3.48-.07,5.54-1.23l.05.55,1.12-1.41c4.46,1.97,8.25-1.36,13.69-.42,4.2-1.78,9.5-.27,12.31-2.78l.08.7.47-.77,1.35.54.75-1.33c4.57,4.29,13.65-2.23,18.81-.53,1.2-.67,4.03-1.57,5.85-1.62.53-1.86,1.79-.4,2.72-.34l-.5.42,6.13-.76c1.17-3.91,3.43,2.47,4.18-1.76-.91.12-1.94.59-2.56-.05-.45-.66.2-1.27.51-1.85.41.47,1.15.57,1.05,1.13l.82-.83c2.66.93,1.5.34,4.17,1.11.25.68-.43.95-.76,1.35l1.25-.16-.26-2.13c.75-1.34,2.29.62,3.04-.74,1.63,0,.79,3.51,1.15,2.01l.34-.39.98.6c1.53.52.54-1.51,2-1.51l.44.48c.09.15.06.27.03.37,1.65-1.81,3.75.94,5.73.19l-1.42-1.09c.49-.42.57-1.14,1.15-1.04.98.43,1.24,1.1,1.17,2.01l9.14-1.67c1.41-.52,4.5.7,5.6-.68l-.58-.29,1.58-2c2.48.6-.42,2.58.33,2.66,2.81-1.05,6.23-1.49,9.03-1.1,1.35-.89,4.06-1.21,4.87-.6,3.07-.56,7.48-.39,8.41-3.2,1.72.68.73,1.52,1.21,2.37.45-.78,1.15-1.05,2.06-1.17-1.78-.85-.96-6.18-3.53-3.33ZM183.3,144.84c-.21-1.77,1.97-.41,2.38-1.54,1.12.05,2.2-.08,3.16.33-1.27,1.6-3.84,1.56-5.54,1.21ZM242.98,139.65c.43.48,1.2.75.93,1.5-.25.92-1.09.13-1.68-.15l.76-1.35ZM244.59,142.84c-.23,0-.48,0-.74,0-.23.57.23,1.51-.84,1.47-.91-1.24-.08-1.43.84-1.47.06-.1.1-.21.23-.28.2.07.36.2.51.27.16,0,.31,0,.42-.03-.15.11-.28.09-.42.03ZM267.3,130.17l-.35,1.68-.55-1.56.9-.12ZM266.54,141.97l-1.01-.79c1.62-.18,1.07-3.36,2.86-2.14,1.13,1.83-1.57,2.16-1.85,2.93ZM271.06,139.97c-.31.4-.4,1.11-1.14,1.03l.71-1.7c.2.14.6.27.44.66ZM273.2,139.35l.69-1.88.59,1.72-1.27.16ZM277.42,140.98l-1.26.16.41-2.57c.29.68,1.82,1.4.85,2.41ZM279.96,140.66c-.99-.59.83-2.07,1.69-1.11-.48.61-1.01.85-1.69,1.11ZM294.17,138.56l-.17-1.42c.77.27,1.51.36,2.23.26-.45.78-1.16,1.03-2.06,1.15ZM304.95,136.69l-1.48-1.45c.74-.1,1.36.56,1.98,1.03l-.5.42ZM312.9,135.71c-.78-.25.46-2.21-1.17-2.02-.96-.4-.37-.88-.04-1.43-.16-.27-.19-.52.14-.73.1.25,0,.5-.14.73.35.56,1.31,1.22,1.02,1.86.36-.05,1.07-.32,1.3.18-.12.39-.94,1.2-1.11,1.41Z"/>
    <path class="cls-2" d="M371.61,129.62h0c.02.24.03.17,0,0ZM378.5,129.13c-.08-.04-.18-.06-.28-.09-.02.13-.03.3-.02.5l.3-.41ZM380.14,129.11c.43.3.61.5,0,0h0ZM370.43,130.49c-.18-.17-.39-.28-.59-.34v.05l.59.29ZM462.85,105.43l-1.45.18c-2.35,3.34-6.31-2.1-7.5,3.09-.78-.45-1.09-1.31-1.15-2.01-2.27,2.43-4.55-1.23-6.79,1.55-.18-.14-.58-.29-.43-.66l-1.9,2.39-1.03-.78c.53-.24.25-.92.22-1.28-1.94.61-5.37-.42-5.79,1.98l-1.6-1.07c.35,3.02-3.36-.49-3.6,2.07-1.92-3.72-5.55,1.03-8.35.67-1.22-.93-4.88.59-6.96-.05.2.16.59.29.46.84-1.88-.32-5.37-.43-7.36,1.28-.21-.16-.58-.3-.47-.85-1.75.57-4.78-.14-5.47,1.58l-1.07-1.14c-.55,2.95-2.84-2.34-4.28.9-.21-.15-.6-.29-.45-.67-.19,1.28-2.61,1.22-3.57.79-3.07-.88-4.85.79-7.61,2.2-1.22-.93,1.21-.69-.21-1.6l-1.24.15c-1.8,1.84-.38.05-.97,2.64l-1.42-1.08c-1.59-2.5-1.05.48-3.11-.15-.71.26-1.45.17-1.38-.56l-2.96,1.09c-.13-.89-3.91,2.63-4.97-.11.02.34.31,1.04-.23,1.28l-1.41-1.09c-.54,1.68-4.75-1.38-4.13,2.12-.78-.26-.49-1.01-.75-1.53l-.15,1.66c-.53-1.2-3.22-.69-3.98.48l-.56-1.55c-1.24.34-3.54-.46-3.88,1.21-.98-.43-3.49-.11-5.1.26l-.05-.36c-2.46-.79-1.95,2.03-3.88,1.2-.21-.34.1-.56.27-.76-.73.1-1.08,1.77-2.12.62l-.05-.34-2.09.98c-.19-.16-.58-.29-.43-.67-1.96,2.04-6.46,1.15-8.23,1.73l.59.45-.78,1c-1.83-3.01-3.53.98-5.23.65-.52.24-.98-.43-1.39-.74l.3-.56c-2.93-1.43-1.91,3.83-4.62,1.11.49,1.02-2.49,2.27,0,3.05-.12.57.34,1.21-.35,1.66-.21,1.29-.9,4.61,1.42,4.15l-.78.98-.41-.31c-.33,1.84,1.07,2.75,2.51,2.56,2.03.11,2.81-1.06,4.78-.04,1.71-.94,3.71-1.18,6.12-.77,1.49,0,2.07-2.77,3.7-1.36l.79-.99c.71-.26.98.41,1.36.73-.1.54-.68.44-1.21.5,2.48.8,3.91-1.02,6.04-1.46.22.16.59.28.45.66.69-.62,2.7.94,3-1.08,1.69,1.77,6.09-1.11,8.41-.32.51-1.86,5.24.98,4.53-1.81,1.65,3.75,4.72-.82,6.98-.02-.22-.64.44-.92.75-1.31.7-.44.96.4,1.02.78l.28-.57c2.8,2.74,4.19-.58,6.33,0,.22-.92,1.32-.34,1.92.07-.06-.05-.12-.08-.18-.16,2.87-1.97,6.13.69,9.44-.79.4-1.13,1.74-.77,2.69-.35.42-1.11,2.56-.13,3.61-2.06l.69,1.18c.73-1.53,3.83,1.33,5.59-.7,5.49-1.57,9.92-1.22,15.57-1.56l-.04-.34c3.55.46,7.38-1.1,10.44-1.65.19.15.58.28.46.66,8.28-2.65,16.58-2.22,23.36-3.59,4.25.19,10.32-1.11,13.41-1.3.04-4.32-.77-9.26-2.33-13.02ZM323.93,128.13c.53-1.69,2.79.38,2.86-2.15.78.45,2.04.29,2.39,1.52l-5.25.64ZM360.67,119.64l1.8-.21.41.5-2.22-.28ZM365.11,123.05l-.93.11-.15-1.24.9-.11.17,1.24ZM420.29,114.09l.13-1.82c.55-.06,1,.6,1.07,1.12-.1.57-.84.66-1.2.69Z"/>
    <path class="cls-2" d="M491.76,102.59c2.05,1.73,2.57.05,4.64-.92l-.05-.37c1.27,1.47,4.59-.02,6.23-.04l-.52.07-.09-.71.54-.07c-.31.58.61.63.87,1.15l2.9-1.62c.07.36.25.51.64.64.59.29.65-.62,1.17-.87-.13.19-.51.42-.45.78.46.84,1.32.2,1.88.3l.79-1c.76.28.53,1.37,1.41,1.09,2.36-.11,8.58-3.21,10.8-1.69,1.13-2.65,5.71.38,7.24-2.15.07.54-.2,1.29.54,1.55l.77-1.35c.21.16.42.5.95.24,1.78,1.23,3.12-2.9,5.96-.73,1.48.18,4.79-1.13,7.34-1.26.23.33-.08.72-.25.93l.39.31,1.98-1.87c-.37-.13-.52.24-.86.47.04.36.15,1.07.71,1.17l1.15-1.05c-.15.38-.49.61-.26.93.26.69,1.14.21,1.69.34.5-.42.44-.96.37-1.48l2.17-.27c.77,3.5,1.71,7.89,2.74,11.88-10.37.74-22.1,3.64-31.2,4.22l.11.88c-1.61-1.23-4.99-.45-6.21.23l.5-.42c-4.43,1.26-9.08.75-14.81,1.82.61-.97,3.28-3.1,2.08-5.46.38.13.52-.26.66-.45.29-.75-.65-.82-.87-1.16-2.67.51-2.32,3.53-3.75,5.14l.61,2.08c-9.18,1.32-16.47,1.68-24.15,3.34-1.74-.68-5.72,1.24-6.05-1.41l-.5,1.86c-.43-.49-.94-.25-1.49-.19.32-3.45-2.78-10.63.4-11.73l-.34.41c1.69.14,3.75-1,5.49-1.58,2.73,1.27,5.27-1.91,7.51-.03.43-2.58,3.99.94,4.14-2.13,1.58-.55,3.27,2.66,4.43.17Z"/>
    <path class="cls-2" d="M562.71,93.84l1.18-.87c.1.71.84.8,1.54.54,2.08.64,1.04-1.93,3.35-1.14l.55,1.56,1.61-1.82c-.13.38.24.5.46.67.76.27,1.22-.51,1.7-.93-.12.38.51,1.01,1.01.58,1.39,1.09,4.67-3.62,6.61.09,2.92-1.44,3.23-2.02,7.1-1.77,2.3-2.08,6.7-.64,9.48-1.9,2.47,2.21,4.46-2.52,7.13-.16,1.25-1.77,4.81-1.14,7.13-1.6-.27.75-1.5,1.27-.99,2.29l.98.6.32-.4c1.1.04-.53,1.68,1.16,2.01l1.63-4.51,1.29,5.95c-.54.08-1.48-.17-1.76.58-.84-.8,1.1-1.57-.26-2.12-1.12-.22-1.87,1.12-1.93,2.03-.96,2.81,2.55,1.48,2.96,3.41l.52-.42c.71-.27.48,1.02.55,1.55-.48,1.85-3.8.47-3.12,3.08-2.87-2.52-5.02.8-7.62-.86-1.55,2.35-2.77-.19-4.63,1.11-1.09-1.3-3.63,1.88-5.04-.82-.52,3.31-4.14.7-5.39,2.47l-3.42.42c1.18-.87,2.79-2.51,2.58-4.28l-.98-.59c-.71,1.71-2.63,4.09-4.51,2.18-.46.58-1.14,1.21-.67,1.86.39.32.66,1.01,1.35.74l.31-.58.61.47c-6.87.85-15.04,1.49-22.18,3.07l-.6.99c-1.9-2.11-3.03.72-5.33-.25l-2.44-12.28c1.83.13,5.11-.1,7.3-1.63-.13.39.24.52.45.66Z"/>
    <path class="cls-1" d="M543.71,95.84l-.38,1.3.38-1.3Z"/>
    <path class="cls-1" d="M520.61,101.74l-1.8.22c.26-.77,1.34-.89,1.8-.22Z"/>
    <path class="cls-1" d="M594.48,94.24c-.12.38-.29.58-.83.64-.98-.42-.16-1.23.33-1.84.55.11.47.85.5,1.2Z"/>
    <path class="cls-2" d="M168.78,147.09c.35-1.83-.68-2.61-.52-4.25-2.95-4.67-7.36,1.26-11.49.5l-.06-.51c-1.32,1.24-1.51-.36-2.36,1.73-.43-.48-1.16-.57-1.06-1.32-2.12-.81-1.36,2.51-3.38.96-.24-.51.1-.74.25-.93-1.58.56-1.89,1.13-3.21,2.19-.43-.48-1.18-.58-1.08-1.31-5.29,1.73-6.96,1.59-11.73,1.44-1.36,2.32-2.4-.05-4.7.58-1.03,2.12-4.32-.9-5.12,1.54-.19-.16-.58-.3-.46-.85-1.1,1.59-2.76,1.43-3.92,1.02-1.66-.15-5.05-.81-5.47,1.57-8.26-1.5-21.92,2.18-29.66,1.87-4.21,1.6-8.17.64-11.95,2.74.14-.22-3.56.97-3.82-1.16l.05.36c-4.27,1.06-11.27,2.29-16.49,1.66-1.61,1.83-4.54.38-5.88,1.45-.36-.14-.58-.29-.62-.65-.42,1.13-3.08,1.82-3.65,1.71-2.41-.24-5.84.17-6.19.23l1.02.77c-1.55.92-2.61,1.21-4.03.15l.47-.6c-.34.23-.88,1.71-1.74.74-2.38-.05-4.11.89-6.38,1.7.47,1,1.99,1.37,1.25,2.72,1.8-.22,1.04,2.57,2.06,3.35l-1.11,1.4c1.56.87.62.63,3.18.49-.13.56-.21,1.29-.71,1.71-.35.06-1.05.32-1.31-.19.92,2.95-2.27.82-.8,3.87l.9-.11c-.04-.34-.42-.48-.63-.63,3.37-.96,9.08-3.64,14.74-2.35,5.23-2.28,10.77-1.87,16.33-2.91l.26-.75c.87-.47,1.32.19,1.91.48,4.49-.72,9.13-.22,12.02-2.2l.58.29c-.33.22-.5.42-.43.94,3.63-3.3,8.37.97,11.27-2.27l.03.36c.36-.04,1.12.03,1.23-.51l1.02.77c.99-3.88,6.68.79,8.87-2.36l1.04,1.13c5.75-2.5,14.3-.13,19.73-3.69.2.15.58.28.63.64l9.99-.68c1.44-.19,3.34-2.58,4.27-1.07,2.9-.36,5.89.16,8.04-1.71.38.13.59.28.64.63,1.42-.35,5.03.82,4.24-1.24l1.41,1.08c.16-.2.48-.6.25-.92,1.23.94,2.33-.47,3.04-.74l1,.6.82-.83c.71-.09,1.58-.55,2.21.09l-.51.41c1.84.13,4.26.38,4.83-.95.22.33,1.05,1.13,1.75.68-.07-.52-.15-1.06.38-1.31l1.06,1.14c.93-1.2,5.06-.63,5.44-1.94.59.47,2.44,2.04,3.11-.02-2.41-3.12,3.27-4.55-.85-6.73ZM36.59,163.38l-1.79.22c-1.18.86.59-2.59,1.69-1.11l.1.89ZM53.32,168.15c-.25-.51-.77-.27-1.31-.2-.38-1.58,1.34-5.55,2.44-2.45.49,1.01-.5,1.86-1.13,2.65ZM115.69,159.57l-.91.12c-.65-.83.67-2.05,1.15-1.05.26.5-.09.74-.25.94ZM127.81,150.7l-1.1-1.49,1.06,1.13.04.35ZM136.97,156.57l-.21-1.75c.72-.1,1.63-.03,2.27.6-.46.78-1.33,1.07-2.06,1.15ZM138.49,151.17c-1.47-.1-2.41-.72-3.29-1.72-.31-.15-.53-.43-.69-.83.24.3.46.58.69.83,1.97,1.17,6.13-2.55,3.29,1.72ZM158.77,149.03l-2.98-.34c.62-.98,2.41-1.39,3.74-1.01.24.69.17,1.42-.76,1.35Z"/>
    <path class="cls-2" d="M738.07,89.39c-.03-.79,0-1.4.1-1.91-.39.54-.88.85-.1,1.91ZM735.11,72.85s0,.04,0,.07c.07-.08.1-.13,0-.07ZM738.47,86.65s-.02-.02-.03-.02c-.1.24-.2.51-.26.86.15-.22.28-.47.3-.84ZM765.49,76.85c1.25-.34.83-3.71-.37-3.02,1.85-1.31-.67-2.43-.15-4.3l-2.37,1.73c-1.24-4.16-6.81-.23-8.94-1.06-.59,2.59-1.05-1.31-2.49.31-1.72.93.91,1.51-1.13,2.67-2.49-.78-2.44-3.3-4.58-1.25-3.69-1.71-6.38,1.69-9.07.76l-.03-.36-.37.05.08.71.38-.04c-.13.38-.3.57-.84.64-.18-.15-.53-.43-.46-.77-.36.31-1.83,1.22-1.86-.21l-4.34.53c-1.17,2.31-3.02-.7-4.69.58l.41.31c-1.5,1.45-3.86-.06-5.96.74l-.07-.35c-3.24-1.04-4.01,3.01-6.49.79l.05.36-2.16.27c-3.22.76-2.62,1.22-5.28.3-1.28,3.02-3.54-1.73-4.81,1.3-.19-.16-.59-.28-.43-.66l-2.98,1.08c-1.64.2-2.85.71-4.75.22-.87.29-1.59,1.82-2.68.69l-.06-.71c-1.44,1.81-3.93,1.03-5.93,1.1l-.04-.36c-3.01.92-6.24-.13-9.13,1.84-.19-.15-.58-.29-.45-.66-2.02-.11-2.29.82-3.88,1.2-.19-.16-.58-.29-.46-.66l-1.71.93c-.22-.15-.59-.29-.45-.67-3.14-.16-3.53,1.16-6,2-.19-.15-.6-.47-.45-.84-1.56.74-5.06-.82-6.46,1.16-.2-.15-.59-.29-.45-.66-5.4.84-10.95.45-14.72,2.53-.19-.15-.58-.29-.44-.66l-2.99,1.08c-3.57-.63-4.65.94-8.4.33-1.85,1.3-1.3,1.24-3.43.42l-.82.81c-.83.64-1.33-.55-1.73-.51-1.37.71-1.91,2.23-1.34,3.95,2.48.77-.71,3.14,1.39,3.78l-.79,1c-.09.73.37,1.57,1.18,2.02-.47.59-1.16,1.03-.72,1.7.32-.4,2.5.95,3.03-.73.53-.25.97.42,1.37.73,1.41-.53,3.59.81,4.63-1.11,8.28.24,15.69-.67,23.63-1.66,1.62-.2,3.2-2.19,4.7-.58l-.09-.7c3.89.24,5.97.69,8.14-2.44l2.43,1.84,11.13-1.73c1.13.21,4.37,1.25,3.64-.45l.82.78c3.33-2.74,7.13-.15,9.47-2.05.88-.3,2.99,1.96,3.46-.07,1.07-.31,2.78-1.42,3.7.08,4.18-1.77,7.72-1.31,11.2-1.38,1.24-3.21,3.91,2.04,4.22-1.43,4.13.76,6.91-.31,10.58-.41,1.96-2.03,5.53-1.21,8.71-.71-.05-.36,1.61-1.8,2.86-.37,1.22-2.4,4.93.39,7.3-1.79.98.42,2.58,1.49,3.08-.38,3.61,1,6.03-1.63,10.01-.69,1.08-6.06,2.79,1.82,5.28-.28-1.39-.92-1.21-2.38-.42-3.38,1.72.5-.21,1.29,1.15,2.02.53-.24,1.51.18,1.6-.55.48-.6.48-5.11-.96-4.73ZM761.24,75.21l-.16-1.61,1.58,1.07c-.32.57-.86.46-1.42.54ZM763.54,78.88l-.42-3.37,1.17,2.01-.75,1.35Z"/>
    <path class="cls-2" d="M806.93,64.25l.37-.05c-.13-.05-.29,0-.37.05ZM915.47,56.81c.23-1.1.69-4.76-1.37-3.6l.48-.6c-.88.29-1.63.2-2.28-.62-.22-.33.1-.55.28-.75l-1.62.19c-2.88-1.08-3.29,2.94-5.24.66-3.24.57-7.33,0-9.49,1.89-.05-1.97-1.6,1.82-2.25-.45-2.66-.75-3.34,2.58-5.23.65l-2.17.26c-2.39,1.39-3.87-.05-5.54,1.06-1.37-.55-4.37,1.79-4.71.58-1.85-1.75-3.34,2.74-5.3.29l.05.36c-1.66-1.59-2.09,2.41-4.01.12l.05.36c-2.41-1.68-4.05,2.85-6.56.45.29,2.3-3.07,4.87-5.26,6.22,1.12,1.67,3.42-.41,4.48.72.11.88.02,1.62-.63,2.23-1.9-.48-4.49.91-5.86-1.43-.82-3.5,3.81-4.79,5.19-6.77-1.08-.04-3.12,1.29-3.51-.28l-1.17.86c-.22-.15-.59-.28-.6-.64l-.39.04.09.71.35-.05c-.13.38-.28.58-.64.62-.56-.11-.64-.81-.7-1.18l-2.44,1.03c-.73.09-1.8.4-1.91-.49-1.25.15-2.93,0-3.35,1.14-.19-.15-.57-.29-.42-.68-.05,1.1-2.28.83-1.79.58-2.28.65-4,.14-5.55,1.05-.19-.16-.57-.29-.63-.64-1.03.49-4.82-.49-3.28,1.66-1.32-.37-2.44-2.03-3.13-.15-.21-.15-.59-.28-.45-.66l-1.61,1.82c-.77-.27-.31-1.03-.56-1.55-3.37.95-8.3-.42-9.73,2.82l-.59-.3c.52-.24.41-.95.38-1.3l-3.42.43c.21.16.61.29.46.66-1.08.12-2.04,1.32-3.44.42l-.04-.35c.09-.54.86-.46,1.22-.51-2.01.07-.93.11-1.67,1.48-.51.24-1.81-1.4-1.36-.74l-1.06,1.92c-.41-.49-1.38-.91-1.1-1.66.09-.13.26-.32.48-.42l-.92.11c-1.33,3.95-2.4-1.85-4.23,1.24-.21-.15-.58-.29-.63-.64l-1.11,1.39c-.57-.11-.48-.84-.5-1.21-1.5,1.45-4.79,1.5-5.56,1.05-1.24-1.11-3.77.82-5.66,1.6-3.04-2.14-4.96,1.51-9.16.22l-.06-.35-3.06.39,1.04,1.13c-.09.56-.84.47-1.22.51-2.11-3.88-4.43,1.27-6.22-.12,1.18,2.18-.37,7.41,2.2,7.63l-.63.8-.59-.29c.37,1.58.07,3.41,1.12,4.54,2.94-1.43,3.17.34,5.66-.16,2.74-1.59,8.78-.18,9.35-2.96.39-.03,1.11-.12,1.35.38.05.36-.12.57-.46.78,3.84-.11,9.7-.12,13.49-2.02.93,1.51,1.82-1.67,2.29.61.88-.29,2.56-1.57,3.47-.06l-.15-1.24c2.29.62,4.76-.04,6.14-.75l-.51.42c2.34-.46,4.75-.22,6.33.67l-1.03-.79c-.4-1.92,1.7.16,1.71-1.11,3.88,3.3,8.59-1.59,13.83-.81,4.4,0,7.43-2.17,11.8-1.09.93-2.63,2.54,1.3,3.9-.84.27,2.13,3.32-1.49,4.4-.18.55.11.83-.64,1.14-1.03.95,1.68,1.85-.05,2.53-.31,4.6.14,8.13-1.01,12.46-.1,3.06-3.43,6.37-.43,10.13-2.69,1.19.76,3.32,1.75,3.96-.48.43.49,1.17.56,1.08,1.3l2.06-1.15.62,2.07,1.52-2.34c1.72-1.12,3.63.99,5.08-.63l-.82-.8.62-.97,1.94,1.02-.77.99c1.56-.55,2.59-1.21,4.03.05,2.67-3.74,6.99.21,8.77-3.24.22.15.6.28.63.64,2.47.77,6.85.59,9.15-.24-1.07-2.56-.59-6.22-1.97-8.39ZM793.59,77.95l-.41-.48.63-.81c.39.13.6.28.64.64-.17.37-.48.6-.86.64ZM882.56,60.51l-3.13-.15-.15-1.25c1.03,2.38,3.27-1.84,3.29,1.39ZM885.65,64.8c-.32.4-.41,1.13-1.15,1.04-1.55-.88.91-1.55.6-2.58.75.08.48,1.01.55,1.54ZM885.73,61.01c-1.14-.39-.16-1.42.14-1.81.35-.22.76.09.96.25l-1.11,1.57ZM889.36,59.13l-.79,1c-.97-.42-.16-1.24.35-1.67.19.16.57.3.44.67ZM897.36,59.94l-.83-.79c.44-.6,2.1-.81,2.48-.68l-1.65,1.47ZM903.74,58.26l-.36.04,1.01-2.28c1.17.58-.76,1.35-.64,2.24ZM909.93,60.91l-.48.59c-.78-.44-1.45-1.43-.65-2.08.45.49,1.21.76,1.13,1.49ZM909.52,57.55l-1-.78-.81,1-.41-.32,1.06-1.92,1.84,1.57c-.13.19-.3.58-.68.45ZM914.17,63.97l.35-1.47c.23.33.42.48.81.44.08.54-.65.8-1.16,1.03Z"/>
    <path class="cls-2" d="M1019.63,50.73s0-.04,0-.05c-.29.11-.6.24-.84.51.37.13.49-.24.85-.47ZM951.82,61.19s0,.03,0,.05c.08.07.08.05,0-.05ZM1006.66,39.38c-.17.09-.24.22-.28.36.11-.06.25-.18.28-.36ZM927.85,63.3l.31-.36c-.13.09-.2.2-.31.36ZM928.16,62.94c.31-.3.66-.25,1.05-.07-.2-.17-.35-.41-.57-.56l-.49.63ZM1064.33,38.75l.25-.4c-.63.19-.91-.44-1.29-.73-.68-1.01.53-1.69.03-2.71-.71-7.11-5.44,1.92-9.3-1.01l.52,1.37c-.95,1.01-2.26-.6-3.51-.46.12.24.18.54-.26.93-1.12,1.39-3.72-.27-2.93-1.44-3.66,1.54-11.97,1.12-16.29,3.28-.19-.16-.57-.3-.45-.84-3.05-.71-3.51,2.94-5.79.71.45.67-.42.95-.55,1.51-.43-.49-1.18-.58-1.07-1.32-4.79,1.13-11.7.38-14.63,3.25l-1.44-1.27c-.13.56.53,1.39-.14,1.82-.52.24-.75-.1-.96-.25-.04-.41-.32-.99-.14-1.45-.29.14-.68.11-.94.14-.74,1.35-3.46.25-3.1.02l-14.27,1.76c.04.34-3.12,1.46-3.49.07.17,2.85-4.17-1.1-5.4,2.28-.84-2.41-2.26.82-3.78-1.14-1.67,1.46-2.77-.2-5.03.99-3.68-.09-7.47,1.82-10.06,1.59-1.2.68-3.91,1.02-3.87.11l-.76.99c-.71.28-.98-.42-1.41-.72-1.39.52-2.96-.35-4.82.95-.53.07-1.77.41-1.7-.51-1.79.41-1.51,1.09-2.45,2.46l-1.8-1.21,2.97,3.23c-2.57,1.59-3.75-3.49-6.47-3.5-.47.76-.22,2.72-1.82,3.09-4.05-4.53-10.98.27-14.77-.7-1.19.69-4.45.91-3.03,3.43.07-.72-.6-1.71.25-2.19,1.68.34.44,2.1,1.63,2.86-.81.64-.99,2.1-2.52,1.92.14,2.33,1.24,5.26,1.68,5.91l.76-.98c.43.3,1.19.57,1.08,1.12,1.04,1.13,1.97-.42,2.41-1.2.43.49,1.16.59,1.07,1.32,1.19.57,2.89-1.97,4.07.22l-.81.99c-.16.07-.31.08-.47.05.5.31.99.7,1.49.73.34-1.66,1.92-2.21,3.06-3.43.96,1.85,4.81-2.75,6.71.96l.8-.99c1.3.2,3.18.5,3.21,2.13-.32-2.49,2.29-2.28,3.99-3.37.36.13.58.29.63.63-.13.55-.85.65-1.23.68l.12.9c.66-.63,1.55-.74,1.99-1.69.46.35,1.28,1.27,1.5,1.56,1.14-2.92,5.79-.5,6.55-3.26-.02,2.87,3.35.48,5.5,1.47-.44-.48.05-2.51.81-3.7.85.81,2.73-.33,2.4,1.51-.12.56-.88.47-1.23.51l.54,1.37,1.27-1.59c.96,1.68,4.37-1.8,5.87,1.43l1.07-1.75-1.34-.37c.74-2.96,2.62-1.22,3.38-3.83.93,1.5,1.83-.05,2.72-.33.41.48,1.16.57,1.03,1.12-.29.41-.45.6-.83.65-2.09-.88-2.96,1.89-3.42,3.41.73-1.77,3.3-.63,4.2-.09,1.35-2.51,5.08-.63,5.82-3.23.93,1.33,2.02,1.36,3.3,1.21-.54.24-.45.95-.41,1.31,1.17-3.93,6.52-.62,9.39-2.77l-.15-1.24c.9-.12,1.96-.6,2.59.04-.71.27-.91,1.73-.34.4,1.71.34,2.99-1.08,5.1-1.87,2.81.53-1.35,2.49.58,1.71,1.34-3.94,5.59.76,6.71-3.52l1.43,1.26.3-.58,1.01.77,1.05-1.93c.51.4,1.09,1.31.94,1.83l1.22-2.08c.74.25.54,1.14.76,1.66.58-.24,1.1-.38,1.11-1.36,1.63-.21,3.14-1.28,3.99,1.13l.5-.42c1.3-1.42,3.03-.72,3.92.43l1.69-4.18c.34.39.89.53,1,.86-.02-.38.03-.84.44-1.04.36-.04.56.1.81.44-.18.2-.52.42-.29.74.99-.84,2.17,1.35,2.06,1.91.9-.11,2.27-.82,2.58-2.84,2.01.11-.06,2.53,1.11,1.66l1.82-.22c-.07-.53-.33-1.04.19-1.46.57,1.73,2.22-1.35,3.49.11,2.07.05,1.75,1.89,1.43,2.64.26-.3.75-.39,1.03-.42.12-.55-.34-1.39.34-1.66,2.61,1.66,2.77-1.6,5.45-2.11,2.94.17-1.58,2.16.52,1.38,1.65,2.84.98-1.2,2.72-.34l.57,1.55c.08-.9-1.21-2.55.11-3.43,2.5,3.83,5.49-1.76,5.97,2.33l3.22-2.2c-.55-1.55.34-4.72-1.05-5.44ZM922.9,58.69l-1.81.23c.33-.22.91-1.37,1.64-1.45l.17,1.23ZM922.79,54.93c-.2-1.42,1.29-2.67,2.33-3.34,1,.59-1.28,1.6.62,2.08-.7.26-1.84-.13-2.95,1.26ZM961.92,58.73l-.25-2.12c.45.68,1.41,1.09,1.71,1.95l-1.45.17ZM975.78,52.18l-.59-.29,2.56-4.22c-.31-.02-.63-.19-.93-.66l.98.6-.05.06c1.19.09,2.5-1.86,3.22.45-2.08.79-3.51,2.59-5.19,4.06ZM983.78,52.99c.32-1.84,1.73-3.99,3.39-3.83-.56,1.51-2.26,4.05-3.39,3.83ZM986.43,46.19c-.86.46-1.68-.17-1.4-1.09.54-.07,1.38-.54,1.66.16.24.5-.1.73-.26.93ZM992.72,54.05l-1.26.15-.16-1.24,1.27-.15.15,1.24ZM992.18,49.79l.74-1.35.85.81c-.08.73-1.07.3-1.58.54ZM996.52,53.57h-.02s0,0,0,0c-.36.03-.66.03-.71.09l-.17-1.23.88,1.14h.02c.31-.4.98-.84.72-1.34l.55-.06c.53,1.15-.5,1.33-1.28,1.4ZM998.47,47.22l.16-1.64.54-.07-.7,1.71ZM1000.38,44.83l-.55.07c-.96-.24.38-1.31.74-1.36.09.54.32,1.05-.18,1.29ZM1011.38,44.91c-.33-1.21-1.71-1.95-2.39-1.5l.74-1.35,2.44,1.86-.8.99ZM1022.66,39.56l.03.36-1.89-.49c.55-.06,1.4-.53,1.87.13ZM1023.05,42.93c-.85.46-1.3-.19-1.89-.66.26-.75,1.47-1.45,2.1-.63.06.35.34,1.04-.21,1.29ZM1029.13,43.08l-.79,1,.32-1.83c.2.15.6.46.47.84ZM1035.46,48.42l-.18-1.42.9-.11c.08.53-.17,1.46-.72,1.53ZM1059.1,39.39l-1.64-2.85c1.18.56.94-1.37,1.01-2.28l.91-.12-.28,5.25ZM1064.97,37.77l-.38.59s.04,0,.07-.01l.31-.58ZM1051.87,34.17c-1.35.06-1.01.24-.84.63.16-.21.31-.56.84-.63ZM1051.03,34.81h.02,0s-.01,0-.01,0Z"/>
    <path class="cls-2" d="M31.4,176.57c-.53.07-1.47-.18-1.74.57-.42-.3-1.18-.57-1.05-1.12l-1.08,1.75c-1.69-.33-.03-1.61-.56-1.56l-1.28,1.44-2.4-1.52c1.35-.88.71-1.71,1.85-2.74l-1.83-1.58c.16-.19.29-.58.86-.46l-1.34-10.99c-1.65.03-3.44.43-3.82,1.74-4.06-1.67-4.13,3.74-5.58,5.34l1.3-1.4c2.11.82-.02,2.88.84,3.85l-1.92-.66c-.02,1.26-.75,4.22,1.44,4.13-.16.2-.31.58-.87.47l2.56,31.15.91-.12c.57.29.47.84.53,1.38-.1.54-.67.43-1.21.51l1.05,8.49.9-.11c.57.11.47.84.52,1.18-.12.56-.65.62-1.21.69l1.74,13.98.46-.58c1.31,1.62,2.7,3.98,2.26,4.94-.63.79-.21,2.71-1.9,2.39l-.82-3.67c-.28,3.62,1.93,5.33,1.94,8.38l-.53.08.25,4.98c.37-.03,1.09-.13,1.32.4,1.08,1.27.64,3.69-.8,3.87,1.49.16.73,2.96,2.85,2.34l-.79,1c-.37-.29-1.11-.26-1.54-.53.68,2.57.89,5.06.21,7.52l.9-.11c.19.14.59.28.65.82-.29.56-.86.47-1.39.53-.06,2.52,2.2,1.52,3.12,3.03-.26.93-1.24.51-1.74.75-.33.23-1.15-.41-1.01-.77l-.36.05.3,2.47.36-.04c.54-.07,1.08-.13,1.51.35.83.8.74,3.13-1.07,3.19l1.79-.22c1.36.54-.38,1.29-.11,2.17.28.68,1.12.04,1.69.14,1.19-.69.16-1.64.63-2.23.7-.26.98.42,1.37.73l1.66-1.45c-2.13-2.44,3.31-2.92-.22-4.82l-.3.57-1-.77c-1.22-2.38,1.31-1.06,1.65-1.46l-.61-.47c1.43-1.79,2.85-.54,4.72-1.84-.39-.12-.59-.28-.65-.82l-.8,1.01c-.52.23-.79-.44-1.36-.74.44-.77,1.16-1.02,2.06-1.15l-.26-2.13-1.08,1.58-1.02-.77c.05.35.32,1.04-.2,1.28l-1.43-1.07c-1.32-3.27,2.19-.09,2.64-2.49.8-6.76-1.98-20.43-2.48-27.38l-.79,1-.83-.8c-.42-.49.44-.96.58-1.34.38.12.6.46.94.24l-1.37-15.65c1.63-1.65-1.13-1.66-.44-3.54l-.8.99-1.01-.77c.66-.62,1.29-1.42,1.54-2.35l-1.53-.53,1.91-2.39-.83-.79c.45-5.27-2.29-11.05-.36-16.33,1.16-2.3-1.75-5.17,1.53-5.4-1.23-2.55,2.99-3.97,2.02-5.82ZM22.5,247.07c-.69.26,1.06-1.93-.8-2.06l.9-.11c-.09.73.58,1.73-.1,2.18ZM17.2,165.37l3.52.29c-1.34,1.06-1.01,2.28-.83,3.69l-.32.4c.77-1.16-2.2-2.96-2.56-3.08l.2-1.29ZM17.05,189.48l-.32.41c-.74-.08-.56-1.56-.86-2.41,1.37-.89,2.55,1.29,3.03-.73,1.89,1.91-1.91.78-2.33,1.89.19.16.6.47.47.85ZM26.63,267.25l.39-1.32.72-.08-1.12,1.4ZM28.12,268.85l-.32.4-.2-1.59c.57.12.46.66.53,1.19ZM26.02,251.85l-.84-.8c-.33.23-.5.42-.43.95l-.52-1.2c.91-.1,1.95-.58,2.61.41-.13.37-.28.56-.83.64ZM24.55,242.87l-.63-2.08.83.79.71-1.7,2.01,1.37c-1,.83-2.22-.09-2.92,1.63ZM25.28,205.72l.53,4.27-.92-2.95c-.35.06-.53.24-.65.62l-1.62-1.23c.81.6,2.26.43,2.66-.71ZM22.75,202.99l-.32-2.48.38-.06.3,2.49-.36.05ZM27.07,217.2c-.63-1.04-.84-2.28-1.72-2.95-.1,0-.22-.07-.34-.21.12.05.24.14.34.21.68,0,1.13-2.73,2.19-.51-2.25.99.99,2.02-.47,3.46ZM29.56,254l-.16-.04s.05-.06.08-.08l-1.24-1.95c.69-.26.96.43,1.55.73.03.32.09.96-.31,1.22l.08.12,1.16.32c-.38-.13-.52.25-.68.46l-.49-.78ZM30.42,257.79l.1-2.16,1.05,1.12-1.15,1.05ZM29.04,243.75c-.34.04-.75-.27-.95-.42.11-.55.84-2.08,1.7-1.1.26.68-.44.96-.75,1.53ZM29.76,221.18c-1.01.85-2.06,1.17-1.27,3.22-.64.62-1.91-.68-2.8-.56.62-.79,1.95-3.47.04-3.95,2.46-2.47,2.46,2.03,4.02,1.29ZM24.64,204.92c-.17-1.25,1.68-1.11,2.12-.62-.28.74-1.22.49-2.12.62ZM24.43,203.31l-.31-2.65,2.06,1.9-1.74.74ZM26.67,191.72l-.79.99-1.53-1.96c-.52,3.12.94,4.56,1.01,8.13l-.49.43-3.74-2.04,2.67.91c.98-1.01-.23-1.95-1.03-2.56,1.64-.02-.05-1.8.45-2.23l-.81-.61c2.35-.28.13-1.99,1.26-3.21-1.95-1-.17-2.86-.96-4.74l.92-.12c-1.33,2.68,4.12,2.19,1.96,5.52.43.49,1.2.75,1.1,1.49ZM26.36,178.8c.29-.56,1.57-.73,2.18-.26l-2.18.26ZM22.68,254.6c-.09-.35-.19-.69-.3-1.04-.13.59.03.87.3,1.04Z"/>
    <path class="cls-2" d="M38.04,360.78c1.09,1.34-1.41-1.09-2.15.27l-.05-.36,2.2.09Z"/>
    <path class="cls-2" d="M40.13,362.73c-.61.99-1.97.43-2.29-.63.49,2.32,1.37-.92,2.29.63Z"/>
    <path class="cls-2" d="M37.07,366.23l-.86-2.65.71,1.37.16,1.28Z"/>
    <path class="cls-2" d="M59.57,367.3l-.89.11c.27-.76-.5-1.04-.93-1.55l-.8,1.02c-.67-1.01-3.79-.99-5.72-3.33,2.83-2.36,7.09.97,8.34,3.75Z"/>
    <path class="cls-2" d="M41.68,367.85l-1.42-1.1c-.86.47-.2,1.31-.27,2.23l-.63-2.12c1.04-.49,2.04.12,2.33.99Z"/>
    <path class="cls-2" d="M42.5,371.6c-.33.22-.57-.12-.95-.24l-.61.99c.83.81,3.01.54,3.01.54-1.14,1.25-3-.37-3.88-.06-1.21-.98,1.77-.59,1.37-2.37-.09.74.65.83,1.06,1.14Z"/>
    <path class="cls-2" d="M49.38,373.87c-.15.2-.47.6-.24.95l-1.02-.8,1.26-.15Z"/>
    <path class="cls-2" d="M42.94,375.22l1.35.56-1.35-.56Z"/>
    <path class="cls-2" d="M52.12,373.56c.09-.17.18-.31.29-.45-.01,0-.03-.01-.03-.01l-.28.43.03.02ZM137.74,366.09l-.39.06c.14.04.27.01.39-.06ZM51.07,373.96c-.1-.22-.24-.44-.47-.61.02.27.26.41.47.61ZM51.26,374.19c-.06-.1-.12-.16-.18-.23.41.97-.18,2.25-.41,2.87l2.18-.27-1.02-.79,1.11-1.41-.81-.8c-.23.37-.48.71-.87.63ZM101.3,369.94l-.43.69c.27-.17.42-.35.43-.69ZM142.58,365.49c-.02-.16-.09-.34-.18-.47-.06.15-.03.34.18.47ZM216.31,356.79c.43-.33.46-.58.29-.81l-.29.81ZM171.96,361.47s.01.03.01.04c.03-.04.02-.04-.01-.04ZM54.04,376.05c1.37.77,2.46.26,3.38-.34-.94.62-2.91.03-3.38.34ZM124.02,362.09c.11,0,.22,0,.32,0l.15-.59-.47.6ZM44.32,368.44c.02-.06,0-.1,0-.17l-.87.64c.57.12.7-.26.87-.47ZM212.15,351.24l.3-.6-1.59,2.04c-.77-.27.02-1.29.31-1.86l-.91.11c-.24.94-.13,1.67-.98,2.33l-1.43-1.13c-4.67-2.17-3.08,3.13-7.03.87l.42-.96c-1.31,1.24-5.1.27-5.97,2.2-.73-.09-1.45-1.48-2.33-1.2l.06.57c-1.09-.05-3.87,2.67-4.76.02l-1.21,1.99c-.95-.26.03-1.11-.23-1.82l-.61,1c-1.35-2.02-2.17.26-3.77-.81-.67.43,1.13,1.67-.49,1.87-.59-.28-.65-.83-.72-1.37l-1.27.15.18,1.45c-2.14.46-6.42-.12-7.83.41l-1.01-.78c-1.63-1.27-.76,1.19-1.99,1.71-.43-.5-1.17-.59-1.08-1.33-1.01.68-4.84-.51-5.06,2.09-.23-.34-.61-.48-.48-.85-2.91,1.71-8.18-.41-8.56,1.97-.59-.49-1.06-1.16-1.92-.7l.12.92c.52-.26.74.1.95.25l-1.5,1.09c-.44-.48-1.18-.58-1.07-1.15l-.8.84c-.45-2.14-3.64,1.73-4.7.58-.18-1.44.75.09,1.17-.89-1.82-1.41-1.48,1.47-3.08.38-.77-3.2-3.94.68-5.23.65-.21-.33-.61-.46-.47-.86-1.87-.32-5.75-.57-6.02,1.67l-1.02-.8c.34-.23.48-.62.43-.97-1.74,1.44-4.45,1.66-6.6,1.75l-.22.93c-1.62,1.67-5.09-2.68-5.87,1.46l-2-1.4c-1.06.3-2.78-.21-3.79.45l.29-.58-.92.12c.28.7-.42.97-.71,1.55l-.53-1.39-.3.58c-1.93-2.15-2.42,1.21-3.98.49l.3-.57-6.86.85c-.89,3.21-3.44.42-5.49,1.57-1.45-2.93-2.62,1.07-4.02.14l.46-.6c-2.06-.48-2.88,1.82-4.8,1.15l.49-.62c-1.72-.52-1.27,1.61-2.53,1.79-.23-.36-.61-.48-.47-.87-3.03.74-4.6-.17-6.1,1.12-1.37-2.19-2.22,1.4-3.79.47l.31-.4-4.69.59-.07-.55-.79,1.01c-2.79-.39-5.17-1.74-7.04.87-1.26-1.32-.55.05-1.56.73-.44.99-1.53,1.12-2.18.28.44-.96,1.34-1.07,1.99-1.72-.95-.23-3.5-.28-4.47-.73.15-.21.49-.42.24-.93-1.21,2.15,1.19,2.22,1.75,3.79l-.6,1c-.21-1.62-4.72-2.52-4.98-4.7.62.66,2.24.45,2.48-.68-.65.65-1.58.56-2.23-.25-1.79.39-.42-1.8-1.18-2.06l-.8,1.01-2.53-2.81-.62,1-1.01-.8.8-1.02-1.52-.54c.5-.44.58-1.19,1.32-1.08-1.07-1.15-.95-3.19-3.09-2.73,3.35-1.15-1.71-3.46.62-5.39,1.76,2.35,2.57,2.97,2.86,5.33,1.73,2.16,3.27,2.72,2.44,5l1.28-.13c-.73-1.4,1.15-1.08,1.61-1.88-2.27-1.92-2.13-6.69-4.9-6.9,1.32-4.19-3.04-6.95-.78-10.9l-1.52-.37c.49-3.36-1.23-8.44-.04-12.26l-1.61-1.1c1.48-2.93-2.56-7.55.12-11-.35-1.43-3.09-2.74-1.13-4.62-2.73-4.44-.45-9.67-2.49-12.91-.48-.86-1.19-.77-1.8-1.24,3.38-3.89.8-8.34.09-12.65l1.33-1.09-1.45.18c-1.27-1.31.02-2.93,0-4.4l-.9.1c1.61-5.24-2.3-9.82-.44-14.95-.82,1.06-2.87.86-3.42.59.2.22.44.39.34.69-.17.18-.3.57-.67.62l.32,2.53c-4.65,3.87,3.24,4-.48,7.94l-2.59-3.17c-.5.45-.74,1.37-1.47,1.49l-.82-2.11.11.9c-.68.45-.86,1.93-2.02,1.53-1.46,4.39,4.05.05,2.55,2.8-3.65.08-1.19,3.82-1.48,5.87.54-.08,1.08-.15,1.51.35l-1.25,1.81,2.63,21.3,1.59,1.09c-.28.59-.85.47-1.39.54.6,1.93-.15,4.78,1.61,5.67-.16.19-.29.56-.86.46l2.2,13.3c-.03-.17,2.04.13,1.49,1.66-.29.76-1.23.5-1.77.58l1.45,11.75c1.3-1.28-.4-1.79.52-3.19.71-.26,1.34.41,1.92.69-.95,1.22-.41,2.61-.11,3.5l-.37.05c.66.84.57,1.58-.09,2.22-1.05.49-.65-.84-1.6-1.11l1.08,4.28,1.26-.16c.41,1.79-.46,2.09,1.6,2.56l-.81.83c.28.89.06,2.01.87,2.66.56.11.84-.66,1.15-1.08l1.02.82-1.61,1.84c.71-.1,1.37.74,1.99,1.23l-.81.84c.71.68,2.13,1.93,2.21,2.33l.53-.83,1.02.78c.08.54.54,1.4-.16,1.67-.52.25-.74-.09-.95-.25l-1.11,1.42,1.63-.2c.67-.63,1.29-1.45,1.54-2.39.9-.11,1.67,1.64,2.24.27l1.42,1.11-.34.4c-.51.25-.73-.09-.93-.23l-1.6,1.84-.81-.63-.75,1.36c.16.14.47.29.47.68l1.16-.88c2.88,1.11-1.24,3.27,1.44,4.23.68-.27,1.85.12,2.1-.81l-.42-.32c-.56-.12-.69.26-.86.46l-.99-.62c-.07-.53-.13-1.09.36-1.51,1-2.31,2.43.45,3.86.08l-.6,2.65,2.12-.63c.29.87-1.41,1.62-.12,2.18l1.56-2.36c.22.32,1.16.4.89,1.17-.15.2-.29.58-.67.45l1.53,2.01,1.06-1.78c.4.32,1.14.4,1.04,1.14.31,1.05.13,1.61-.28,1.93,1.21-.81,2.18-1.7,3.09-.06l13.9-1.72-1.01-.8c-.04-.36.12-.56.43-.98,1.59-.36,2.45,2.1,2.75,1.5-.21-.14-.59-.28-.48-.85.08-.76,1.04-.5,1.57-.57.57.11.65.85.7,1.2,6.09-1.12,13.81-.99,18.5-3.19.19.14.6.47.46.85,1.48.18,3.39-.77,2.49-2.14.53-.23.79.45,1.37.76.01.08,0,.17,0,.26l.79-1.28c.76.28.33,1.24.59,1.76,1.47.17,1.37-.72,2.42-1.21.37.13.6.48.65.83,3.2-.76,8.25.09,9.77-2.5.57.13.46.87.52,1.23,5.19-1.02,10.37-.53,13.79-2.61l.11.89.32-1.88c.71-.26,1.16.42,1.74.72.26.52-.08.73-.24.93l1.61-.19-.4-.32c-.26-.71.43-.98.72-1.57,1.15.42,1.36.58,1.86,1.61l1.22-1.97,1.42,1.28c-.09.12-.26.32-.45.42l1.77-.23c-.04-.36-.31-1.05.21-1.29.54-.07,1.06-.31,1.49.18.07.55-.27.77-.43.98l1.16-1.08c.17.08.34.21.46.37.11-.58,1.19-1.29,1.54-1.88.38.13.58.29.65.83l.8-1.02c.74.09,1.75.89,1.53,2.02,3.03-.74,6.96-.13,8.92-2.02.21.18.61.48.65.86l1.52-1.13c.21.17.62.48.65.85,3.14.15,5.62-1.97,7.75-.96l-.02-.35c.38-1.34,1.45,0,1.66.16,1.42-.37-1.31-1.68.68-1.94.31,2.61,2.93,1.07,3.22,1.04-.2-.48.11-.71.26-.91,2.82,2.03,6.81.08,10.26.03.78.28,1.33-2.73,2.8-1.25.24.52-.11.73-.26.94l4.02-.13c1.75.89,1.88-2.61,2.88-.37,5.18-1.01,13.32-.52,17.18-3.4.57.13.65.84.7,1.2l4.69-.58-.98-.6c.06-.96-.4-1.79.27-2.25l1.7.54c.08.57.86.9,1.12,1.29l2.03-5.54c-3.53-1.95-3.8,3.4-6.49.8ZM29.26,302.84c.36-.03.58.3.97.43l.1.9-1.08-1.33ZM32.59,326.03c.27.26.51.46.52.53-.28-.16-.43-.35-.52-.53-.48-.54-1.02-1.31.14-1.61,0-.02,0-.08,0-.11l-.88-.53c.65.05.86.25.88.53l.12.09c-.05,0-.08.02-.11.03-.03.45-.35,1.07-.14,1.61ZM31.94,321.57l.58.3-.5.42-.57-1.57c.55-.08,1.42-.53,1.69.15l-1.21.69ZM28.24,291.61c-.98-.45.17-1.5,1.05-1.97l-1.05,1.97ZM37.76,292.98l-.47.61c-1.15-.41-1.34-1.85-.71-2.67,2.2-.08-.54,1.55,1.18,2.06ZM34.09,275.1c.52-.24.74.09.95.25.03.35.32,1.07-.21,1.32l-.54.06-.2-1.62ZM38.53,306.64c1.02.8.1,2.38-.96,2.69.11.9-1.06-2.62.96-2.69ZM39.47,318.81l-1.64-2.93c.61.47,1.24,1.13,1.96,1.06-.11.56.54,1.4-.32,1.87ZM34.43,291.2c2.09.66.28,2.33.44,3.61l-.44-3.61ZM35.76,302.03l-.72,1.56,2.16-.28-1.17.88c.53.3.83.82,1,1.32.12.21.18.47.16.72-.02-.23-.09-.47-.16-.72-.73-1.26-3.36-1.34-1.27-3.49ZM37.17,320.93l.56,1.57c1.53-.94.77-2.67,2.69-3.45l1.08,1.34-2.08.99c1.85,1.61,1.16,3.51.24,4.91-.29-.99-1.65-2.79-2.69-1.74.45-.59.63-1.25.38-2.01l-1-.78.81-.83ZM41.14,335.27l-1.08-.37s.08.09.14.14c-.05-.04-.12-.09-.16-.14l-.82-.29c.41-.06.64.13.82.29h.02c-1.64-1.57,1.46-4.5-.8-5.84-.08.14-.24.27-.46.38-.2.48-.29.99-.77,1.46l-.23-1.81c.37-.04.56.13.79.46.08-.04.14-.07.2-.11.07-.17.16-.33.27-.49.08.03.13.07.18.11.61-.81-1.13-1.59-.46-2.28l1.02.79c-.34.22-.49.42-.42.96.2.16.61.49.95.25l1.1-1.42c.02,3.12-2.09,5.38-.31,7.9ZM35.96,328.94l.21-1.28-.8-.47c.75.1.91-1.57,2.06-1.15-.44.97-.65,2.07-1.47,2.9ZM41.11,349.68c-.21.08-.48.12-.74.17l-.46.62-.44-.49c.34-.02.63-.07.9-.12l.32-.4c.16.07.29.13.42.23,4.15-1.36-1.64-6.72,1.04-9.2-1.58-2.37-.77-3.21.95-4.15-2.58,2.88.51,7.09.85,11.45l-.43-.49-.04,4.04c-1.3,0-1.44-1.02-2.38-1.64ZM63.12,370.89l.22-1.29,1.84.13c-.5.26-.24.93-.19,1.29-.46-.67-1.29-.02-1.87-.13ZM65.62,373.14l-.08-.07c-.29-.19-.59-.3-.87-.17l-.48-.86,1.35,1.03s.05.06.08.07c.71-1.55,1.91.69,2.26.65-.77.99-1.52-.08-2.26-.65ZM89.98,371.62l-.72.09-.19-1.44c.38-.04.6.29.8.45l.11.9ZM150.31,364.18l-1.45-1.29c.37-.04,1.09-.14,1.34.38l.11.91ZM158.98,363.12c-.37-1.44,1.51-1.11,2.1-.81-.09.74-1.4.53-2.1.81ZM190.1,358.36c.27-.76,1.35-.91,1.64-.22l-1.64.22ZM210.43,355.29l-.57-.28,1.03-1.96c.62.47.2,1.63-.46,2.24ZM162.66,357.36c.31-.19.59-.39.82-.68-.53.08-.67.46-.82.68ZM36.31,266.79c.16-.21.28-.49.33-.8-.13.27-.24.54-.33.8ZM42.12,363.26l-.08.14c.08,0,.1-.04.08-.14ZM32.89,267.38c-.05-.06-.1-.12-.13-.18-.02.06.02.11.13.18Z"/>
    <path class="cls-2" d="M762.82,285.02c-.07-.54-2.31.65-1.07-1.15l-13.4,1.28-.06-.54-1.75.77c-1.56-.91-1.55,2.22-3.3,1.32-.28-.53.06-.73.23-.96-1.56.75-3.03.74-4.45-.35-1.71,2.4-5.5-.06-7.24,2.18-1.98-1.05-4.34.51-4.9-1.07-.81.84-2.14,2.1-3.28,1.69-1.67-.15-3.17,1.12-4.97-.3-1.8,3.33-3.66-1.2-5.83,2-5.15,1.19-15.17.39-20.69,3.1l-.11-.91-3.06.37c-2.25,1.4-3.64.46-6.1,1.13-2.07,2.45-6.02,1.83-7.81,3.71l-1.6-1.28c-11.29,2.31-20.57,1.25-31.24,2.57-.54.06-1.15,2.51-2.05,1.17l.32-.41-10.54.74,1.59,1.09c-1.4,2.01-2.09.82-3.96.5.06.55.31,1.06-.2,1.48-1.76-1.07-5.27-2.65-7.26-.92.05-1.29-1.31-.23-1.77-1.09-2.81,2.56-4.42-.18-7.01,1.24l.62.48c-.52.25-.59,1.17-1.35.9-.43-.49-1.22-.77-.94-1.55-2.53,1.79-4.28-.57-6.1,1.12-4.86-.68-8.21,1.73-13.05,1.24l-.09-.9c-1.57,2.2-5.29.28-7.67,1.85-2.86-.92-6.44,1.17-9.93,1.23l.6-.98c-.71.08-1.07,1.59-2.12.61l1.64,1.28c-.52.43-.97,1.23-1.72.94-.02-3.11-3.93-.61-4.54-1.09-2.27.83-4.51.56-6.4,1.72.14-.38.5-.61.26-.95-1.48-.19-1.39.53-2.37,1.57l-1.02-.78c-.85.46-5.19-1.94-5.13,1.53l-.87-1.16c-4.53,2.01-12.88-.25-16.43,3.67-.2-.35-1.15-.41-.86-1.19-1.89-.31-4.52.54-6.07,1.29-2.74-1.51-4,2.51-5.7,1.21l-.65.86-1.02-.8c.15-.19.49-.42.42-.96-1.36-.92-2.14.55-3.14-.16,0,.06.03.1.04.18-2.45,1.03-4.87.77-6.84,2.49-.72.27-2.18.27-1.81-1.06-1.37-.76-2.7.33-2.9,1.62l-2.81-1.85.12.91c-2.78-.02-6.31.96-9.22,1.13l.61.47-.82.85c-4.27-3.53-12.39,2.06-16.69-.15-.83,2.3-2.54.29-3.66.08-1.38,2.2-3.83,1.56-6.34,2.06-.07-.37.29-.58.42-.96-1.54,2.4-4.72,1.68-5.95,2.19-1.2,2.16-5.18-.27-5.65,3.27-2.61,1.06-3.36-1.98-4.64-1.98-1.49-.19-5.36-.26-4.72,1.85-.45-.49-1.19-.59-1.07-1.16l-14.69,1.25-.75,1.39-1.4-1.11c-4.55.21-6.85-.62-10.83,1.33-2.42-1.71-4.4,0-6.56.45-1.36.72-4-1.34-4.19,1.44l-1.02-.79c-1.37-.58-3.59.61-5.57,1.05-1.88-1.79-4.31,2.17-5.35-.26.55,1.41-1.69,1.12-3.02.93-.63,3.73-1.84-1.79-3.92-.81l2.36,1.37c-1.36,2.37-2.81-.56-4.45-.38l-.72,1.57-1.01-.79c-.45.79-1.15,1.05-2.06,1.16-3.74-.62-4.26-.39-7.86.06l.27-.59c-1.59,1.85-4.18,1.62-5.99.39-2.09.98-4.66.91-7,1.22-1.05-.99-1.94.6-2.41,1.21l-1.01-.79c-2.13,2.1-4.68-.53-5.98,2.18l-.83-.8c.05.36.14,1.08-.38,1.35-.55-.13-.47-.87-.51-1.24l-3.02.74c-3.16-1.63-7.64,2.05-11.85.55l-1.05,1.96c-2.85-2.21-6.42.06-8.78.17l-.11-.91c-4.22,1.44-8.93,2.01-12.69,1.2-2.42,1.22-5.92,2.56-8.56,1.98-3.45.23-7,1.24-10.35.73-1.74.77-2.79,1.24-4.88.59l-1.1,1.61c-.83-.81-2.93,0-4.39,0-3.92-.62-10.14,2.53-13.28,2.18-1.83.25-7.63,2.05-11.6,2.71-2.59-4.64-7.9,1.36-12.37-.66l.13.89c-.17.2-.47.62-.86.48-.57-.12-.47-.86-.52-1.22-.51.43-.59,1.19-1.34,1.09-.9-1.36-1.8-1.24-2.54.31-1.19-2.42-4.57,1.66-4.85-.88-1.03,2.14-3.33-.13-4.78,1.51-1.54-.54-3.7-.28-5.24.66-2.16-1.21-4.93,1.51-7.13,1.44-.72,1.72-2.22,4.47-.85,5.22l1.24-1.78c5.88,1.48,8.91-3.67,15.43-2.82,2.67.76-.89,1.75.3,2.51l40.28-4.96c.05.35-.21-1.81,1.11-1.43.57.11.65.83.71,1.21,3.17-.95,9.57.29,9.72-2.86.72-.27.98.43,1.38.75.22.35-.13.57-.27.78,1.63-.21,3.28-.04,3.63-1.72.39.12.61.46.66.84l35.98-4.06,1.16-.89c.2.16.6.28.63.66,4.61.15,9.83-2.14,12.85-2.88.57.1.48.86.51,1.21l1.81-.23-.08-.72c.09-.55.66-.63,1.18-.68.57.11.48.86.53,1.22l23.46-2.91.17-1.64c.64.83,2.33-.47,2.31.98l63.85-6.95,1.58-2.02c.99.45-.04,1.11.23,1.81l74.95-9.25c1.56.73,1.54-2.19,3.01-.91l154.69-18.15,3.87-1.39c9.4.48,21.38-2.09,32.26-3.07.13-.37.45-2.25,1.96-1.89.43.51,1.2.78.92,1.54l46.04-5.67c2.14-3.56,4.54,1.09,8.14-1-.75-1.57-2.79-3.16-2.28-5.04ZM240.4,352.53l-.53-1.22.37-.06.16,1.28ZM247.75,351.26c.62-.81-3.76-.83-5.29.12l-1.27.14c1.5-1.28,4.18-1.62,6.29-2.42,1.91.67,7.54-2.77,10.73-2.25-3.3,2.97-7.99.62-10.46,4.41ZM314.75,344.29l-.24-1.82c.36-.05.6.29.99.45l-.75,1.37ZM358.75,337.03l-.7-1.2.91-.12c.06.55.32,1.06-.2,1.32ZM360.49,337.72l.78-1.02,1.13,1.71-1.92-.69ZM530,316.46l-1.02-.79.8-1.02.83.82-.61.99ZM636.18,300.25l1.81-.21c.33,1.24-1.84,1.51-1.81.21ZM656.74,299c-.29-.88,1.12-1.24,1.59-.56.25.7-1.06.5-1.59.56ZM517.09,312.74c.21.33.43.54.62.67-.1-.38-.28-.56-.62-.67ZM521.64,314c.15.2.3.36.45.46l.12-.16-.57-.3Z"/>
    <path class="cls-2" d="M1232.75,120.22c.23.33-.42,1.16-.84,1.02-.59-.11-1.5.55-2.01-.32.58-1.71,3.17-1.3,2.47-3.79-.58.09-1.13.32-1.58-.17-.07-.53.29-.77.46-.96l.95-.12c-1.31-2.26-1.72-4.78-1.67-7.49-.39.39-1.14.55-1.47.91l-1.07-.79c2.35.11.87-2.49,2.35-3.03-1.53.19-2.58-2.06-1.82-3.62.15-.57.91-.66,1.3-.73l-1.02-4.99-.58.05c-.75-3,1.09-5.26-.1-8.78l.08,3.84c-1.65.75-1.71-1.26-2.57-1.89-.67-.84.16-3.5,1.08-5.44l.64.47-1.76-14.27c-.56.08-1.14.14-1.41-.38-.05-.35-.33-1.06.22-1.31l.97-.12-1.08-8.66c-.56.06-1.1.32-1.38-.2-.06-.55-.33-1.06.21-1.5l.95-.11-5.24-31.45c-.53.25-.76-.09-.98-.24,2.27-.47.78-3.21.42-4.45l-1.8,1.13c.64-1.16-2.1-2.66-.13-3.99l1.71,1.06c-1.9-1.24-3.36-6.55-7.08-3.9-.73-1.19-2.68-1.13-4.37-.74l1.36,11.19c.58-.24.79.08,1.02.25l-1.5,2.02c1.44.74.99,1.71,2.6,2.24l-2.08,2.09-1.68-1.07c-.57.07,1.46.92-.2,1.67l-1.52-1.46c.28.52-.46.97-.8,1.38-.46-.68-1.37-.2-1.95-.12-.53,2.08,4.19,2.42,3.56,5.25,3.41-.61,1.13,2.97,2.95,4.95,3.3,4.73,1.93,11.13,3.75,16.21l-.66,1,2.54,1.89-1.43.91c.51.85,1.35,1.48,2.17,1.93l-.84,1.02-1.07-.78c1.18,1.69-1.65,2.41.46,3.61l2.52,15.81c.4.14.56-.25.89-.48.25.34,1.27.59.93,1.18l-.66.99-1.07-.77c1.26,6.99,1.86,21.21,4.4,27.69,1.04,2.25,3.86-1.77,3.34,1.79l-1.2,1.41c-.59-.1-.49-.84-.53-1.21l-.84,1.02-1.53-1.27.25,2.17c.96-.12,1.77-.03,2.43.61-.55.43-.66,1.19-1.25,1.08l-1.04-.79c.05.52-.12.74-.49.98,2.27.82,3.41-.79,5.34.64l-.51.6c.44.31,2.72-1.63,2.05,1.02l-.84,1.02-.45-.49c-3.14,2.78,2.57,1.89.98,4.83l2.07,1.03c.35-.4.42-1.14,1.23-1.07.66.47-.17,1.67,1.24,2.05.53-.24,1.55.18,1.67-.58.07-.93-1.88-1.23-.67-2.11l1.93-.24c-1.89.41-2.56-1.87-1.92-2.87.32-.6.9-.66,1.47-.73l.4-.06-.33-2.52-.38.06ZM1228.15,98.78l.95-.13c-1.87.61.49,2.34-.29,2.25-.81-.26-.38-1.42-.66-2.12ZM1217.27,40.36c1.01,1.88,1.67-.58,3.3-.04-.08.93.49,2.32-.27,2.61l-.44-.32c-.23-.35.11-.75.28-.96-.7-1-4.32,1.09-2.88-1.29ZM1213.66,18.8l.51,1.23c-.35.22-2.94,2.74-1.86,3.69l-.42-.31c-.18-1.44-.15-2.73-1.79-3.44l3.55-1.18ZM1211.61,48.01l-1.07-.78c-.28-.7.45-1.15.76-1.74-3.06-2.75,2.67-3.63.63-5.94l.95-.12c-.31,2.05,2.01,3.42.24,4.93,1.46.92-.4,3.16,2.08,2.85l-.67.82c.62.29-.68,2.47,1.02,2.07-.68.82-1.7,2.05-.42,2.81l2.51-1.59-3.31,2.98-.62-.29c-.81-3.57.33-5.35-1-8.31l-1.09,2.33ZM1218.42,60.75l-1.36,1.63c-.24-.34-.45-.5-.82-.46l-.18,3.14-.53-4.33c.69,1.02,2.22.82,2.9.01ZM1215.77,58.14l-1.97-.3,1.64-2.4.33,2.7ZM1217.04,57.43l-.32-2.53.38-.04.32,2.52-.38.05ZM1213.64,59.68c.3-.58,2.17-1.18,2.33.08-.96.12-1.87.59-2.33-.08ZM1217.6,69.17c.08-.1.17-.2.27-.29-.07.17-.17.26-.27.29-.74.87-.66,2.16-1.03,3.36-1.87-1.05,1.2-2.9-1.38-3.32.56-2.45,1.7.13,2.41-.04ZM1216.91,80c.3-2.24-.85-2.28-2.09-2.86,1.77.33.66-4.11,3.81-2.3-1.84.96.18,3.27,1.04,3.89-.96.12-1.94,1.71-2.77,1.26ZM1220.09,97.93c.66-1.18,1.77.15,2.03.66-.15.21-.49.62-.86.66-.49-.48-1.25-.59-1.16-1.33ZM1221.92,112.74l.81-1.39.64,2.13-1.46-.74ZM1223.46,109.44l-.16.08-.32.88c-.21-.14-.45-.49-.79-.26l1.1-.63.05-.13c-.46-.18-.57-.8-.64-1.15.53-.43.66-1.17,1.43-1.08l-.79,2.23s.07.05.11.05ZM1222.23,96.39l1.72-1.86,1.14,1.5.67-1-.12,2.21c-1.14-1.52-2.17-.3-3.41-.86ZM1228.97,124.15l-.44-.3c-.08-.55-.29-1.06.23-1.31l.21,1.61ZM1227.05,105.51l-.66,1c-.57.08-.76-.08-1.02-.42.44-1.15,1.6-.92,2.58-1.04l-.21,1.31c-.07-.55-.3-.71-.7-.84ZM1230.56,107.28c-.02.36-.02.73-.02,1.1.24-.23.34-.57.02-1.1Z"/>
    <path class="cls-2" d="M1158.22,138.17c.03.18,0,.38-.03.58.08-.18.08-.36.03-.58ZM1144.73,137.73h1.04c-.12-.35-.41-.47-1.04,0ZM1147.13,137.45c-.15.08-.24.18-.31.27h.86s-.56-.27-.56-.27ZM1151.96,138.42c.27-.04.51-.07.7-.09l-.7.09ZM1153.44,150.97c.01-.59-.11-1.23-.2-1.78-.18.57-.18,1.17.2,1.78ZM1117.29,162.75l-.86.1c.38.14.64.08.86-.1ZM1123.69,197.32c-.07-.44-.12-.91-.2-1.33.06.4-.09,1.05.2,1.33ZM1125.56,212.82v-.05s-.05.03,0,.05ZM1129.22,222.8l-.03-.31c-.04.12-.02.23.03.31ZM1048.2,149.62c-.55-.21-1.04-.21-1.54.2.48-.05,1.04-.29,1.54-.2ZM1174.86,28.47c-.08.14-.14.28-.12.44.04-.13.07-.29.12-.44ZM1183.68,22.05l.26-.56c-.16.15-.27.29-.37.45.04.03.08.07.11.11ZM1175.17,27.57c-.12.3-.23.61-.31.89.12-.28.37-.57.31-.89ZM1061.8,209c.07-.02.12-.03.18-.04-.16-.41-.38-.78-.67-1.12.05.35-.05,1.05.48,1.17ZM1165.25,29.73l-.12-.03-.02.1c.06-.04.09-.07.14-.07ZM1140.75,43.52l-.12.05c.12.4.16.26.12-.05ZM1120.4,117.2l.03.91s.05-.05.09-.05l-.12-.86ZM1137.26,138.81c.04-.06.06-.1.08-.16-.09.02-.08.07-.08.16ZM1165.01,30.62l.09-.82c-.43.44.14,2.72-.09.82ZM1154.34,151.91c-.42-.3-.71-.61-.9-.94-.02.41-.1.79-.32,1.08l1.22-.15ZM1109.94,96.8c.19-.15.37-.32.46-.51-.03,0-.04,0-.06,0l-.4.5ZM1012.86,153.91c-.08.14-.09.3,0,.44l.04.02c-.04-.15-.06-.32-.04-.46ZM1087.2,39.55l-.22.18c.33,1.51-.03.35.22-.18ZM1014.13,154.07c-.05-.25-.14-.52-.16-.73.02.26.08.54.16.73ZM1109.26,97.65l.67-.85c-.3.24-.68.43-1.22.58l.55.27ZM1159.35,138.2c-.05-.3-.09-.65-.05-1.03-.29.03-.1.5.05,1.03ZM1184.69,17.73c-1.31.69-3.06-.66-3.36-.45-1.67.56-4.86,1.64-6.26.24-.85,1.5-5.7,1.76-8.16,1.53-1.61,1.24-5.44,1.19-7.12.36.52-.07-.47,1.8-1.36,1.56-1.79.92-5.44-1.59-4.84,1.82-1.04.13-1.96,1.28-3-.16l1.55-1.42c-3.11.04-5.34,1.71-8.25.67.14-.2.28-.55.63-.6l-.69.08c.11,5.22-4.29-.87-6.08,1.63l-.06-.34-1.21,1.37c-1.75-1.52-4.59,2.31-6.29-.1l-1.56.2c-2.47,2.4-5.69-2.44-7.83,1.48l-1.01-1.27c-.35.04-.92,2.55-1.98,1.11l.5-.41-3.7,1.32c.46-2.07-.86-1.02-1.68-.69l.03.02c-1.94,2.69-4.06.86-6.69.82l.46-.58c-2.63-.02-2.23,1.84-4.32,3.15-.18-.14-.58-.45-.48-.82.17-.19.31-.56.85-.45-.41-.47-1.11-.57-1.03-1.27-1.54,2.98-3.49-.09-5.83.72l.58.45c-.48.23-.41.92-.35,1.27-1.39,1.56-2.94-2.44-3.59.78-1.35-1.22-1.1-.39-2.13-.43l.18-1.42c-1.4,0-2.89.7-3.16,1.26-.96.81-1.28.86-2.41.29l.58-.94c-.16.2-4.68.23-5.17,2.04l-.14-1.38c.3,1.02-1.07,1.35-1.5.71l-1.12,2.22c-.2-.15-.58-.45-.47-.81-1.39-.18-1.74,2.65-3.08,1.6.04.51-.07,1.05.48,1.17-1.4,1.39-.11,3.49-.27,5.08,1.13.74,2.54-.67,3.93.73-.45.59-.7,1.31-1.6,1.07l.14,1.21,1.63-.91,1,1.1c-.06-.51-.28-1.01.2-1.24.53-.06,1.01-.29,1.24.2.22.32-.08.71-.24.89l1.06-1.34c.19.15.55.28.62.62l2.58-1.54-.39-.3c.87-.1,2.01-2.16,2.92-.36.32-.22.55.11.9.24l1.4-1.39c.59.46,1.79.3,1.42,1.57.57.46,5.49-2.08,6.01.83-.37-1.53,1.49-2.28,2.65-2.77l1.03,1.44c1.53,2.43,3.49-.08,3.87-1.17.38.31,1.1.39,1.02,1.1,2.05-.44,3.17.13,3.64-1.67l.35.29-.28.39,1.27.37c1.47.69-.67,1.65.65,2.36-.41.93-1.09,1.18-2,.76l1,1.1c-1.85,1.98-3.8-1.1-6.23.25,2.51,2.14-.19,4.21,1.6,6.08.82,13.86,3.55,27.46,5.09,41.23-1.07,2.1.4,4.5-.43,5.97.45-.16.89.43,1.27.72-.04,4.19.41,10.58,1.96,13.18-.63,8.96,2.6,19.73,2.8,28.42l1.26.37c1.99-.77,5.82.5,6.35-2.17,2.9.87.45,3.61,1.48,4.88-2.51.83-2.03-2.38-4.33-1.04-2.67.85-8.22-.38-9.23,2.7l1.96-1.11c1.65.67-1.17,2.06-.08,2.12,1.51-.2.93,1.96,1.84,2.38l1.1-1.01c.2.15.56.29.63.8-.43.93-2.08,1.47-1.58,1.41.42,2.04,1.36-.35,1.95,1.5-.89,1.5-.92,3.96-2.92,3.15l.06.52,3.6-.44c-.63.58-1.29,2.25-2.67,2.41-.18-.14-.58-.45-.45-.82-3.2-.47-3.28,5.98-6.42,1.66l.53-1.27-.68.09c-.57-.28-.63-.8-.68-1.32-1.15.66-1.81-.47-2.23-.94-.14.18-.43.58-.22.9.46-.25.9.41,1.29.7l-2.2,1.85c.02-1.24-2.37-.75-1.16-2.3l.37.3-.62-2.36c.29-.38.38-1.1,1.07-1.02-.25-.82-1.72-1.34-.61-2.35-2.39.64-2.18-1.83-3.83-2.5l-1.23,2.6,1.71,1.17-1.06,1.35c-2.45-1.45-2.23-5.47-4.97-3.56l-.12-.87-1.19.15c-.5.24-1.07-.22-.97-.75l-1.05,1.35c-.79-2.01-2.7-2.1-3.78-2.33l-.15,1.59c-2.03-.79.01.17-1.62,1.08-.98-1.11-1.33-1.07-1.48-2.27-.71.09-1.93-.1-2.03.6-1.37.16-3.88,2.4-5.68.7l-.65,1.83-.77-2c.61,2.01-2.67,1.03-4.1.5.03.52.48,1.16-.18,1.6-4.33-2.6-5.07-.25-10.4.41l.31-.38-.68.08c-1.01.48-2.62,1.54-4.6.91-.07-.34.09-.52.42-.74l-2.6.32c-.24,2.28-3.73-.6-3.1,1.6-.56-.31-1.03-.61-1.47-.83.07.04.1.08.15.13-.43.74-1.08.99-1.93,1.1-2-2.02-6.13-.11-8.41-.2l-.79.81c-1.15-2.47-3.26.22-4.63-1l.36.29c-.83,1.7-1.48.72-2.3,1.15l-.03-.33c-1.79-.3-3.01,1.24-4.09.86l.32-.39-.88.11c.19.15.56.29.61.61-1.5.54-3.44,1.82-5.06-.06l.16,1.19c-2.31-3.02-5,2.03-5.68-2.25l.09.85c-.8.62-1.19,1.72-1.86,1.81-.27-.05-.42-.2-.52-.41.1.39.1.79-.29,1.04l-.93-.74c.16.63.47,1.24-1.14.99-.53-.1-.61-.78-.65-1.13-2.55.49-4.35.19-5.85-.7.63,2.18-4.01,1.76-6,1.63-.13.46-.27.97-.44,1.27l-.77-.61c-1.2.16-2.04,1.81-3.38.78l-1.1,1.01c-2.88-2.09-6.91.66-9.48-1.81l.16,1.21c-1.24,1.17-3.41.6-5.71.36.38,2.9-2.98,0-3.24.73l-.96-.74c-4.24,2.43-8.28,2.06-13.4,3.04-1.13-.73-3.82,1.51-3.99-1.25-1.36,1.56-.99,3.26-1.79,5.27-.38-1.69-2.56.31-3.12-1.35.3-.38.39-1.1,1.1-1.01l-.16-1.21c-1.09,1.19-3.27.41-4.35,1.41-.58-.44-1.48-.69-1.58-1.55-.8,3.59-5.48-.37-6.02,2.15.5-.07,1.01-.31,1.42.17-.5.41-.89,1.33-1.58,1.42.49,1.17,2.08,2.89.51,4.12,1.04,1.61-1.46,3.84,1.36,4.02-1.67,3.34.29,3.79,2.31,5.98-.34,1.45-1.63.9-2.63,1.2.57,3.24,1.7,1.19.62,4.98l1.3.71-.75.79,1.69-.2c-.39,1.08-1.17,1.72-.18,2.64-.09,2.1-2.02.6-.54,2.52l-.65.58,1.21-.14c2.53-.66.21,1.72.53,1.5l.58.45c.04.33-.29.56-.43.74,2.98,1.56-1.51,1.94-.4,3.89,4.01,2.65-2.54,7.65,2.6,9.78-.2,1.07-1.36,1.74-2.36,1.87l2.2.94-.76.98c1.45.52.47,1.15.24,2.07-2.18,3.41,4.04,4.2.56,7.41.68-.25,1.3.38,1.85.65-.47.57-.9,1.35-1.57,1.4l.48,3.79c-3.68,2.73,2.96,4.35-.08,6.64l-.38-.3c3,3.11-.85,7.24.16,8.34.3-.38.56-1.1,1.08-1,1.11.39.7,1.48,1.46,1.9-.39.94-1.08,1.03-1.91,1.46l.97.75-.74.98-.81-.77c-.09,1.9.48,3.94,2.64,4.37l-.78.8c-.64.42-1.26-.21-1.8-.48-.14,1.6-.48,3.2-1.49,4.72l.94.76c.25.48-.4.91-.71,1.31-2.54.46-2.63,2.58-3.05,4.9l-21.35,3.49c-1.02-.91-3.12-1.01-3.79.47l-.97-.74c-.3.4-.37,1.09-1.1.98-2.05.26-5.55-1.21-5.45,2.44-.57-.43-1.33-.88-1.06-1.62l-7.4.93c-2.34.8-6.3-.11-7.6.59-1.71.21-3.82.12-5.27,1-1.32,0-2.96.96-4.06-.38-1.09,1.95-4.7,1.11-5.77,1.24-6.31-.09-11.61,2.13-17.96,1.69-1.4,1.23-4.04,1.03-5.49,2.06-1.66-.83-5.49.69-7.14.02-1.91,2.85-4.37-2.94-5.27.99-.13-.08-.35-.19-.46-.37.11.7-.75,1.17-1.12,1.81-.66.42-1.08-.23-1.63-.51.11-.36.46-.59.24-.89-2.86.7-6.08.05-8.56,1.4-2.09-1.5-3.86,1.18-5.82.71-.76-.42-1.01-1.09-1.11-1.93l-1.33,2.24c-.56-.46-1.27-.71-1.02-1.44-1.02.14-1.36,1.73-2.39,1.86-.38.05-.44-.49-.46-.8-1.68,1.94-3.55.79-5.64,2.08-2.94-1.22-5.91.21-8.37.17-2.16,2.18-4.57-1.73-6.5,1.14-3.11-1.34-6.43,1.33-10.74.45-1.5.54-3.61,1.85-5.55.33-2.09,1.31-5.14,2.03-7.58,2.17-2.95-1.2-5.69,1.92-8.03-.24-1.74,1.44-2.02.6-3.49,1.65.5,2.39,2.09,4.1,3.53,5.84l26.11-3.21c1.86,1,.94-2.23,2.69-.69l90.44-10.28c-.2-.32-.56-.46-.43-.8.29-.4.38-1.09,1.1-1.03.74.26.5,1.17.54,1.68l93.27-11.49,1.04-1.52c2.24,2.69,4.92-.96,7.55.46.54.12-.71-1.48.68-1.47.41.47,1.11.55,1.04,1.26l10.66-1.31c1.94.28,2.4-2.91,4.34-1.41.2.31-.1.53-.23.89l22.31-2.75,1.24-2.77.97.75-.31.4c1.61.33,2.56-.33,4.08-.85l.24,1.7.67-.08-.51-1.34c1.07-1.35,1.37-.17,2.46.22l-.48-1.16c.76.59,2.02-1.81,2.97-.02.07.69-.73,1.29-1.01,1.86,1.36-1.74,3.18.3,4.8-.59,1.44-2.61-3.09-1.19-2-3.61,1-.45,1.68.86,2.19.97l.32-.37c.76.58,1.89,1.14,1.5,2.23-.14.19-.28.56-.62.6l1.2-.15c1.5-.53,4.52-.03,4.15-.16.15-1.59-.91-1.81-2.08-2.72l.48-.39c.66-.25,1.41,0,2.1.08-.04-.33-.29-1.01.21-1.23l.95.74-.48.42c-1,1.68.83,2.5,2.07,2.72.02-1.41-.48-2.58.51-3.04.39.46,1.12.56,1.01,1.08l.6-.76.95.59c1.98-.78.7,1.48,1.4,1.56,1.74-3.01-2.27-5.83-1.61-7.31l-.46.42c-1.19.3-.51-1.17-1.41-1.4.49.99-.11,1.76-.93,2.21l1.19-.13c.45.63,1.57,1.18.26,2.06l-.39-.49c-1.06-.03-2.79-1.24-3.43.42l-1.36-1.05.23,1.73c-1.03.29-1.98-.3-2.24-1.12.05.5.29,1-.17,1.4-1.01-1.09-2.79,0-3.18-1.69-1.24-.19.86,1.28-.95,2.21l-1.37-1.22.17,1.36c-.52.07-.73-.25-.93-.41l-1.8,2.32-1.36-1.05c.58-.2.99-1.07,1.36-1.42-.65.1-1.22.33-1.56-.31-1.44,4-.57-1.68-1.53-1.02l-.15,1.75-3.46-1.33,1.76,1.55c-1,.47-1.77,1.26-2.83-.18-2.38,1.68-.8-2.35-3.19-2.05.53,1.68-.15,4.55-.15,5.94-4.08-.72-.45-5-3.27-6.73-1.01.29-.36,1.25-1.58,1.41-.19-.14-.54-.29-.45-.82l-4.93,1.13c-1.87-2.55-5.45.85-7.33-1.71-3.63-25.19-6.4-44.73-7.48-67.61,2.66-2.59,5.27-5.36,8.76-6.66,9.43-2.74,15.27-2.06,24.59-4.26.19-1.41-2.14-1.84-.04-3.31.36.14.55.28.62.81l5.55-1.56c1.56-.2,2.84,1.73,3.94.75l5.48,3.5c.64.96,2.88-.7,2.64,1.41,2.53,3.71.93,11.93,3.86,14.53l-1.03,1.34c.48,1.17-.32,3.18,1.27,3.34-1.05,2.75,0,8.37.81,10.71l-.36.04c.55,1.51-.46,4.58,1.76,4.32-1.24.83,1.06,1.38-.46,1.79.74,1.88.46,4.3,1.92,5.7-.32,1.62-1.6-.15-1.68.57,2.51.55.48,2.72,1.32,3.67-1.99.94-.91,5.33.2,5.72l-.34.06,1.46,1.9c-.33.39-.39,1.1-1.11,1.01-.11,1.94-.71,5.49,1.63,6.08-.24,1.08,1.11,3.36-.32,4.58l-.39-.32,1.11,6.15c.49-.4.7-1.3,1.56-1.4,2.94,2.59-.65,4.6-.81,7.59,2.43-.13-.92,2.39.51,4.13,4.93-.95,11.6-.72,15.18-2.76.18.17.57.46.45.82,3.4.82,4.35-2.98,7.38-.91l.36-1.26c.83-.27.63.79,1.35,1.05-.03-.13-.28-1.81,1.08-1.33.18.15.52.26.6.78-.14-1.19,2.44-.1,3.66-.09l-.25-2.07c-1.19.33-.49-1.16-1.41-1.58l-1.03,1.53c-2.53-.74-1.13-3.51-1.66-3.63l-.76.98-2.88-2.27c-1.43-.16-1.41,0-2.3,1.16-3.38-3.25-8.1-.58-11.92-1.85-2.31-6.16-2.16-11.75-3.03-17.57l-1.71.2c-.49-.98.8-1.85,1.11-2.23l-1.49-.69.77-.98c.18.16.56.46.92.42l-5.15-38.78.61-.95-1.06-5.62c.67-3.05,3.63-4.65,4.15-7.32,4.74-1.28,9.05-3.04,14.17-3.84-.43-.81-1.54-1.21-.23-2.06.74.43,1.56,1.38,1.09,1.96,6.87-3.64,7.25-.71,14.75-2.18-.43-.47-1.34-.88-1.08-1.61-2.33.8-4.33,1.58-6.57.46-.25-.65.42-.92.74-1.3.63-.44,1.06.21,1.61.49,2.08-1.48,2.75-.33,5.29-1,4.53-1.43,10.16-.93,14.88,2l-1.03-2.85c1.33-1.9,3,.51,4.55.32-.28.82-.29,2.37-.87,2.89.24.49,1.11.56.86,1.29l-1.16.49c3.95,5.1,4.07,11.71,4.29,17.96.68,1.13.74,1.48,2.04,2.18l-.75.97-.42-.47c-.05,3.67,1.1,3.01,1.43,5.76-.33.21-.55-.11-.73-.26l.45,3.61.29-.39,2.26,1.29-1.81,2.32c-.16-.02-.25-.09-.34-.18.43,3.44.46,7.14,1.71,8.37-.58,2.51.6,3.58.17,7.09.29-.06,2.07.1.83,1.16.35,1.36,1.82,3.43,3.17,4.31l-.48.42-.39-.3c-1.06,2.74,3.16,2.93.96,4.94-.13-.2-.32-.33-.42-.5l.63,5c-.43,1.97-1.09,2.41-.39,3.9l-.38-.48c-.31.56.59,2.18-1.02,1.86-1.47,3.68,1.58,2.78,3.36,4.65-1.08.99-1.89,1.62-2.42,3.09,1.36,1.05-.4,5.27,2.76,5.23,2.3.24,7.15.15,7.57-2.31.74.41,1.5.85,1.89,1.16-.43-2.06,2.27-1.34,2.93-3-.24.92,1.19,2.48-.88,2.75l1.56-.2-.12-.87c2.85-.87,1.07-3.97,1.92-5.64,2.08,1.31.28,3.64,2.14,4.62.28-.56-.6-.63-.82-1.12,1.36-.17-.02-1.56.93-2.21,2.91.86.91,3.19,1.44,4.54l.35-.05c-.94-1.97,2.46-1.35,1.9-1.63-.19-.15-.56-.28-.45-.64.13-.37.29-.57.64-.59l-1.69-1.03c1.73-1.6,2.51,1.96,4.25.69-.02-.34-.27-1.02.21-1.24l-.86.1c.24.33-.09.71-.25.91l-.95-.75.74-.97c-.6-.78-.77-1.99-1.57-2.77l.24,1.72-.51.08,1.53,1.03c-.94.8-3.01-.51-3.49.07l-.69-2.86-.36.03c-1.24,1.2-5.09-.24-6.28-.1l-3.77.48c-1.4.16-2.95-1.21-3.28-2.58l-6.02-53.14c-5.13-.58,1.88-5.97-2.54-6.47l.3-.39c.49-.23.71.09.9.24.2-2.47-1-3.7-.27-6.24,2.45-1.52,2.59-8.86,8.09-7.97l-.49-1.34c2.45,1.62,5.52-.33,7.33-1.24.21.14.55.28.63.79l.57-.94c-1.57-.16-3.94-.91-4.69,1.46.34-1.45-3.22-1.87-.94-3.22l1.03,1.12c-.74-1.66,1.25-1.04,1.84-1.97,2.13,1.83,2.2-2.01,4.28-2.11.9.43,2.7,2.3,3,.34,2.08,1.32,2.05-1.83,2.96-2.8l-.73-.27.16,1.2c-.52.07-1.03.13-1.44-.35l-1.8,2.32c-1.15-.73-2.29-1.63-1.95-3.08-2.99-.32-2.22,4.65-4.52,4.4-.48-1.15,1.02-1.68.88-2.72-.52-1.52-2.48-.23-3.01-.32l-.16-1.37c1.63.31,3.53-2.71,4.04-1.2-.26-.68.42-.93.7-1.47l1.07,1.61c2.78-.02.3-3.36,2.88-3.68l1.2,2.82c-.43.76-1.09,1.01-1.96.94.27.85-.15,1.77.59,2.01.32-.2.44-.55.81-.44l-.94-.75c.84-.1,1.17-1.71,2-.59l-.1-.88c.33-.21.46-.57.83-.45.51.11.58.63.64,1.15l1.87-1.97c.51.11.43.81.48,1.15-.33.19-.31.73-.23,1.37.57-1.62,2.75-3.11,2.81-4.48,1.66-.72.46.99,1.36,1.06l.12-1.75,3.03.48-.38-.29.73-.96c1.3,1.94,2.81-1.39,4.29.71l-.48.4,3.33.1-.58.95c1.81-.07,1.04-1.8,1.04-3.08l-.09.87-2.17-.62.37.31-.75.97c-.72-.43-1-1.1-.92-1.97-2.42.12-2.36-2.15-3.39-3.42l1.37-1.73-.43-.47c-2.08,1.29-.6,3.55-1.07,5.19-.51-.96-1.56-1.77-1.96-2.89.11.52.06,1.03-.72,1.13-.46-.19-.53-.56-.54-.93-.11.37-.47.7-.65,1.07-.4-.29-1.11-.37-1.02-1.09-2.72-.45-2.02-.62-3.87-.4.92.41.15,1.21-.13,1.76-.46-.82-1.63.91-1.83-.65-1.84-2.39-.96.82-2.64,1.21l-1.52-1.05c1.96-.38-.25-1.11.28-1.89h-1.05c.22.72-.23,2.37.07,1.97.48-.41.75.43,1.29.55.08,2.05-2.35,3.59-4.37,2.61-.04-.34.27-.55.4-.74l.4.29.64-1.82.42.46-1.06-2.82c-.99.46-1.89,1.44-2.88.69l-.08-.67-1.71.2,1.34,1.07-.3.38-.37-.32c-.94.71-2.2-.38-2.31-.79-1.01,2.05-.99-1.38-2.48.16-1.31.69-2.77-1.05-3.12,1.62-.55-.13-.45-.83-.49-1.17-1.72.38-5.16.45-5.33-2.3,1.86-4.6,1.61-8.05.76-13.53-2.62-.03-5.59,1.37-7.82.08.4-.92-.02-2.8,1.77-2.65l-.11-2.92c-1.07.38-.73,2.13-2.12,1.97-2.89-3.66-1.93-8.65-2.89-12.2-1.13-3.36.86-5.69-1.71-8.15.12-.54.61-.61,1.15-.67l-.96-.76c.02-2.6.46-7.37-1.91-8.49,2.7-.66-.76-3.38,1.31-3.47l-1.12-9.09,2.28,1.79c-1.27-2.11-4.25-3.48-2.78-5.93,1.21-1.36,2.54-.48,3.57-.44l-.09-.86-.29.56c-.74-.44-1.61-.33-2.23-1.12.12-.54.83-.45,1.17-.5l-.12-.85c-1.65-.85-.77,2.17-2.33.81-.23-.67.42-.93.7-1.48-2.02-.8-.02-1.58-2.02-2.2.02-4.02-.41-7.62.45-10.51-.65.25-.91-.41-1.49-.69l1.21-1.38c.35-.21.56.11.75.26l-.06-.69c2.61-4.16,5.39,1.42,7.82,1.48,1.98-1.12,4.42-2.3,6.77-1.71.85-1.5,2.96-1.41,4.12-.51l-.4-.31,1.67-.72-1.52-1.04-.27.56c-1.01.47-1.5-.69-2.24-1.11l.27-.4c1.09.22,2.43-1.69,3.05.5,2.67.54,3.73-2.2,5.31-.66l-.89-1.64c-.81.62-1.48.72-2.11-.08-.1-2.26,1.71-.21,2.61-1.54l-.57-1.68-.2,1.25c-.86.1-1.32-.71-1.86-1l.21,1.72c-.5-1.33-3.1-1.19-1.21-2.83.48-.22.72.09.89.24l1.01-1.7c.62,2.02,2.71.71,3.53,1.67l-.91,2.56,2.07-.25.1.85.86-.11c-1.52-1.19,1.63-2.28.84-3.06-1.29-.54-.33,1.27-1.42,1.05-.1-.85-2.08-1.31-1.12-1.95.35-.05,1.02-.31,1.24.19l1.02-1.69c.75.02,1.07.91,1.18,1.39l1.03-.44-.41-.48c1.88-1.98,3.92,2.13,4.98-.62l.12.86,1.05-1.36c.33-.21.53.12.91.24l-.45.58,1.19-.14c-1.57.02.26-2.14-1.45-1.93.25.5-.42.93-.71,1.31l-.78-.77c.14-.19.47-.4.23-.9l-1.62,1.08c-.72-.26-.29-1.01-.53-1.51l-3.21.75c-2.35-1.99-3.75.81-5.53-1.06-.98-.76-1.11-1.79-.36-2.74,2.75-.35.75-3.94,3.16-4.23.54.11.63.79.65,1.14-1.74,2.84,1.89,2.56,3.21,3.45l-.22.89c.96-.64,2.46.23,3.87.22-.26-.67,0-1.39.06-2.1-.49.24-1.38,0-1.63.73l-.8-.77,1.35-1.91c.23.5.91.41,1.25.37l-.77-.78c1.55-.02,2.6-4.16,4.34-1.41l-.98,1.87,1.21-.15c1.51-1.76,5.68.87,5.47-3.65l.78.77c.45.66-.38,1.1-.12,1.59,2-1.99,3.19.66,5.41.21.45,2.21-2.44,1.34-3.4,2.16l.12.85c1.38.01,3.73-.8,4.62-1.96l-.31.04c-.93-.4-1.02-1.09-.62-2.01l-3.97-1.09.6-2.17c1.49.69,4.22,1.58,3.63-.44l.96.76-.3.38,2.4.54.05-.48c1.08-1.18,3.03-.89,3.39.45-.84-2.52,2.89-1.92,3.47-2.86-.22,1.07,1.24.19,1.91,1.33-.07-.51-.49-1.16.14-1.58l.99.74c.06.1.08.19.09.28.33-.73.89-1.35,1.89-1.05.76.43.83,1.11,1.4,1.57l-.14-1.2c1.45-2.28,3.43-.6,4.47-.55l-.81-.77c-2.03-.97-.09-2.24.32-3l1.02,1.09c-.08-.65-.05-1.22.24-1.71-.97-1.38,1.85-2.59,1.12-4.21ZM1077.43,35.84l-.65-1.13c.51.11,1.33-.52,1.75.31l-1.1.83ZM1094.93,36.3l-.55-1.68c.35-.04,1-.13,1.24.37.24.49-.41.75-.69,1.31ZM1104.48,36.34c.51-.17.88-.84,1.39-.16l-1.39.16ZM1105.87,33.21c-1.31.69-.99-.92-1.92-1.34-.11-1.21,1.82-2.32,2.53-.84.11.86.02,1.57-.61,2.17ZM788.92,286.92l-.68.07.19-1.23c.55.09.47.82.49,1.16ZM906.68,270.32c-1.08-.39-.14-1.21.14-1.61.57.11.64.79.67,1.16-.33.21-.45.57-.81.45ZM951.18,190.02c.34-.03,1-.29,1.25.2.26.66-.4.92-.7,1.3-.89-.05-1.18-.9-.55-1.5ZM951.26,200.47l-.57-.45.76-.79c1.2,2.63,1.34-.34,3.01.33-1.32.84-1.81,2.3-3.21.91ZM962.98,188.05c-.47.57-.71,1.3-1.45,1.03l.61-2.15c.21.49,1.11.56.84,1.12ZM962.58,170.65l-.35.04-.21-1.71c.32-.21.54.1.72.26.07.52.29,1.01-.16,1.41ZM1001.1,245.65l.27,2.18c-1.86-.41-.64-1.39-.27-2.18l-.09-.74c.26.2.22.44.09.74ZM997.41,188.85c.67-.26.92.42,1.31.72-.3.39-.37,1.08-1.09,1l-.22-1.73ZM1006.64,259.38l-.61-4.98c-.51.25-.41.93-.39,1.25-1.68-1.01,1.13-.83.29-2.12.24.69,1.62.51,2.27,1.47-3.04.91.17,2.78-1.56,4.38ZM1044.26,154.33l-.17-1.38.97.74c-.17.19-.46.59-.8.64ZM1061.85,198.17l-.5.08-.24-2.07c.24.66,1.67,1.02.75,2ZM1062.55,190.95l1.35,1.05c-.66.42-2.18-.6-1.35-1.05ZM1061.62,149.55l.97.75c-.48.25-.24.9-.18,1.26l-.53.06-.25-2.06ZM1061.98,152.47l1.3.72-.58.92-.72-1.65ZM1065.17,164.3l-1.19.14-.1-.87,1.19-.15.09.88ZM1075.69,164.55l.19-1.23.95.74c-.09.54-.8.46-1.14.49ZM1088.82,159.28l-.31.39-.74-1.66,1.05,1.27ZM1080.96,163.57l.28-.57c-.77-.58-2.85-.51-2.31-1.79,1.6,1.72,2.02.78,3.61.93.77-.95,3.48,1.32,3.5-1.3.45,3.62,3.07-.54,4.83.98-2.5,2.42-7.24.72-9.9,1.75ZM1098.84,155.96c-.71-.28-1.27-.38-2.11-.27-.47-2.39-.27-3.62-1.85-5.17l1.06-1.36c1.93.28,1.01,1.26,1.56,2.77l-.78.81c.61,2,3.63,1.1,2.13,3.22ZM1159.62,139.57c.51.12.44.83.48,1.18-.32-.46-.62-.4-.89-.19.24-.26.37-.59.41-.98ZM1156.75,141.43c.21-.25.5-.5.91-.75.42.43.97.36,1.34.06-.52.56-.93,1.41-1.34-.06-.13.28-.49.52-.91.75-.44.46-.7.98-1.41,1.63-.92-.62.39-1.08,1.41-1.63ZM1125.32,142.93l.18,1.36-1.49-.69c.74.26.6-.77,1.3-.67ZM1127.35,159.41l-1.46-.51-1.38,2.39c-.04.2-.15.41-.33.59l.33-.59c.22-1.06-1.45-2.19-2-2.86,1.27.36,5.27.22,3.86-2.57,2.19.78,1.52,2.26.98,3.55ZM1137.93,147.65l-.82,3.06c.34-.04,1.02-.13,1.24.39-1.31.66-3.57-.79-4.61-.84,1.41-1.21,3.12-1.42,4.19-2.6ZM1137.37,155.74l.37.3.12.86c-1.44-.17-2.34.82-3.68,1.32l-.79-.77c.76-2.35,3.04.67,3.98-1.71ZM1132.22,148.01c-.48.23-.4.92-.36,1.26l-1.79-1.86.31-.39-1.43-1.57,3.28,2.57ZM1129.49,159.68c.38.29.63.97,1.29.7.03.36.14,1.03-.39,1.28-.67.08-1.13-.74-1.68-1.02l.77-.96ZM1127.61,151.53l-1.97,1.13,1.71-3.19.26,2.07ZM1107.85,46.39c1.38-1.56-2.05-.96-.98-2.31,1.58-1.25,2.65,1.77,4.65.98-.55,1.13-2.44,2.94-3.66,1.34ZM1124.23,43.5c-.5.24-.23.9-.21,1.24l-.92-.58,1.13-.67ZM1115.25,48.44c-.34.03-1.03.13-1.27-.37l.99-1.68.46.35c.05-.03.07-.05.12-.08.06.51,1.43.35.4.47l-.52-.39c-.64.46-.09,1.19-.19,1.7ZM1116.7,50.36l-.57-1.68c.52-.07.77.6,1.01,1.09l-.44.58ZM1117.58,46.06l-.79-2,1.36,1.05-.57.95ZM1118.4,43l-1.55-1.2h-.46c-.39,1.15-1.47.21-2.33,0h2.33c.04-.08.07-.19.09-.3l.37.31h1.38s.17,1.2.17,1.2ZM1122.37,47.99c-.7.08-1.23.6-2.03.7l-.53-1.34,2.56.63c.33-.05.73.02,1.21.3l-1.21-.3ZM1120.78,45.15c1.73-1.45,3.81,2.66,4.97-.62l.06.52c.36-1.44,3.55.42,4.42-1.07l-.13,1.76-.05-.34c-4.25-1.92-5.64,3.83-9.27-.25ZM1130.04,49.5v.08c-.21-.33-.41-.48-.94-.41.46-.17.73.03.94.32l.29-1.69.95,1.98c-.68,1.12-.83.26-1.24-.28ZM1132.22,43.38l-.33.05-.16-1.21.35-.04.14,1.2ZM1141.68,35.08l1.73-.22c.28,1.19-1.77,1.44-1.73.22ZM1146.63,31.5l-.29.55-1.16-2.47c.21.5,1.84.82,1.44,1.92ZM1153.63,30.29l-.08,2.1c-.79-.59-.93-1.98.03-2.44l.97.58c-.49.23-.72-.08-.91-.24ZM1157.45,30.16l-1.47-.51,1.39-.18.08.69ZM1163.45,27.85l.19-1.24,1.24.19-1.44,1.05ZM1172.27,25.89l-2.1-.09c.64-.43,1.31-.69,2.01-.77l.09.85ZM1087.2,39.55l.25-.23c-.13.02-.2.11-.25.23ZM1112.93,25.69l-.55-.43c-.09.57.16.57.55.43ZM1040.76,252.19c.17-.04.36-.05.55-.04-.19-.2-.38-.15-.55.04ZM820.8,276.72h.02c.02-.41-.02-.27-.02,0ZM1012.86,153.91c.03-.19.17-.36.24-.46-.18.12-.24.28-.24.46ZM1056.96,254.73l-.77-.77c-.42,1.41.59.83.77.77ZM885.86,268.33c.07.13.14.23.22.32.09-.22.21-.43.26-.72l-.48.4ZM844,274.28c-.04-.13-.09-.26-.17-.41.04.19.09.3.17.41ZM999.19,155.14s.06.02.08.02c.04-.05.05-.11.07-.16l-.14.15ZM999.33,155l.63-.81c-.24-.35-.45.16-.63.81ZM994.67,156.6l.46-.41-.46.41Z"/>
    <path class="cls-2" d="M1203.05,16.97c-.57,1.78.51,4.31-.7,4.6,1.02,1.74.83,4.27.82,6.62-.23-.6-.97-.2-1.43-.14.47-1.31.21-2.22-.84-3.02l-.23.49-1.27-1.4.94-1.21c-.09.63.55.71.89.99.48.1.71-.57.98-.91-.22-.59-1.21-.94-1.74-1.66-1.93-.38-2,2.9-3.28,3.84.38-3.17-1.61-.43-2.27-3.16-1.59.98.85,3.17-1.42,3.61-1.32-.32-3.16,1.16-3.97.79-.04-.3.03-.94-.45-1.03l-1.23.15c.64.07.71-.55,1.14-.92l-.07-.61-1.53.19c.87-3.06,3.24-2.73,5.61-2.57-.08.49.53.56.9.99l1.57-2.55c-1.57-1.37-3.91-.13-4.54-.06-.96-2.68,2.21-1.05,3.47-2.29l3.2.7-.84-.37-.29,1.29c.21-.65-.55-.71-.77-1.16l-.67.86c1.79.58.24,2-.13,2.67.54.57,1.25.16,1.88.08l.53-1.93c.41-.53.17,1.37,1.3,1.7.8.23,1.04-.42,1.46-.8-.38-.42-1.19-.79-.95-1.44l.03.3c.93-.11,2.34-.13,2.84-.97l-.7-.71-.42.37-1.62-1.68.71.69c-.5-1.5,2.81-3.78,3.09-.38Z"/>
    <path class="cls-2" d="M1177.15,32.18l-6.46,1.16-.12-.91c2.1.66,4.39-.17,6.57-.26Z"/>
    <path class="cls-2" d="M1159.34,37.85c.07-.93-.21,1.13.51,1.21.04-2.57,2.72-.33,3.52-1.34.57.29.45.86.52,1.4-2.27.83-3.87,1.39-6.19.21l.15,1.27-.73.09.34-.41c-1.83,1.68-1.91-3.61-4.14-.77l2.07,1.95c-.76-.09-1.65-1.45-2.24-.28-1.2.7.22-1.12-.62-2.11.78.28,1.04-.5,1.53-.93.05.36.28.52.63.65.18-3.14,3.32.14,4.66-.94Z"/>
    <path class="cls-2" d="M1185.03,35.06l.22-1.31,1.78-.22-2,1.53Z"/>
    <path class="cls-2" d="M1174.66,37.25l.33-.41c-2.39-1.36-2.4,3.04-4.42,0,1.21-1.99,5.07-.63,6.14-.76l-2.05,1.16Z"/>
    <path class="cls-2" d="M1179.79,35.7c-.91.12-2.13.63-2.26-.46.61.48,1.62-.19,2.26.46Z"/>
    <path class="cls-2" d="M1181.47,36.04l-.47-.86,1.87.15-1.4.71Z"/>
    <path class="cls-2" d="M1145.61,48.35c-1.04-.8,2.4-1.22,1.47-2.76-.57-.3-.47-.85-.52-1.39l1.22-.53c-1.35,1.09,1.66,4.56-2.17,4.68Z"/>
    <path class="cls-2" d="M1176.7,148.45l.51.16c-.18-.22-.38-.41-.56-.65,0,.16.03.34.05.49ZM1184.79,238.03l.72-.09c.07-.44-.61-.75-.88-1.15.1.44.17.86.16,1.24ZM1184.63,236.78c-.03-.15-.06-.3-.09-.45-.05.16,0,.32.09.45ZM1175.04,145.56c.29,1,.97,1.73,1.61,2.4-.14-1.49-.07-3.53.1-3.55l-1.7,1.15ZM1176.41,152.62l-.48-.03c.19.29.34.25.48.03ZM1206.47,232.41l1.6-2.02c.1-.56-1.58.74-1.56-.72l-.37.04.11,1.04c-.82-.18-2.22.41-1.97-1.18-4.65,3.68-5.29-2.85-10.44,0-3.62-10.01-3.76-23.2-5.4-33.26-.55-.11-1.64-1.44-.26-2.17-.81-2.09.39-5.73-2.55-5.9l1.08-1.43-1.53-19.96c-.39-4.73-2.12-9.66.91-13.35-1.02-2.44,1.99-1.68,1.73-3.87l-1.55.74c-2.16-1.89-1.49-4.06-1.02-6.32-1.34,1.08-1.95.97-3.77.32-.69-1.44,1.47-1.5,1.64-1.49l-2.07-1.94-1.95,1.88-.4-.32.1.91c5.64,1.14,3.1,6.03,4.7,9.86-.34.23-.74-.08-.95-.24.81-3.77-2.43-1.9-4.17-2.61l.56-1.35-1.76-.49c.53.63.91,1.32.7,2.26-.82-.28-1.13,1.22-1.5,1.75l1.74.08c.45.67-.23,1.29-.7,1.89l-.84-.81-1.29,1.46c1.31,1.66.39,4.54.5,6.9-.35.23-.75-.08-.96-.26l.23,1.8c1.2-.69,2.01-1.51,3.13-.02.25.7-.44.98-.76,1.39l1.48,1.66c-2-1.41-1.42,3.28-1.47,1.45l.32-.39c1.86,1.61,1.36,6.43,1.76,6.74,2.36-.1-.84,2.13,1.53,2.03-.2,1.31,1.11,2.97-.4,4.09.42.49-.45,2.42,1.24,2.78l-1.14,1.04c2.4.25-.62,2.47.37,3.08-.85,3.58,2.42,3.35,2.96,6.23l-2.04,1.17,1.28-.14c.12,1.06-.14,2.02-.98,2.67-.76,1.19.22,3.28,1.25,2.59-1,2.33,1.19,2.43-.29,5.18-.14,1.67,1.45,5.87.9,4.29l.54-.08c.59.31.48.87.54,1.41-.09.57-.85.47-1.2.52.56,1.77-.25,4.07,1.56,5.12-1.65,1.67.08,3.67-.31,4.82l-.82,1.01,1.03.79c-1.19.88,1.15,1.89-1.07,1.79.42.51,1.15.6,1.07,1.35.84,2.25,1.72,4.9-1.07,6.16.36-.05.75.1.98.44-1.47.69-1.2,2.09-.91,3.51.04-.14.17-.32.35-.51.36-.06,1.1-.13,1.33.38.12.9,1.57,2.36.02,3.12.57.11,5.81.93,5.41-2.14.42.31,2.34-.48,1.99,1.23-.34.22-.49.61-.85.47,1.5.38.78-1.02,2.05-1.16.19.15.61.48.48.86l6.5-.81c-3.39-2.15,2.79-1.26.74-1.37,1.57.89,2.46-.86,3.8-1.76-1.03-.97-1.57,2.05-2.6,1.07l-.63-2.13,3.42-.43c1.73.54,2.86,2.22,3.57,3.62,1.13-2.71-2.41-3.2-3.66-4.34ZM1176.6,160.52l-.05.25c0-.12,0-.19.05-.25l.55-2.39c.04.37-.05,1.11.52,1.21l.91-.1c.62,2.23-1.61.83-1.97,1.28ZM1183.49,178.42l-.3.41c-1.52-.37-1.35-2.04-.91-2.83.78.46,2.39,1.36,1.21,2.42ZM1186.17,141.98c-.8-1.91,1.73-.76,1.89-2.44-.66,2.1-2.25-1.93-2.1.82l-2.03-1.59,1.03.79-1.7,1.13.59.27c.06.38-.29.78-.44.98.59.07,1.71.57,2.02,1.35.07-.54.14-1.06.14-1.61l.61.29ZM1185.43,143.3c-.06.26-.1.5-.16.77.08-.07.13-.11.2-.17.06-.22,0-.41-.04-.6Z"/>
    <path class="cls-2" d="M1231.87,233.65l-.85,1.01,2.28-.29c-.38-.52-1.3-1.59-1.1-2.6-.05.08-.11.17-.15.25-.38.16-.75-.09-1.06-.37l-.62.94,1.49,1.07ZM1180.09,240.92l-.61-.54c.1.31.29.45.61.54ZM1141.44,245.69l-.41.04c.13.03.28.03.41-.04ZM1230.99,231.64v-.04s-.36-.33-.36-.33c-.01,0-.02,0-.02.03.12.09.25.21.39.34ZM1238.85,219.51l-.11-.08c.01.07.02.11.11.08ZM1135.95,245.85c-.07.16-.08.35-.06.53.15-.19.16-.37.06-.53ZM1226.08,234.98c1.1.34,2.37.54,3.53-.53-.52-.17-2.37.87-3.53.53ZM1232.19,231.76c.15-.23.34-.42.32-.71-.18.24-.25.47-.32.71ZM1238.77,225.1l-1.04-.41c0,.06,0,.11.04.17.21.17.44.49,1.01.25ZM1112.18,243.2c.33.2.7.34,1.02.41-.21-.16-.44-.48-1.02-.41ZM1224.62,126.13c-.01.07-.05.13-.1.18.1-.07.12-.15.1-.18ZM1104.66,249.87s0-.04,0-.05c-.03,0-.05.02,0,.05ZM1234.6,134.4c-1.1.66-1.65-.69-2.47-.95l-.1-.87-.3,2.18c-.78.09-1.26-.74-1.89-1.04l-1.88,3.64c-4.79-2.8,3.29-4.88-2.46-7.4l-.3-2.47c-.38.04-.62-.28-.81-.45-.19-.26,0-.46.16-.74-.5.41-2.56,1.1-3.68.31,3.2,4.38.29,9.69,3.25,14.26l-.93.13c.35,1.39,2.06,2.62,1.09,4.16l-1.54.2,1.65.7c.33,4.25-1.21,9.1,3.23,11.96-.53.6-1.3.69-1.55,1.61-1.33,3.58,2.34,7.96.62,12.83,2.49,1.32,0,3.23-.01,4.67,3.62,2.6.59,7.99,2.83,10.41l-1.37,1.43c2.15,3.31,1.64,8.57,2.96,11.63l-1.46.73c3.3,3.17-.51,6.86,1.89,10.5-2.8.89-1.48,5.37-3.31,7.75.63.64,2.5-.12,2.11,1.36l1.32-.16c-1.41-1.98.05-2.87,1.29-5.36-.28-2.29.4-3.09,1.63-5.74,2.88,1.25-1.75,4.68,1.97,4.95-2.32.1-1.7,2-2.49,3.35.72-.25,1.01.41,1.63.69l-1.43.9,1.07.77-.86,1-.89-.79-1.93,3.28-1.04-.77c-.73.46,1.23,2.19-.7,2.24-.45.96-1.41,1.24-2.22.82.52,1.01,2.23.8,2.71.02.27,2.12-4.14,4.09-3.96,5.68l-.87-.77c.18-1.64,2.63-2.31.85-4.05-.11.54.3.67.51.83-.91.65-3.52,1.33-4.44,1.79.81.46,1.8.33,2.45,1.14-.46.96-1.6,1.08-2.26.28-1.25-.38-.85-1.87-1.82-.33-2.57-2-4.67-.13-7.46.93l-1.05-.77.05.53-4.99.62.43.3c-1.4,1.25-3.14-1.95-4,.48-1.84-.84-3.25.42-6.56.47.24.31-.12.53-.25.93-1.36.15-1.43-1.98-3.06-1.08l.64.48c-1.83,1.11-3.22-.87-5.24.09l.63.48c-1.19,1.21-3.38-2.28-4.17.85-2.39-.59-4.32,2.7-6.04-.16l-7.27.91.46.49c-1.42,1.07-2.78-2-4.21.5l-.45-.48-.2,1.47c-.47-.49-1.24-.58-1.14-1.3l-.95.11.44.48c-1.2-.38-2.84.53-4,.5l-1.73,1.82c-1.82-3.72-4.3,1.26-6.38.07l-.46-.8c-2.24.43-5.1.89-7.21-.04.02.34.26.68.66.81l-.83,1.01c-.86-2.05-4.77-.86-6.62-.08.24.32-.13.55-.29.93-1.31.35-5.55-2.54-5.55.69-1.36,1.42-1.73-1.4-3.26.4.69.81,1.25-.87,1.42.53-.8,1.37-5.03-1.52-4.97.63l-1.05-.6c.25.51-.47.79-.8,1.36l-1.82-.68c.16-.19.29-.57.89-.48l-.1-.87c-1-.24-1.3.51-1.81,1.11-.97-2.14-5.88,1.17-9.3.25.23.35-.11.56-.27.94-.86-2.4-4.5-.36-5.73-.74.3.69-.44.96-.78,1.55-1.38-.2-1.11-2.75-2.47-1.15l-.84,1.01c-1.58-.17-5.85,1.44-8.16,1.55l-.16-1.41-1.35.15c.06.54.12,1.07-.41,1.48-1.72.22-.18-1.41-.99-1.66-1.36,1.42-2.76-.54-3.67,1.71l-.86-.8c-.12.74,1.12,1.31.21,1.76l-1.74-1.56c-.26,2.72-3.79.83-4.93,1.16l-.05-.55c-.98-.05-1.39,1.44-2.14,1.69-1.34-1.6-5.01.26-6.68-.61l.69.83c-3.5,3.12-3.18-2.31-7.46.92l-1.2,1.4c-1.01-.41-1.12-1.13-1.59-1.97l-.96.13c.43.51,1.49,1.25.79,1.7l-2.13-1.53.45.47c-2.14,3.14-3.74-1.88-6.91.85l3.47,4.74c.18-.45.89-.95.8-1.49l1.65-.92c.82.25.54,1.19.85,2.03l-.89.82,4.99-.6c-.05-.36-.13-1.06.41-1.3,4.71,1.75,12.93-.71,18.53-1.02.49-2.39,1.46.87,3.09-.41l4.14-.86c-.21-.16-.64-.29-.5-.83,1.13-1.76,2.45.95,3.17.49,3.58-.8,8.18.08,10.57-2.56.2.15.57.29.49.8.31-.04,3.4.78,3.09-1.77,2.1-.24-.37,1.67,1.17,1.66.16-.22.95-1.74,1.67-.57l.04.36c1.96-1.51,5.03-.1,8.23-1.04-.05-.35.3-.75.48-.96l1.81.69c-.03-.36.31-.77.48-.96,2.51,1.3,6.38-.26,9.68-.3-.5-1.02.34-2.01,1.08-2.28l1.04.76c-.07-.53.12-.72.49-.96.5.48,1.78.87,2.04,1.38.09-.16.23-.32.41-.43l1.43.72c-.22-.16-.62-.29-.68-.81.34-.59.92-.47,1.51-.55.58.1.47.85.52,1.2l1.89-.24c-.25-.05-.47-.18-.59-.29l1.17-1.56,1.74,1.57c.26-1.11.43-1.3,1.51-1.98.45.48,1.21.56,1.13,1.29l-.34.4,1.71-.22c-.21-.14-.61-.28-.48-.83.53-.43.82-1.18,1.62-1.1l.8,1.71-.11-.9c4.02,1.14,9.25-.6,14.85-.91-.06-.37-.33-1.05.22-1.29,2.2,2.05,7.19,0,10.67-.05-.03-.37.13-.74.48-.97,1.18.21,1.29,1.09,2.77.56.14-.56-.55-1.38.18-1.82l1.13,1.03c-.04-.08-.06-.17-.07-.25.52-.42.62-1.15,1.24-1.05-.61,1.51,1.6,1.95,3.1,1.42-.25-.33.09-.74.28-.92,5.36.94,13.24-1.11,19.81-1.54-.06-.37-.13-1.07.41-1.32.61-.08,1.5-.56,1.78.13.25.5-.1.73-.28.93.45.49.72-2.07,2.46-2.1.43.31.66.46.7.82l-.86.99,14.73-1.82c.55-1.76,1.72-1.14,3.19-.7-.51-.21-.82-.69-.79-1.75-.25-.66.5-.95.82-1.35l1.53,1.43,1.08-2.27c-.36.21-.61-.13-.81-.28-.45-.66.47-.95.62-1.31l2.21,1.84c1.19-.85-.78-1.14-.68-2.02l2.34.05-1.24-2.34c1.52-.02,2.32-2.99,3.93-1.04.62.28.68.81.76,1.35l-.9.82c-.22-.15-.44-.49-.99-.25l-.33.41c.47.85,1.55.17,2.34.25,2.55-1.57-2.26-2.62.45-4.37l1.41.55c-.1-.38.17-.58.32-.76l-1.12-1.12-.68.81-2.09-1.36c-.18.2-.34.57-.92.47l-.44-.3,1.19-1.4c.9,1.13,1.29-.69,2.23-.82.5.84,1.35,1.45,2.17,1.89l1.72-.22-1.49-1.07c-.16.21-.32.59-.89.48-.81-.08-.55-1.02-.61-1.56l.86-.98.75.68c-.01-.4,1.13-1.96,1.7-2.78l-1.06-.59c.53-.59.98-1.55,1.76-1.65l-2.12-1.35.86-1c.4.31.89.97,1.46.71.67-.79.16-1.8.23-2.71l-1.04-.59c2.04-.97,1.04-1.02,1.01-2.82l1.35-.16.07-4.32c-.93.48-.21,1.63-1.4,1.44-.85-.45-1.1-1.12-.66-2.07l-.38.05c.1-.92.29-2.36-.97-3.29.51-.42,1.01-1.22,1.78-1.13,1.3,1.1-.35,2.02,1.32,2.9l-1.41-11.48c-.57.08-1.47.54-1.94-.11-.95-1.33,1.08-2.11,1.12-1.94l-1.04-13.14c-.55.25-.79-.1-.99-.25,1.61-1.26.12-3.76.25-5.75-.58.08-1.12.32-1.55-.16l1.37-1.43-2.6-20.82-1.7-1.41c.3-.56.87-.64,1.44-.72-.8-1.86.82-6.01-2.97-5.18-2.21-2.24,4.54.52,1.95-3.28ZM1228.84,149.26l.42,3.53c-.15-1.23-2.43-2.39-.42-3.53ZM1231.3,161.15l-1.16-1.3c2.69,1.52,0,2.24-.42,3.62-.02.27-.02.51.01.74-.1-.25-.1-.51-.01-.74.06-.52.23-1.07.7-1.5l-1.44-.54,2.33-.29ZM1229.68,174.97c.73-.1,1.24-.88,1.76-1.49l-.98,3.18c-1.01-.23-.52-1.18-.78-1.69ZM1224.27,134.41c.18-.19.34-.58.93-.46l.18,1.58-.57.08c-.58-.12-.5-.84-.55-1.2ZM1226.49,152.23l-.64-.44c1.61-.92-1.56-1.77.69-2.25.85.61,1.03,2.03-.05,2.69ZM1228.43,164.9c2.09-.45,1.75,3.21,1.63,2.31-1.14-.04-2.47-1.32-1.63-2.31ZM1229.56,177.14c2.17.25,1.82,2.1,3.6,2.58l.22-1.63,1.03.58-.87,1.02c-.05.77.3,1.35.92,1.78-1.35-.72-2.31,1.32-2.34,2.33-1.3-1.11-2.44-2.75-.97-4.7l-2.37-.44.78-1.52ZM1233.83,192.05l.05-.02c.13-.19.32-.42.75-.47l-.75.47c-.05.06-.1.13-.12.18.02-.05.04-.12.07-.16l-1.02.63c1.21-2.85-1.5-4.47-2.24-7.42l1.49,1.05c.38.16.73-.25.89-.45-.05-.53-.25-.68-.68-.82l.84-1c.87.47-.7,1.65.13,2.27.02-.05.08-.09.15-.15.17.12.32.26.41.41.06.01.16.04.23.05.16-.38.3-.58.72-.63l.21,1.77c-.62-.31-.82-.79-1.15-1.19-.25-.07-.45-.15-.56-.26-2.01,1.82,1.9,3.84.59,5.74ZM1237.88,206.75l-.66-.46c-.29.02-.57.03-.81.02-.8.82-.7,1.8-2.04,2.12l-1.04-3.8-.33.58c-.69-4.21,1.43-8.97-1.94-11.06,1.99.46,3.05,1.05,2.01,3.69,3.37,1.69-1.26,8.19,3.34,8.47.11-.12.24-.22.41-.33l.4.31c.29-.02.61-.06.93-.12l-.28.58ZM1236.6,185.39c-1.06-.58-1.56-1.6-2.26-2.39,1.1-.67,1.67.87,2.4.59l-.69.62.55,1.18ZM1235.3,148.1l-1.55-1.59c.99.24,2.45.94,1.55,1.59ZM1220.85,126.62c-.15-.22-.34-.45-.53-.67.13.29.34.51.53.67ZM1057.87,256.34l-.52-.67c-.09.25-.01.49.52.67ZM1153.53,238.1l.29.55c.09-.04.21-.06.33-.08l-.62-.47Z"/>
    <path class="cls-2" d="M1241.04,204.64l-.39,1.34c-.34-1.44-2.34.27-1.83-1.44l1.43,1.12.79-1.03Z"/>
    <path class="cls-2" d="M1241.75,232.8l.91-.12c-.86.47-1.88-.32-2.01-1.59-.11.75.68,1.23,1.1,1.72Z"/>
    <path class="cls-2" d="M1242.75,215.78c-.78,1.57,1.18-1.42,2.29-.27l-.04-.37-2.26.64Z"/>
    <path class="cls-2" d="M1241.1,218.2c.87.79,2.12-.09,2.17-1.18.12,2.37-1.63-.54-2.17,1.18Z"/>
    <path class="cls-2" d="M1245.11,220.82l.24-2.79-.4,1.52.16,1.27Z"/>
    <path class="cls-2" d="M1222.24,227.48l.92-.12c-.45-.67.27-1.13.59-1.72l1.06.79c.45-1.15,3.66-1.92,5.07-4.65-3.49-1.59-7.07,2.69-7.64,5.7Z"/>
    <path class="cls-2" d="M1240.81,223.55l1.16-1.42c1.01.24.55,1.21.86,2.1l.11-2.22c-1.23-.23-2.07.63-2.14,1.55Z"/>
    <path class="cls-2" d="M1240.88,227.38c.39.15.55-.24.91-.47l.86.81c-.66,1-2.95,1.28-2.95,1.28,1.49.94,2.97-1.08,3.93-1.03,1.03-1.23-1.95-.12-1.97-1.95.29.69-.46.96-.79,1.37Z"/>
    <path class="cls-2" d="M1234.35,231.31c.22.16.64.45.51.86l.84-1.02-1.35.16Z"/>
    <path class="cls-2" d="M1241.34,231l-1.26.89,1.26-.89Z"/>
    <path class="cls-2" d="M1200.87,135.41l1.4.74-1.4-.74Z"/>
    <path class="cls-2" d="M1209.38,140.42l-2.54.31.12.9-1.92-.67c.5-1.72,2.63-.88,3.88-1.22l.39.31c.76-1.54-1.91-2.13.08-4.04l-1.01-.61-.73,1.38c-1-.6-2.68-.95-3.51-.12,2.13-.63,2.91-3.11,5.08-1.9l.15,5.67Z"/>
    <path class="cls-2" d="M1198.5,136.98l.37-.03.16,1.26-.36.04-.16-1.27Z"/>
    <path class="cls-2" d="M1199.35,140.91c.69-.45.17-1.67,1.08-1.6.11.91-.73,1.38-1.04,1.96-1.09-1.33-1.88-.5-2.79-1.85l.25-.94c.5,1.03,1.19,2.23,2.5,2.43Z"/>
    <path class="cls-2" d="M1204.33,138.1c-.58-.11-.7.27-.86.47l1.02.8,1.94-2.07c-.89,1.76-1.8,3.34-3.22,2.23l-1.12-1.69,2.25.27Z"/>
    <path class="cls-2" d="M1214.17,139.1l-1.99-1.22-.8,1,1.01.8-1.1,1.42,1.05.78.53-1.35c.48.68-.22,1.13-.51,1.72-3.09.21-.33-2.88-1.49-4.6,1.16,1.87,3.69-3,3.3,1.44Z"/>
    <path class="cls-2" d="M1191.14,142.67c-.13.37-.28.58-.66.62-1.15-.41-1.33-1.86-.86-2.64,1.68.35-.93,2.87,1.52,2.02Z"/>
    <path class="cls-2" d="M1194.05,143.77l-1.27-2.59,1.06,1.16.2,1.43Z"/>
    <path class="cls-2" d="M1204.8,141.89l-2.06,1.17,1-2.33c-.09.76.66.83,1.06,1.15Z"/>
    <path class="cls-2" d="M1190.22,145.52c-.6-1.75-3.02.93-2.65-.6l1.12-1.41,1.53,2.01Z"/>
    <path class="cls-2" d="M1190.01,151.22l-1.24.52c-1.57-.9,1.44-1.81.55-2.99.79.46.57,1.58.69,2.47Z"/>
    <path class="cls-2" d="M1161.85,138.94l-1.43-1.09-.32.4c.29,2.35-.08-.72-.65-.84,1.08-.3,3.1-.19,2.4,1.54Z"/>
    <path class="cls-2" d="M1163.73,139.64c-1.28,1.26.87-.48-.41-.52-.87-1.15,1.15-1.05,1.07-1.77l-.66,2.29Z"/>
    <path class="cls-2" d="M1171.43,137.77c-.85.66-1.12,1.58-.97,2.69,1.28-.16,2.6-1.07,4.14.76-.14.56-1.31,1.25-1.75.76l1.13-1.06-1.01-.78-3.07,3.12,1.03-1.95-.83-.82c-.62.93-1.48,1.34-2.58,1.23,1.2-.52.13-1.65-.31-2.53-.4-.14-.54.26-.88.47l-1.37-.76,2.14-.62c.29,1.07.96,2.09,2.16,2.86.51-1.9,1.98-1.91.47-3.73-.58-.11-1.02.67-.81,1.02l.17,1.27c-2.88-2.41,2.16-3.39,2.33-1.94Z"/>
    <path class="cls-2" d="M1176.84,138.75l-1.43-1.12,1.35.39.08.74Z"/>
    <path class="cls-2" d="M1180.55,140.5l-2.18.25c.7-.26,1.55-.93,2.18-.25Z"/>
    <path class="cls-2" d="M1183.69,143.77c-.41-.32-.44-2.14-2.03-1.59l1.67-1.49c-.4,1.15,1.33,1.85.36,3.08Z"/>
    <path class="cls-2" d="M1181.88,143.99c.2-.01-1.84-.14-2.05.99l.16,1.44-1.12-1.68,1.22-.53-1.43-1.29-1.11,1.6-.42-.5,2.34-1.94c.44,2.15.81.63,2.41,1.9Z"/>
    <path class="cls-2" d="M1175.21,143.35c-1.33,1.08-4.79,2.78-5.52,1.23-.16.21-.48.61-.87.48,1.49.17,4.75-3.16,6.39-1.71Z"/>
    <path class="cls-2" d="M1186.91,141.55c-.56,1.51-1.24.32-2.18.26l2.18-.26Z"/>
    <path class="cls-2" d="M1168.26,147.86l1.06-1.96.58.29-1.63,1.66Z"/>
    <path class="cls-1" d="M1184.71,145.85l-.45-.5,1.15-1.06c.08.52-.18,1.49-.7,1.55Z"/>
    <path class="cls-2" d="M1171.17,149.15c-.03-.35-.43-.49-.66-.81-1.92.78.8,1.91-1.98,1.7l-.1-.91c1.81,1.44.81-2.3,2.95-1.28l-.2,1.31Z"/>
    <path class="cls-2" d="M1177.14,148.43l.48-.42-1.55-.74.9-.1.17,1.25Z"/>
    <path class="cls-2" d="M1191.74,149.38l-.53,1.72.53-1.72Z"/>
    <path class="cls-2" d="M1101.34,126.09l1.28.67c.18-2.1-.54-.59-1.28-.67ZM1101.25,126.02v.02s.06.03.09.04l-.09-.07ZM1101.25,126.04c-.14-.05-.27-.15-.41-.35l1.11-1.41.4.32-.22-1.81-3.37.95c-2.81-2.04-6.04,1.48-8.42.14.46.86,1.62,2.73.04,3.46-1.66-.33-.77-2.11-1.29-3.32-.78-.26-1.05.51-1.5,1.12-1.5-.19-3.4-.69-3.41-2.35l-1.05,1.97c-1.59.57-4.01,1.78-5.24.64l-.8,1.03c-3.7-1.93-4.36,3.29-7.66,1.86-2.26-5.03-1.67-9.15-2.6-13.78-2.39-.08-6.3,3.88-8.45,5.81-3.91,2.49-7.1,6.36-11.08,6.67l.09.9c-1.97.24-2.64,3.81-4.57,3.13l-1.1,1.43-.41-.33c-1.52.93-1.17,2.34-2.74,2.91l-.4-.31c-.52.42-.93,1.4-1.64,1.49-1.38,2.37,1.4,2.56,2.29,3.73.48-.61.19-2.78,1.9-2.43.77.28.29,1.07.56,1.58,5.68.04,13.4-2.94,20.4-2.51l-1.09-1.52c.29-.41.58-1.17,1.13-1.07.81.47,1.24,1.13,1.19,2.06l1.63-1.49c.45.5,1.22.78.95,1.53l1.74-.57-1.41-1.1.3-.59c1.12.22,2.45-.86,3.17.51l-.28.59c1.19-.69,5.1,1.21,5.97-.36l-1-.81c-.04-.35.31-.58.45-.96.89-.1,1.63-.02,2.26.63-.16.21-.47.61-.43.97l6.51-.8c3.18.54,6.88-.66,9.09-2.04l1.13,1.69c2.1-.8,4.38-1.64,5.65-3.43,1.36.73-.37,1.51-.12,2.22l5.15-1.38c.11-3.49-3.1-1.46-2.4-4.62ZM1044.59,133.54l-.53.08-.18-1.44c.54-.08.77.26.97.43.23.34-.11.56-.26.93ZM1054.45,136.18l.81-1.01c.21.35.62.46.66.84l-1.47.18ZM1068.36,126.95l-.36.06-.21-1.64.37-.05.21,1.63ZM1087.93,128.21l-.8-2.1c.25.53.94.25,1.32.21l-.52,1.9ZM1096.8,128.77l-2.7.32,2.39,1.54c-1.77,2.04-2.35-1.17-3.67-1.39l.17-1.67c1.63-.21,1.82,2.72,3.15.35-.18-.17-.57-.29-.42-.69.32-.23.56.12.93.27l.15,1.26Z"/>
    <path class="cls-2" d="M1084.53,84.32l.52-.04c-.13-.05-.31-.06-.52.04ZM1085.46,84.56c.09-.12.2-.23.29-.34l-.7.06c.17.08.29.21.41.29ZM1070.18,85.53c-.45.19-.9.34-1.35.49.47.08.94-.1,1.35-.49ZM1091.83,79.05s.04-.03.1-.04c.03-.16-.04-.11-.1.04ZM1093.9,81.7c.17-.2.5-.43.46-.8l-1.24,1.8-.84-.81c-.04-.36-.31-1.05.21-1.3-1.08-.14-.84-1.18-.66-1.55-1.49.46-1.03,3.01-2.78,1.97-.05-.36-.32-1.07.21-1.31l-1.36-.75c-3.98,1.95-.82-2.1-5.12-2.87l.14,1.28c-.51.24-.74-.1-.96-.25l.13.9c-.77,1.19-1.85-.13-2.78-.21l1.6-1.85-.99-.79c-.85-.82-1.62.39-2.22-.28-3.75-3.57-10.05-2.61-13.55-7.13-.47.61,2.81,3.32-.05,4.04-2.04-1.58-6.22-2.71-3.88-6.13-2.57,2.89,1.14,4.64-.31,7.93-1.44,1.47,1.82,2.71-.4,4.09,2.83,6.61-2.75-2.96-4.02,3.05l-.84-.81.33-.41-2.55.31c-3.1.02-4.59,1.31-7.43.55.62.67.54,1.59-.29,2.24-1.83-.14-.57-1.76-1.59-2.56-.31.4-.42,1.15-1.16,1.06-.4-.32-1.17-.59-1.06-1.15l-.79,1.02c-4.43,2.74-8.91.54-12.56.63-1.69,4.24,1.1,7.74,2.73,11.95,2.2-4.49,6.05-1.49,9.55-4.31,1.39,2.89,3.08-.36,3.87-.09l-.83-.65c1.33-2.54,4.72-1.86,6.75-1.75,1.43,1.29-1.84,2.97-.46,2.25,1.96,1.06,4.01-1.77,6.01-.37,4.83-1.42,9.11-1.14,13.67-2.65-.29-.06-.6-.24-.87-.57-.06-.55.08-.76.43-.97.9-.12,2.03-1.35,2.94,0,.24.51-.08.74-.24.93,1.94.86,4.24.22,6.57-.25-.92-5.94,2.75,1.49,5.58-.69l-.2-1.8c.82.63,2.16-1.91,3.12-.01.36.68,0,1.11-.4,1.56l6.74-.52c.36-1.67,2.09-.8,3.31-1.32.37-1.51-1.13,1.24-1.9-.68ZM1035.52,89.81l-.38.05-.15-1.27.37-.04.16,1.26ZM1040.19,87.58l-.47-1.02c-.23-.15-.35-.36-.3-.72l.3.72c.23.17.53.27.74.44l-.27.58ZM1050.09,83.24l1.1,1.52.32-.41.6.3c-.5.43-3.33-.16-2.02-1.41ZM1060.25,86.76c-1.07-1.15,1.72-2.22,2.47-.67-.82-.82-1.2,2.17-2.47.67ZM1060.94,81.91l1.14-1.06.85,2.47-1.99-1.41ZM1064.35,81.49l-.6.99.46-2.25.14,1.26ZM1073.42,79.09l-1.02-.9v.11l-.52-.4c-.42.42-.55,1.07-1.25.99l-.38-.36s0,.03-.01.04c0-.03,0-.05,0-.08l-.46-.42-.29,1.86c-.34-.57-.69-.47-.95-.21,0,.27-.13.54-.64.78.08-.02.34-.49.64-.78-.06-.56-.87-1.15-.96-1.75l-.91.11c.13-2.02,3.88-2.13,3.56.4v.03c.3-.42.58-1.13,1.13-1.01l.51.39s.06-.07.09-.09l.43.38.11-2.11c.11,1.09,1.65,1.63.91,3.01ZM1075.4,74.44c-.43.79,1.08,2.62-1.33,2.37l1.33-2.37ZM1075.3,83.99l.86-.47.41.32-1.27.15ZM1077.06,80.29l-2.39-1.35,2.31.99.08.36Z"/>
    <path class="cls-2" d="M965.16,83.87c-.1-2.55-.5-5.45-2.96-6.24.37-2.97-4.36-1.11-5.51-1.52-3.03-2.37-5.51,4.16-8.9,2.01-.29-.87-.03-1.64.64-2.27-1.93-.7-3.76,2.29-5.14,1.54,1.63,1.28,1.4,5.34,3.14,7.5-1.07.31-1.73-.7-2.43,1.21l-1-.79.1.9c2.5-.67,1.25,2.59,2.94,3.12l-.49,3.54c2.84,2.05-.58,4.11.35,5.64l.3-.4c.71-.27.98.43,1.55.72-.63.63-1.26,1.63-1.95,1.91,1.28-.16,2.55,1.32,3.22,2.34.06-1.09,1.75-2.21,2.81-2.54.15-3.32-2.98-7.89-.14-11.53l2.03,1.58c1.37.74,4.14.78,4.74-.22l1.62,1.27c-.51.24-.59,1.17-1.35.89l.12.91.79-1.02c.54-.06.77.26.99.43.24.52-.43.96-.77,1.37l1.42,1.11c1.04.97,2.56,2.81.51,3.98l1.85.14-.3.58c-.1.76.17,1.63.98,2.09.64-.82.55-3.01,2.38-3.05.74-1.57-1.12-4.63-1.63-5.85,1.48-2.75-1.91-3.42-2.51-5.56-.12-2.37.89-3.04,2.63-3.8ZM958.03,86.95c-2.54-2.8-5.27,4.86-7.86.05.21-2.6-1.84-5.83.3-7.93,1.1,3.16,6.27.33,9,1.65-1.47,1.46,2.14,5.6-1.44,6.23Z"/>
    <path class="cls-2" d="M979.74,74.21l1.28-1.44c.04.36-.28.77-.42.97,3.05-.56,4.59,1.63,7.87-.05-.87,1.94.94,3.17-1.7,4.05-2.36.29-6.14-.71-8.78.16l-.3.59-1.14-1.69c-1.45,0-1.79,1.69-2.78,2.54,1.73,2.18,1.42,5.7,4.48,6.61,1.12-1.24.88-1.77,2.28-2.12,2.66.59,5.78-.89,8.42-.13-1.55.76-.14,1.68.32,2.53-2.96,2.75-7.12.33-10.1,1.24l-.16-1.25c-1.35-.57-3.11,1.49-3.12,2.95.54,2.87.21,6.03,3.14,7.68,3.08-3.31,8.6-3.25,12.65-1.55l.78-1.02-1.28,1.45c.59.29.86,1,1.55.73l.06.35c-3.85.11-6.91,2.14-10.49,1.28-1.41,1.83-3.93-.78-4.1,2.35-.25-.52.11-.75.25-.95-.69-1.01-1.76-.7-2.66-.58l-.78,1.01c.18.15.58.3.65.83-.27.78-1.21.53-1.75.6l-2.61-6.3.79-1-.98-.61-.34.42c2.06-1.16-1.09-2.98.68-4.85-1.45-4.23-.88-7.04-2.24-10.73l-.72.09c.18-1.68,3.27-1.69,2.04-4.29,2.57,2.99,6.38-.42,9.21.15Z"/>
    <path class="cls-2" d="M1003.8,71.02c-2.87-3.85-5.5,3.07-8.04,3.2l-.41-.32c-1.34,1.09-1.02,3.62.53,4.35-.48,2.07-1.87-.32-2.59,1.23.4,3.08.86,5.59.79,9.44,1.03.98,2.8,1.86,1.71,3.47.39.13.87.99,1.36.57-.09-.73.76-1.2,1.07-1.79l1.95,1.04c.53,1.22-1.06,1.97-1.48,2.77.93.24,2.49,1.14,2.12,2.48l1.73-.76c.26.51,1.17.58.92,1.33l.54-.06-.32-2.7.34-.04c4.38,2.78,8.13-.99,11.83-3.66l-1.54.74c-3.01-2.2,1.98-1.71,1.12-4.18l-1.77-1.07c-.12-.9,1.41-2,.04-2.74.14,1.08.44,2.14-.58,2.82-.36.04-.55-.11-.77-.45-2.11.8-.74,3.02-2.26,4.3l-1.73-.7c.64.66.59,1.58-.25,2.24-4.44-.37-6.36-1.05-8.83-4.6-2.6,1.05-3.52-2.12-5.26-2.82.97-1.04,1.01-3.62,3.01-3.86,1.14.41,1.62,1.46,2.08,2.31l.34-.41c-1.79-1.05-.77-4.68-1.92-5.08-.02-1.66,1.53-.92,1.7-1.13,1.3-4.37,4.33-.34,5.01-5.37.03-.03.1-.04.13-.07-.23-.08-.42-.3-.56-.44ZM1000.16,74.23l-1.09-1.34c.89-.29,1.49-1.29,2.62-1.05-.45.79-.31,2.05-1.53,2.39ZM1004.58,71.49c.05-.07.11-.13.18-.18-.13.02-.26.08-.4.15.08,0,.14.03.22.03ZM1009.88,71.2c-1.6.02-3.96-1.02-5.12.11,1.03-.22,1.74,1.12,2.74,1.47-1.76,3.7,2.93,4.59,4.64,6.58,1.46-.18,2.85-2.37,1.44-3.29.33-.41.59-1.17,1.16-1.06-.69-1.2-4.17-1.14-4.85-3.8Z"/>
    <path class="cls-2" d="M950.86,129.26c.02-.12.03-.2.05-.29-.32.38-.46.57-.05.29ZM950.92,128.97c.21-.24.5-.57.78-.93-.32,0-.6.24-.78.93ZM959.64,143.95c1.48-2.74-.79-4.86.88-7.63-2.32-1-5.07-2.3-7.36-1.66-3.84-1.55-10.49,1.11-8.61-5.91,1.55-3.85,4.82-1.14,7.07-3.63.42.51,1.17.6,1.06,1.16-.14.56-.57,1.21-.99,1.76.69,0,1.59,1.11,1.97.31.62.48,1.38.94,1.14,1.69.13-.2.48-.6.85-.47.41.51,1.36.75,1.09,1.52l3.14-2.96c-1.83-4.36-7.17-4.79-10.44-5.86-.62,2.65-2.32-1.01-2.59-.05-.48.42-.59,1.16-1.15,1.06-.98-.43-1.23-1.14-1.16-2.05l-.85.47.99.79c.04.36.14,1.07-.39,1.34-6.56-2.69-.85,6.33-5.3,5.96l1.02.78c-1.67,2.96,2,5.81,3.01,6.6.31-.4.39-1.14,1.13-1.05,1.18.4,1.12,1.51,1.27,2.59.48-.62.74-1.37,1.45-1.47,1.28,1.32.72-.08,1.76-.75,1.52.53,1.34,2.2,2.02,3.23l.41-1.35c1.17-.86,2.46-.84,3.47.13.29.69.07,3.46.07,3.46l1.92-2.43.83.82c.21,3.28-3.67,4.49-4.91,6.29-4.66.94-7.56-4.93-10.54-6.59.45.68-.21,1.13-.53,1.71l-.58-.29c-1.7,1.11.17,4.38,1.29,5.89l.31-.4c1.4.93,2.48.61,3.4,2.14l-.49.62,2.17-.27.11.9c1.23.96,3.32-2.79,5.71-1.26,3.48-1.52,7.82-3.35,8.41-6.33l-1.06,1.96-1-.79ZM942.19,130.33c-.54.07-.76-.11-.97-.44-.1-.53.84-2.13,1.53-.92.42.48-.45.79-.56,1.36Z"/>
    <path class="cls-2" d="M986.43,140.28c-.9-1.18-.99-3.38-2.46-1.89-2.23-1.93-2.98-5.14-3.14-7.51l.56-.06c-2.49-2.63-5.67-5.91-6.15-9.88-1.58.57-1.86-1.61-2.44-1.89l.06.36c-.29,2.23-2.17.25-2.58-.05-.55,2.99-.31,6.46-2.4,8.72l1.41,1.11-.78,1c-.37.05-.57-.29-.97-.42l-.23,4.06c-.71,1.73.32,4.18-1.6,4.97,1.37,3.51-3.05,6.43.25,9.32l.28-.59c.67-.45,4.1-1.06,2.71-3.45.22-4.07,4.29-6.75,8.03-6.11,1.38,2.21,2.75-1.45,4.11.77,1.08,1.34-1.46,5.86,2.08,6.34l.29-.59c.79,1.93,2.67.78,3.43,2.33-.49-2.32-1.81-4.17-.44-6.54ZM968.27,141.6c-2.34-1-.99-3.36.97-2.32-.65.63.03,1.82-.97,2.32ZM975.36,135.4c-1.04.31-2.38-.08-3,.92l.03.38c-.67.26-.95-.44-1.37-.76-.78-1.92.79-1.01,1.42-1.82l1.85-7.38c1.25,2.61,3.8,5.59,1.07,8.67Z"/>
    <path class="cls-2" d="M991.74,129.43c.2,2.92,2.6,4.45,3.93,6.49,1.16.4,1.73-.76,2.37-1.58l-1.16-2.06c.49-.61,1.68.35,2.06-1.17l-1.01-.61c-.15.21-.28.61-.68.46.37-4.63,1.4-10.98,4.81-14.71-1.1,4.53,5.75.58,1.93,5.45-.08-.72,1.44-1.84.05-2.59-1.88,1.16-1.38,3.66-.26,5.37.26,8.02-6.29,9.93-6.64,17.49l-1.11,1.43-.4-.33-1.61,1.85c-.84-2.28-.63-5.05-3.87-6.12.46-.61,1.14-1.06.7-1.73-3.8.28-.94-3.18-2.8-4.97-.92-2.84-4.74-4.19-4.46-7.89l-1.44-1.11-.46.61c-1.36-.57,1.2-3.64-1.8-4.19l1.36.58,1.52-2.4c5.26,1.02,5.24,8.17,8.95,11.74Z"/>
    <path class="cls-2" d="M1014.07,118.02c1.93-3.54,5.17.45,7.09-1.8l.61.28,1.08-1.42c-.09.75.67.84,1.05,1.17l1.24-.53c-1.45,1.65,2.04,1.75.37,3.06-4.96-1.4-9.64,3.76-13.38-1.46l-1.13,1.41c4.74,1.26-.66,5.04.91,7.41.24,1.8.14,4.02,1.05,5.55-.29.58-.97.85-.74,1.38l1.02.79c-2.49.67.28,2.17-.53,3.18,1.76,2.35,4.08,1.69,6.43,1.41.67-.44.21-1.31.13-1.85.11.9.37,1.59,1.17,2.06,1.84-1.51,3.98-.49,6.1-1.13-.06-.35-.33-1.05.22-1.3-.16.19-.52.42-.28.95l1.44,1.1.29-.57.33,2.7c-1.52-.55-2.51,1.96-3.85-.07-1.22,2.16-2.97-.2-4.27,1.07-1.66,1.31-3.55-1.95-4.84.95-.6-.29-1.03-.97-1.72-.71l-1.49,2.94c-1,.86,1.02-1.97-1.17-2.06l-1.13,1.42c1.56-.93-4.02-3.16-.09-5.31-1.93-2.31-1.01-5.36-2.38-7.58.55.11.7-.27.85-.47-2.06-1.77-.31-5.48-.02-7.51-2.67-.96-1.26-4.44-.79-6.52,1.24,2.6,4.52-.55,6.42,1.43Z"/>
    <path class="cls-2" d="M1035.94,124.48l.78-1.02,4.93,4.35c-3.28,7.56-9.49-1.21-14.76,2.2-1.92.78-3.22-2.19-4.8-.33-.1-.72-.4-1.6-1.19-2.06-.84,3.42-3.19,2.42-5.5,1.24-.37.22-.5.61-.88.47-.21-1.62,1.97-.43,2.37-1.57,2.14,2.3,3.64-1.73,5.62-.71l-.63,1.01.82.8c1.34-4.19,5.03-2.45,7.62-3.69l1.41,1.11c1.78-.6,1.96-5.01,4.2-1.8Z"/>
    <path class="cls-2" d="M944.4,68.62l-1.28,1.62,1.28-1.62Z"/>
    <path class="cls-2" d="M1006.18,64.13c-.41-.33-1.39-.94-.56-1.58l.56,1.58Z"/>
    <path class="cls-2" d="M936.94,73.57l-.78-.27.25-.95c.58.12.47.86.52,1.22Z"/>
    <path class="cls-2" d="M949.74,73.27c2.1.66,1.25-1.62,1.89-2.43.03.18.61,3.41-1.89,2.43Z"/>
    <path class="cls-2" d="M990.44,67.34l-1.04-1.16.89-.11.15,1.27Z"/>
    <path class="cls-2" d="M938.77,94.42l.58-1.35,1.44-.17-2.02,1.53Z"/>
    <path class="cls-2" d="M934.27,98.1l.54-.08.33,2.53-.54.06-.33-2.52Z"/>
    <path class="cls-2" d="M938.73,98.46l.12.9-1.08-1.33c.53-.06.75.27.97.43Z"/>
    <path class="cls-2" d="M966.45,98.9c-1.21.51-1.32-.21-1.78-1.07l.58-2.65c.38,1.43-.86,4.88,1.2,3.71Z"/>
    <path class="cls-1" d="M1092.48,81.72l.31-.59,1.24-.16-1.56.75Z"/>
    <path class="cls-2" d="M1052.61,86.99l.13.9-1.32-.19c-.29-.89.72-1.56,1.19-.71Z"/>
    <path class="cls-2" d="M1008.71,95.15l1.06,1.15-1.06-1.15Z"/>
    <path class="cls-2" d="M947.99,105.2l.14-1.85.21,1.81-.35.04Z"/>
    <path class="cls-2" d="M969.7,102.9c-1.87,1.14-1.41-1.12-2.06-1.94.47.85,1.27,1.49,2.06,1.94Z"/>
    <path class="cls-2" d="M1021.22,97.1l.53-.06.23,1.62-.55.06-.21-1.62Z"/>
    <path class="cls-2" d="M1080.49,91.44l-1.47-1.47.77.27.7,1.2Z"/>
    <path class="cls-2" d="M940.85,108.28l1.13,1.69-1.13-1.69Z"/>
    <path class="cls-2" d="M978.09,104.06l.12.9-.87-1.17c.33-.22.56.13.76.27Z"/>
    <path class="cls-2" d="M936.9,111.89l.07-2.21,1.72,2-1.79.22Z"/>
    <path class="cls-2" d="M1081.03,92.83l1.35.57-1.35-.57Z"/>
    <path class="cls-2" d="M983.03,108.4l1.16-2.34.13.91-1.29,1.43Z"/>
    <path class="cls-2" d="M963,109.59l.37-.05.15,1.26-.36.05-.16-1.26Z"/>
    <path class="cls-2" d="M967.54,110.67l.16-1.66.16,1.26-.32.4Z"/>
    <path class="cls-2" d="M994.8,107.31c.11-.55-.66-.83-1.03-1.15-.8-.26-1.08.5-1.53,1.1.56.12.47.88.5,1.24l-.26-2.17c1.06-.32,2.56-.13,2.32.99Z"/>
    <path class="cls-2" d="M1072.31,96.48c-.93,2.86,2.69,3.89,1.17,6.46.46-2.26-.99-3.57-2.07-6.35l.9-.11Z"/>
    <path class="cls-2" d="M1082.51,97.43c.09-.75-.66-.84-1.07-1.15l1.16-1.07c.74.09-.75,1.38-.09,2.22Z"/>
    <path class="cls-2" d="M998.36,107.81l-.51-1.24.9-.11-.4,1.35Z"/>
    <path class="cls-2" d="M1074.96,97.08l.52-.08.16,1.26-.54.07-.14-1.26Z"/>
    <path class="cls-2" d="M948.96,112.97l.35-.04.27,2.16-.36.05-.26-2.17Z"/>
    <path class="cls-2" d="M1059.88,99.84l-.05,2.57.05-2.57Z"/>
    <path class="cls-2" d="M1048.15,104.23l.1-2.21.6.47-.7,1.74Z"/>
    <path class="cls-2" d="M955.24,114.95l.56-.08.14,1.26-.56.08-.14-1.25Z"/>
    <path class="cls-2" d="M983.04,114.44l-1.22-2.42,1.08,1.16.13,1.26Z"/>
    <path class="cls-2" d="M1061.58,106.23l.74-1.56.43.51-1.16,1.05Z"/>
    <path class="cls-2" d="M1012.75,112.98l.69-1.73.12.91-.81.82Z"/>
    <path class="cls-2" d="M1100.33,102.2l.32-.42-.8,1.03-.45-.88c.19.16.4.51.93.27Z"/>
    <path class="cls-1" d="M1078.7,130.52l-.64-.84,2.69-.32-2.05,1.16Z"/>
    <path class="cls-2" d="M966.96,149.06c.13-.38-.27-.7-.49-.85l1.54-1.1-1.05,1.95Z"/>
    <path class="cls-2" d="M1005.76,145.57c.03.18-1.4-.93-.83-2.11l.83,2.11Z"/>
    <path class="cls-2" d="M955.48,152.68l.55-.06.23,1.8-.56.06-.21-1.8Z"/>
    <path class="cls-2" d="M1006.67,149.85l-.64-2.12.48.87.17,1.25Z"/>
    <path class="cls-2" d="M962.75,153.64l-.37,1.3.37-1.3Z"/>
    <path class="cls-2" d="M412.76,227.9l.02-.02h-.08s.04.03.06.02Z"/>
  </g>
  <g id="Layer_2-2" data-name="Layer 2">
    <text class="cls-3" transform="translate(134.49 294.84) rotate(-6.7)"><tspan x="0" y="0">SYLENTH</tspan></text>
  </g>
</svg>