<?xml version="1.0" encoding="UTF-8"?>
<svg id="Layer_2" data-name="Layer 2" xmlns="http://www.w3.org/2000/svg" viewBox="0 0 1293.57 325.65">
  <defs>
    <style>
      .cls-1 {
        fill: #e22739;
        stroke: #000;
        stroke-miterlimit: 10;
        stroke-width: 3px;
      }
    </style>
  </defs>
  <g id="Layer_1-2" data-name="Layer 1">
    <g>
      <path class="cls-1" d="M128.4,1.5l52.2,46.8v57.15h-74.25v-43.2h-30.6v65.7l54,4.5,50.85,46.8v98.1l-48.6,46.8H49.65L1.5,277.35v-56.7h74.25v42.75h30.6v-67.5l-53.1-4.05L1.5,145.05V48.3L50.1,1.5h78.3Z"/>
      <path class="cls-1" d="M330,189.15v135h-74.25v-135L191.85,1.5h74.25l26.55,116.55h.9L320.1,1.5h74.25l-64.35,187.65Z"/>
      <path class="cls-1" d="M485.69,263.4h67.05v60.75h-141.3V1.5h74.25v261.9Z"/>
      <path class="cls-1" d="M708.43,62.25h-62.55v60.75h52.65v60.75h-52.65v79.65h64.35v60.75h-138.6V1.5h136.8v60.75Z"/>
      <path class="cls-1" d="M914.52,324.15h-61.65l-48.15-157.05h-.9v157.05h-69.75V1.5h62.1l47.7,155.25h.9V1.5h69.75v322.65Z"/>
      <path class="cls-1" d="M1091.82,62.25h-41.85v261.9h-74.25V62.25h-41.85V1.5h157.95v60.75Z"/>
      <path class="cls-1" d="M1292.07,324.15h-74.25v-130.95h-31.05v130.95h-74.25V1.5h74.25v130.95h31.05V1.5h74.25v322.65Z"/>
    </g>
  </g>
</svg>