<?xml version="1.0" encoding="UTF-8"?>
<svg id="Layer_2" data-name="Layer 2" xmlns="http://www.w3.org/2000/svg" viewBox="0 0 1280.27 394.36">
  <defs>
    <style>
      .cls-1, .cls-2, .cls-3 {
        stroke-width: 0px;
      }

      .cls-1, .cls-3 {
        fill: #333;
      }

      .cls-2 {
        fill: #eaeeff;
      }

      .cls-3 {
        opacity: .75;
      }
    </style>
  </defs>
  <g id="Layer_2-2" data-name="Layer 2">
    <rect class="cls-3" x="174.49" y="341.74" width="23.23" height="52.62"/>
    <rect class="cls-3" x="215.39" y="341.74" width="23.23" height="52.62"/>
    <rect class="cls-3" x="256.1" y="341.74" width="23.23" height="52.62"/>
    <rect class="cls-3" x="297" y="341.74" width="23.23" height="52.62"/>
    <rect class="cls-3" x="338" y="341.74" width="23.23" height="52.62"/>
    <rect class="cls-3" x="378.91" y="341.74" width="23.23" height="52.62"/>
    <rect class="cls-3" x="419.62" y="341.74" width="23.23" height="52.62"/>
    <rect class="cls-3" x="460.52" y="341.74" width="23.23" height="52.62"/>
    <rect class="cls-3" x="501.26" y="341.74" width="23.23" height="52.62"/>
    <rect class="cls-3" x="542.17" y="341.74" width="23.23" height="52.62"/>
    <rect class="cls-3" x="582.88" y="341.74" width="23.23" height="52.62"/>
    <rect class="cls-3" x="623.78" y="341.74" width="23.23" height="52.62"/>
    <rect class="cls-3" x="664.49" y="341.74" width="23.23" height="52.62"/>
    <rect class="cls-3" x="705.39" y="341.74" width="23.23" height="52.62"/>
    <path class="cls-3" d="M156.94,341.74v52.62c-.03-5.6-137.29,30.74-130.58-162.81,3.1-89.45,52.53-132.5,99.1-138.32,37.16-4.65,348.9-3.1,348.9-3.1l-28.39-26.84,40.77-42.29,78.65,70.68v56.77s-394.5,1.55-423.42,1.55c-85.68,0-78.97,205.42,14.97,191.74Z"/>
    <polygon class="cls-3" points="769.54 92.19 769.54 150.51 606.1 150.51 606.1 92.19 680.81 21 728.62 57.61 692.16 93.05 769.54 92.19"/>
  </g>
  <g id="Layer_3" data-name="Layer 3">
    <g>
      <path class="cls-2" d="M0,321.18l25.49-28.86c3.22,7.91,8.4,14.14,15.53,18.68,7.13,4.54,15.14,6.81,24.02,6.81,10.74,0,19.24-2.54,25.49-7.62,6.25-5.08,9.38-11.91,9.38-20.51,0-10.16-10.4-20.26-31.2-30.32-6.74-3.22-12.06-5.86-15.97-7.91-18.75-9.76-31.74-19.31-38.96-28.64-7.23-9.32-10.84-20.43-10.84-33.33,0-17.67,7.01-32.2,21.02-43.58,14.01-11.38,32.2-17.07,54.57-17.07,12.99,0,24.19,2.27,33.62,6.81,9.42,4.54,17.75,11.65,24.98,21.31l-27.1,25.93c-3.22-6.25-7.5-10.91-12.82-13.99-5.32-3.08-11.74-4.61-19.26-4.61-9.08,0-16.41,2.27-21.97,6.81s-8.35,10.43-8.35,17.65c0,11.33,11.03,21.68,33.11,31.05,4.39,1.86,7.76,3.32,10.11,4.39,18.16,8.3,31.62,17.68,40.36,28.12,8.74,10.45,13.11,22.36,13.11,35.74,0,20.12-6.86,36.16-20.58,48.12-13.72,11.96-32.15,17.94-55.3,17.94-16.41,0-30.47-2.83-42.19-8.5-11.72-5.66-20.46-13.82-26.22-24.46Z"/>
      <path class="cls-2" d="M225.88,348.42v-97.85l-72.66-116.6h53.76l31.79,58.74c1.56,2.93,3.17,6.64,4.83,11.13,1.66,4.49,3.37,9.67,5.13,15.53,1.37-4.98,2.9-9.67,4.61-14.06,1.71-4.39,3.64-8.69,5.79-12.89l31.57-58.45h53.68l-72.66,116.6v97.85h-45.85Z"/>
      <path class="cls-2" d="M363.57,348.42v-214.45h45.85v175.49h73.24v38.96h-119.09Z"/>
      <path class="cls-2" d="M511.52,348.42v-214.45h126.27v38.67h-80.42v44.09h80.42v38.96h-80.42v53.76h80.42v38.96h-126.27Z"/>
      <path class="cls-2" d="M682.76,348.42v-214.45h47.61l94.92,124.8c2.73,3.52,5.74,8.47,9.01,14.87,3.27,6.4,6.67,13.94,10.18,22.63-1.08-6.35-1.86-12.65-2.34-18.9-.49-6.25-.73-14.06-.73-23.44v-119.97h43.8v214.45h-44.97l-97.56-127.15c-2.74-3.52-5.71-8.47-8.94-14.87-3.22-6.4-6.64-14.04-10.25-22.92,1.07,6.15,1.85,12.38,2.34,18.68.49,6.3.73,14.23.73,23.8v122.46h-43.8Z"/>
      <path class="cls-2" d="M1013.09,172.93v175.49h-46v-175.49h-52.44v-38.96h150.88v38.96h-52.44Z"/>
      <path class="cls-2" d="M1095.56,348.42v-214.45h45.85v85.99h93.02v-85.99h45.85v214.45h-45.85v-89.65h-93.02v89.65h-45.85Z"/>
    </g>
  </g>
  <g id="Layer_4" data-name="Layer 4">
    <rect class="cls-2" x="336.77" y="23.12" width="108.32" height="76.41" rx="35.75" ry="35.75" transform="translate(16.86 -67.74) rotate(10.12)"/>
    <rect class="cls-1" x="356.47" y="37.95" width="20.9" height="38.18" rx="10.45" ry="10.45" transform="translate(15.73 -63.58) rotate(10.12)"/>
    <rect class="cls-1" x="404.5" y="46.52" width="20.9" height="38.18" rx="10.45" ry="10.45" transform="translate(17.98 -71.89) rotate(10.12)"/>
    <circle class="cls-2" cx="336.73" cy="16" r="16"/>
    <circle class="cls-2" cx="324.4" cy="85.09" r="16"/>
    <circle class="cls-2" cx="456.64" cy="37.4" r="16"/>
    <circle class="cls-2" cx="444.31" cy="106.49" r="16"/>
  </g>
</svg>