<?xml version="1.0" encoding="UTF-8"?>
<svg id="Layer_2" data-name="Layer 2" xmlns="http://www.w3.org/2000/svg" viewBox="0 0 1314.26 419.17">
  <defs>
    <style>
      .cls-1 {
        font-family: FuturaBT-Heavy, 'Futura Hv BT';
        font-size: 300px;
        font-weight: 800;
      }

      .cls-1, .cls-2 {
        fill: #eaeeff;
      }

      .cls-3, .cls-2, .cls-4 {
        stroke-width: 0px;
      }

      .cls-3, .cls-4 {
        fill: #333;
      }

      .cls-4 {
        opacity: .75;
      }
    </style>
  </defs>
  <g id="Layer_2-2" data-name="Layer 2">
    <rect class="cls-4" x="184.74" y="341.74" width="23.23" height="52.62"/>
    <rect class="cls-4" x="225.65" y="341.74" width="23.23" height="52.62"/>
    <rect class="cls-4" x="266.35" y="341.74" width="23.23" height="52.62"/>
    <rect class="cls-4" x="307.26" y="341.74" width="23.23" height="52.62"/>
    <rect class="cls-4" x="348.26" y="341.74" width="23.23" height="52.62"/>
    <rect class="cls-4" x="389.16" y="341.74" width="23.23" height="52.62"/>
    <rect class="cls-4" x="429.87" y="341.74" width="23.23" height="52.62"/>
    <rect class="cls-4" x="470.77" y="341.74" width="23.23" height="52.62"/>
    <rect class="cls-4" x="511.52" y="341.74" width="23.23" height="52.62"/>
    <rect class="cls-4" x="552.42" y="341.74" width="23.23" height="52.62"/>
    <rect class="cls-4" x="593.13" y="341.74" width="23.23" height="52.62"/>
    <rect class="cls-4" x="634.03" y="341.74" width="23.23" height="52.62"/>
    <rect class="cls-4" x="674.74" y="341.74" width="23.23" height="52.62"/>
    <rect class="cls-4" x="715.65" y="341.74" width="23.23" height="52.62"/>
    <path class="cls-4" d="M167.19,341.74v52.62c-.03-5.6-137.29,30.74-130.58-162.81,3.1-89.45,52.53-132.5,99.1-138.32,37.16-4.65,348.9-3.1,348.9-3.1l-28.39-26.84,40.77-42.29,78.65,70.68v56.77s-394.5,1.55-423.42,1.55c-85.68,0-78.97,205.42,14.97,191.74Z"/>
    <polygon class="cls-4" points="779.8 92.19 779.8 150.51 616.35 150.51 616.35 92.19 691.06 21 738.87 57.61 702.42 93.05 779.8 92.19"/>
  </g>
  <g id="Layer_3" data-name="Layer 3">
    <text class="cls-1" transform="translate(0 348.42)"><tspan x="0" y="0">SYLENTH</tspan></text>
  </g>
  <g id="Layer_4" data-name="Layer 4">
    <rect class="cls-2" x="347.03" y="23.12" width="108.32" height="76.41" rx="35.75" ry="35.75" transform="translate(17.02 -69.54) rotate(10.12)"/>
    <rect class="cls-3" x="366.72" y="37.95" width="20.9" height="38.18" rx="10.45" ry="10.45" transform="translate(15.89 -65.38) rotate(10.12)"/>
    <rect class="cls-3" x="414.75" y="46.52" width="20.9" height="38.18" rx="10.45" ry="10.45" transform="translate(18.14 -73.69) rotate(10.12)"/>
    <circle class="cls-2" cx="346.98" cy="16" r="16"/>
    <circle class="cls-2" cx="334.65" cy="85.09" r="16"/>
    <circle class="cls-2" cx="466.9" cy="37.4" r="16"/>
    <circle class="cls-2" cx="454.56" cy="106.49" r="16"/>
  </g>
</svg>