<?xml version="1.0" encoding="UTF-8"?>
<svg id="Layer_2" data-name="Layer 2" xmlns="http://www.w3.org/2000/svg" xmlns:xlink="http://www.w3.org/1999/xlink" viewBox="0 0 1170.19 475.38">
  <defs>
    <style>
      .cls-1 {
        fill: #fff;
        stroke: #000;
        stroke-linejoin: round;
        stroke-width: 6px;
      }

      .cls-2 {
        filter: url(#outer-glow-1);
      }

      .cls-3 {
        fill: url(#radial-gradient);
        stroke-width: 0px;
      }
    </style>
    <filter id="outer-glow-1" filterUnits="userSpaceOnUse">
      <feOffset dx="0" dy="0"/>
      <feGaussianBlur result="blur" stdDeviation="5"/>
      <feFlood flood-color="#009eff" flood-opacity=".75"/>
      <feComposite in2="blur" operator="in"/>
      <feComposite in="SourceGraphic"/>
    </filter>
    <radialGradient id="radial-gradient" cx="889.64" cy="237.69" fx="889.64" fy="237.69" r="238.6" gradientTransform="translate(-59.89 -235.22) scale(1.09 1.99)" gradientUnits="userSpaceOnUse">
      <stop offset="0" stop-color="#2ac0ff"/>
      <stop offset=".81" stop-color="#005ad4"/>
    </radialGradient>
  </defs>
  <g id="Layer_2-2" data-name="Layer 2">
    <g class="cls-2">
      <path class="cls-3" d="M753.11,243.63l-104.77,8.91,3.97-29.71,102.46,8.32c6.54-36.04,25.56-66.94,57.07-92.7,32.03-26.53,68.62-40.41,109.79-41.6l3.25-96.86h32.37l-22.67,96.86c39.92,1.59,72.38,15.45,97.36,41.6,24.6,25.76,35.36,56.66,32.27,92.7l105.98-8.32-3.97,29.71-103.68-8.91c-6.28,37.24-25.65,69.14-58.11,95.67-31.98,26.15-67.69,39.81-107.12,41l-3.65,95.08h-32.37l21.7-94.48c-39.5-1.58-71.95-15.45-97.36-41.6-25.37-26.53-36.2-58.43-32.52-95.67ZM916.05,65.96l.9-64.77c-62.35,4.75-118.51,27.73-168.47,68.93-49.48,40.81-80.54,89.13-93.19,144.99l68.96,7.13c8.96-41.2,31.85-76.85,68.68-106.96,36.34-29.71,77.38-46.14,123.12-49.32ZM860.73,445.67l9.3-35.65c-44.89-3.17-81.5-19.8-109.84-49.91-29.21-30.1-42.54-65.96-39.99-107.55l-39.56,5.35c-1.83,49.12,14.51,91.51,49.02,127.16,34.44,36.05,78.14,56.26,131.07,60.61ZM919.2,163.41l2.12-59.42c-38.57,1.19-73.11,14.26-103.64,39.22-30.05,24.57-48.24,54.07-54.57,88.54l65.23,5.94-66.74,5.35c-3.42,35.27,6.98,65.57,31.21,90.92,23.85,24.96,54.68,38.03,92.5,39.22l14.01-61.2-2.28,60.61c38.56-1.19,72.87-14.06,102.91-38.62,30.58-25.35,48.87-55.65,54.89-90.92l-64.67-5.35,66.1-5.35c2.93-34.85-7.33-64.56-30.8-89.13-23.42-24.96-54.26-38.03-92.5-39.22l-13.77,59.42ZM958.37,30.31l-10.11,36.84c44.45,3.18,81.07,19.82,109.84,49.91,27.96,29.71,41.15,64.98,39.58,105.77l40.77-4.75c1.82-49.11-14.27-91.71-48.29-127.76-34.02-36.04-77.95-56.05-131.8-60.02ZM1163.89,260.27l-70.17-7.72c-8.97,41.21-31.64,76.86-68.04,106.96-36.83,30.11-77.89,46.75-123.2,49.91l-1.62,65.36c62.35-4.75,118.71-27.72,169.11-68.93,50.34-40.8,81.64-89.33,93.92-145.58Z"/>
    </g>
  </g>
  <g id="Layer_1-2" data-name="Layer 1">
    <g>
      <path class="cls-1" d="M159.6,163.26l-3.37,27.47h-43.95l2.7-21.97h-43.95l-4.05,32.96H23.05l4.05-32.96-24.09-27.47h126.34c21.97,0,32.06,7.33,30.26,21.97ZM120.57,212.7c21.97,0,32.06,7.33,30.26,21.97l-8.77,71.41c-1.8,14.65-13.69,21.97-35.66,21.97H40.49c-21.97,0-32.06-7.32-30.26-21.97l3.37-27.47h43.95l-2.7,21.97h43.95l8.09-65.92h-54.93c-21.97,0-32.06-7.32-30.26-21.97h98.88Z"/>
      <path class="cls-1" d="M207.57,218.19l15.35,10.99,17.83-10.99,5.62-43.95h43.95l-6.74,54.93-41.29,23.07-9.31,75.81h-43.95l9.06-75.59-35.59-23.29,2.24-16.48h43.95l-1.11,5.49ZM210.03,201.71l3.37-27.47h-43.95l-3.37,27.47h43.95Z"/>
      <path class="cls-1" d="M340.3,212.7l-10.79,87.89h76.9l-3.37,27.47h-120.85l14.16-115.36h43.95ZM345.02,174.25l-3.37,27.47h-43.95l3.37-27.47h43.95Z"/>
      <path class="cls-1" d="M469.44,234.67h54.93l-2.7,21.97h-54.93l-5.4,43.95h76.9l-3.37,27.47h-120.85l14.16-115.36h43.95l-2.7,21.97ZM550.61,201.71h-121.07l3.37-27.47h120.85l-3.15,27.47Z"/>
      <path class="cls-1" d="M603.98,212.7l-14.16,115.36h-43.95l14.16-115.36h43.95ZM633.76,328.06h60.43l18.89-153.81h-43.95l-15.51,126.34-28.43-126.34h-60.42l-3.37,27.47h43.95l28.43,126.34Z"/>
      <path class="cls-1" d="M720.68,201.71l3.37-27.47h120.85l-3.37,27.47h-120.85ZM757.78,212.7h43.95l-14.16,115.36h-43.95l14.16-115.36Z"/>
      <path class="cls-1" d="M895.11,212.7l-2.7,21.97h32.96l7.42-60.43h43.95l-18.89,153.81h-43.95l8.77-71.41h-32.96l-8.77,71.41h-43.95l14.16-115.36h43.95ZM899.84,174.25l-3.37,27.47h-43.95l3.37-27.47h43.95Z"/>
    </g>
  </g>
</svg>