<?xml version="1.0" encoding="UTF-8"?>
<svg id="Layer_2" data-name="Layer 2" xmlns="http://www.w3.org/2000/svg" xmlns:xlink="http://www.w3.org/1999/xlink" viewBox="0 0 1175.77 167.83">
  <defs>
    <style>
      .cls-1 {
        fill: url(#radial-gradient-5);
      }

      .cls-1, .cls-2, .cls-3, .cls-4, .cls-5, .cls-6, .cls-7, .cls-8 {
        stroke: #fff;
        stroke-miterlimit: 10;
        stroke-width: 4px;
      }

      .cls-2 {
        fill: url(#radial-gradient-8);
      }

      .cls-3 {
        fill: url(#radial-gradient-7);
      }

      .cls-4 {
        fill: url(#radial-gradient-4);
      }

      .cls-5 {
        fill: url(#radial-gradient);
      }

      .cls-6 {
        fill: url(#radial-gradient-6);
      }

      .cls-7 {
        fill: url(#radial-gradient-3);
      }

      .cls-8 {
        fill: url(#radial-gradient-2);
      }
    </style>
    <radialGradient id="radial-gradient" cx="88.65" cy="95.83" fx="88.65" fy="95.83" r="60.02" gradientTransform="translate(23.72 -72.92) scale(1 1.76) skewX(-13.9)" gradientUnits="userSpaceOnUse">
      <stop offset="0" stop-color="#558aff"/>
      <stop offset="1" stop-color="#005"/>
    </radialGradient>
    <radialGradient id="radial-gradient-2" cx="207.65" fx="191.78" r="75.43" gradientTransform="translate(20.84 -52.48) scale(1 1.55) skewX(-12.27)" xlink:href="#radial-gradient"/>
    <radialGradient id="radial-gradient-3" cx="375.65" fx="375.65" r="94.34" gradientTransform="translate(20.89 -52.79) scale(1 1.55) skewX(-12.3)" xlink:href="#radial-gradient"/>
    <radialGradient id="radial-gradient-4" cx="526.65" fx="526.65" r="84.87" gradientTransform="translate(20.06 -46.87) scale(1 1.49) skewX(-11.82)" xlink:href="#radial-gradient"/>
    <radialGradient id="radial-gradient-5" cx="669.75" fx="669.75" r="91.24" gradientTransform="translate(13.47) skewX(-8)" xlink:href="#radial-gradient"/>
    <radialGradient id="radial-gradient-6" cx="838.05" fx="838.05" r="82.93" gradientTransform="translate(13.47) skewX(-8)" xlink:href="#radial-gradient"/>
    <radialGradient id="radial-gradient-7" cx="960.15" fx="960.15" r="66.59" gradientTransform="translate(13.47) skewX(-8)" xlink:href="#radial-gradient"/>
    <radialGradient id="radial-gradient-8" cx="1111.45" cy="46.83" fx="1111.45" fy="46.83" r="51.5" gradientTransform="translate(0 32.33) scale(1 .31)" xlink:href="#radial-gradient"/>
  </defs>
  <g id="Layer_1-2" data-name="Layer 1">
    <g>
      <path class="cls-5" d="M21.06,53.83l31.94-28h119l-31.94,28H21.06ZM5.31,165.83h70l47.9-42-48.13-56h-42l48.13,56-15.97,14h-28l-31.94,28Z"/>
      <path class="cls-8" d="M291.1,74.83l-47.9,42h-77l-36.1-42,6.89-49h35l-5.9,42,18.05,21h49l23.95-21,5.9-42h35l-6.89,49ZM215.31,165.83h-35l5.9-42h35l-5.9,42Z"/>
      <path class="cls-7" d="M339.99,25.83l-15.74,112h98l24.06,28h-161l19.68-140h35Z"/>
      <path class="cls-4" d="M462.05,53.83l-23.06-28h195l-31.93,28h-140ZM453.31,165.83h126l-24.06-28h-63l3.94-28h35l31.94-28h-63l1.97-14h-35l-13.77,98Z"/>
      <path class="cls-1" d="M571.18,25.83h83.8l84.23,98,13.77-98h35l-19.68,140h-35l-96.26-112h-42l-23.86-28ZM621.31,165.83l13.77-98h-35l-13.77,98h35Z"/>
      <path class="cls-6" d="M910.05,53.83h-133l-23.27-28h188.2l-31.94,28ZM845.31,165.83h-35l13.77-98h35l-13.77,98Z"/>
      <path class="cls-3" d="M887.31,165.83l19.68-140h35l-19.68,140h-35ZM944.18,109.83h42l-7.87,56h35l19.68-140h-35l-7.87,56h-42l-3.94,28Z"/>
    </g>
    <path class="cls-2" d="M1072.95,88.83l-21-21V25.83l63,63h-42ZM1128.95,88.83l-42-42V4.83l84,84h-42Z"/>
  </g>
</svg>