<?xml version="1.0" encoding="UTF-8"?>
<svg id="Layer_2" data-name="Layer 2" xmlns="http://www.w3.org/2000/svg" viewBox="0 0 1577.15 308.4">
  <defs>
    <style>
      .cls-1 {
        fill: #000;
        stroke-width: 0px;
      }
    </style>
  </defs>
  <g id="Layer_1-2" data-name="Layer 1">
    <g>
      <path class="cls-1" d="M122.85,138.48c18.62,7.94,32.65,18.49,42.09,31.64,9.44,13.15,14.16,28.71,14.16,46.68,0,26.3-8.37,47.49-25.1,63.57-16.73,16.08-38.9,24.12-66.5,24.12-22.53,0-41.41-5.76-56.64-17.29S5.34,259.31,0,238.09l30.86-15.23c4.17,17.32,11.04,30.44,20.61,39.36,9.57,8.92,21.58,13.38,36.04,13.38,17.06,0,30.86-4.91,41.41-14.75,10.55-9.83,15.82-22.62,15.82-38.38,0-12.76-3.68-23.86-11.04-33.3-7.36-9.44-18.46-17.41-33.3-23.93l-34.77-14.84c-19.01-7.94-33.17-18.16-42.48-30.66-9.31-12.5-13.96-27.47-13.96-44.92,0-20.31,7.55-37.11,22.66-50.39,15.1-13.28,34.38-19.92,57.81-19.92,17.19,0,32.06,3.65,44.63,10.94,12.56,7.29,22.36,18.04,29.39,32.23l-28.12,17.97c-6.38-11.07-13.54-19.3-21.48-24.71-7.94-5.4-16.93-8.11-26.95-8.11-12.76,0-23.21,3.91-31.35,11.72-8.14,7.81-12.21,17.77-12.21,29.88,0,10.16,3.12,18.95,9.38,26.37s15.95,14,29.1,19.73l40.82,17.97Z"/>
      <path class="cls-1" d="M287.3,297.27v-130.86L190.43,11.33h39.26l74.8,124.02L378.91,11.33h39.06l-96.68,155.08v130.86h-33.98Z"/>
      <path class="cls-1" d="M453.12,297.27V11.33h33.98v253.52h108.01v32.42h-141.99Z"/>
      <path class="cls-1" d="M635.55,297.27V11.33h150.78v31.05h-116.8v82.03h116.8v31.64h-116.8v109.57h116.8v31.64h-150.78Z"/>
      <path class="cls-1" d="M843.94,297.27V0l209.18,228.52V11.33h32.42v297.07l-209.18-225.98v214.84h-32.42Z"/>
      <path class="cls-1" d="M1203.91,297.27V43.75h-80.86V11.33h195.7v32.42h-80.47v253.52h-34.38Z"/>
      <path class="cls-1" d="M1356.64,297.27V11.33h33.98v109.96h151.95V11.33h34.57v285.94h-34.57v-143.55h-151.95v143.55h-33.98Z"/>
    </g>
  </g>
</svg>