<?xml version="1.0" encoding="UTF-8"?>
<svg id="Layer_2" data-name="Layer 2" xmlns="http://www.w3.org/2000/svg" viewBox="0 0 1360.71 427.7">
  <defs>
    <style>
      .cls-1 {
        fill: #f79a10;
        stroke-width: 0px;
      }

      .cls-2 {
        fill: #666;
        font-family: NeueHelveticaBQ-Bold, 'Neue Helvetica BQ';
        font-size: 350px;
        font-weight: 700;
      }
    </style>
  </defs>
  <g id="Layer_1-2" data-name="Layer 1">
    <path id="corner" class="cls-1" d="M1315.81,5.08c-11.39-4.67-21.91-5.22-34.71-5.06l-216.8,1.19c-44.74-2.27-88.84,8.68-126.96,30.63l.04.05c-6.82,3.72-11.46,10.96-11.46,19.27,0,12.11,9.83,21.93,21.93,21.93,6.32,0,11.99-2.69,15.99-6.95,47.67-25.55,105.92-30.46,159.73-8.36,95.57,39.23,141.41,148.92,102.17,244.48-10.52,25.63-26.15,47.64-45.18,65.44l.17.24c-6.51,3.8-10.91,10.85-10.91,18.94,0,12.11,9.83,21.92,21.94,21.92,7.79,0,14.63-4.09,18.52-10.24,23.19-21.8,42.2-48.75,55.06-80.07.89-2.14,89.71-218.5,89.94-219.07,15.16-36.93-2.54-79.18-39.47-94.34Z"/>
  </g>
  <g id="Layer_2-2" data-name="Layer 2">
    <text class="cls-2" transform="translate(0 336)"><tspan x="0" y="0">sylenth</tspan></text>
  </g>
</svg>