<?xml version="1.0" encoding="UTF-8"?>
<svg id="Layer_2" data-name="Layer 2" xmlns="http://www.w3.org/2000/svg" viewBox="0 0 1355.79 979.63">
  <defs>
    <style>
      .cls-1 {
        fill: #fff;
        stroke-width: 0px;
      }

      .cls-2 {
        fill: none;
        stroke: #fff;
        stroke-miterlimit: 10;
        stroke-width: 16px;
      }
    </style>
  </defs>
  <g id="Layer_1-2" data-name="Layer 1">
    <g>
      <path class="cls-1" d="M0,930.63h44.4c.2,15.4,6.4,16.6,19.2,16.6h54.4c9.4,0,19-1,19-12.2,0-12.6-5.2-13.4-62.4-13.4C7.8,921.63.2,913.63.2,878.03c0-26.2,2.4-46.4,58.4-46.4h62c51.2,0,56,17.4,56,42.8v4.6h-44.4c0-10.6-1.2-15-21.6-15h-49.2c-10,0-16.8,3.4-16.8,11.2,0,12.6,5.4,13,53,12.8,69-.2,85,4,85,46.2,0,39-13.2,45.4-72.2,45.4h-53.8c-40.4,0-56.6-7.6-56.6-39v-10Z"/>
      <path class="cls-1" d="M276.6,927.63l-80.2-94.4h53.6l48.8,59.2,48.8-59.2h53.6l-80.2,94.4v50.4h-44.4v-50.4Z"/>
      <path class="cls-1" d="M417.6,833.23h44.4v107.6h99.8v37.2h-144.2v-144.8Z"/>
      <path class="cls-1" d="M580.59,833.23h158.4v33.6h-114v23.2h108v30h-108v23.2h116.6v34.8h-161v-144.8Z"/>
      <path class="cls-1" d="M768.39,833.23h68.8l83.4,105.2h.4v-105.2h44.4v144.8h-68.8l-83.4-105.2h-.4v105.2h-44.4v-144.8Z"/>
      <path class="cls-1" d="M984.79,833.23h169.2v36h-62.4v108.8h-44.4v-108.8h-62.4v-36Z"/>
      <path class="cls-1" d="M1173.39,833.23h44.4v51.6h93.6v-51.6h44.4v144.8h-44.4v-54.8h-93.6v54.8h-44.4v-144.8Z"/>
    </g>
  </g>
  <g id="Layer_2-2" data-name="Layer 2">
    <polygon class="cls-1" points="667.97 257.25 667.12 281.7 696.78 266.71 728.67 298.6 756.74 267.35 793.1 270.22 779.07 233.54 802.03 205.15 788 180.28 822.12 152.53 809.05 179.64 824.04 205.79 798.1 235.14 812.98 286.17 763.76 285.85 730.59 325.39 693.91 287.76 657.23 298.92 652.45 269.58 628.84 258.74 667.97 257.25"/>
    <path class="cls-1" d="M809.05,240.8l15.86,54.38-57.01-.37-33.77,40.26c10.72,9.76,24.94,15.74,40.58,15.74,33.35,0,60.39-27.04,60.39-60.39,0-20.58-10.32-38.72-26.04-49.62Z"/>
    <g>
      <path class="cls-1" d="M723.39,115.27l.26.1c13.54,4.93,20.55,19.86,15.74,33.42l38.85,14.14,14.28-39.25c4.96-13.62-2.06-28.68-15.68-33.63l-39.09-14.23-14.36,39.45Z"/>
      <path class="cls-1" d="M646.33,114.91c5.03-13.48,20-20.41,33.55-15.48l.57.21,14.36-39.45-39.09-14.23c-13.62-4.95-28.67,2.06-33.63,15.69l-14.28,39.24,38.53,14.02Z"/>
      <path class="cls-1" d="M647.47,190.25l-.57-.21c-13.13-4.78-20.09-18.94-16.14-32.16l-38.59-14.05-14.28,39.24c-4.96,13.62,2.07,28.67,15.68,33.63l39.09,14.23,14.81-40.68Z"/>
      <path class="cls-1" d="M723.7,191.71c-5.46,12.67-19.9,19.04-33.03,14.27l-.26-.09-14.81,40.68,39.09,14.23c13.62,4.96,28.67-2.06,33.63-15.68l14.28-39.24-38.91-14.16Z"/>
    </g>
    <rect class="cls-1" x="695.23" y="80.08" width="20.99" height="33.78" transform="translate(373.17 726.94) rotate(-69.99)"/>
    <g>
      <path class="cls-1" d="M664.17,141.3c5.08-8.87,15.24-13.6,25.29-11.79l6.79-18.65c-20.36-5.32-41.72,4.64-50.74,23.66l18.66,6.79Z"/>
      <path class="cls-1" d="M697.27,132.35c8.87,5.08,13.6,15.24,11.8,25.29l18.66,6.79c5.31-20.36-4.65-41.72-23.66-50.74l-6.79,18.66Z"/>
      <path class="cls-1" d="M673.13,174.41c-8.87-5.08-13.6-15.24-11.8-25.3l-18.65-6.79c-5.31,20.36,4.64,41.73,23.66,50.74l6.79-18.65Z"/>
      <path class="cls-1" d="M706.23,165.45c-5.08,8.86-15.24,13.6-25.3,11.8l-6.79,18.65c20.36,5.31,41.73-4.65,50.74-23.66l-18.65-6.79Z"/>
    </g>
    <rect class="cls-1" x="724.71" y="163.41" width="33.78" height="20.99" transform="translate(324.55 811.3) rotate(-70)"/>
    <rect class="cls-1" x="654.18" y="192.89" width="20.99" height="33.78" transform="translate(240.23 762.63) rotate(-70)"/>
    <rect class="cls-1" x="611.9" y="122.35" width="33.78" height="20.99" transform="translate(288.91 678.29) rotate(-70)"/>
    <path class="cls-1" d="M638.73,295.8l108.76,78.71s19.14,15.63,32.85,30.62c13.71,14.99,46.88,49.75,64.43,68.89,17.54,19.14-3.19,56.45-29.34,30.3-26.15-26.15-88.98-91.85-88.98-91.85l-48.8,61.87,62.51,63.15s-11.8,109.72-14.67,132.68c-2.87,22.96-46.88,25.2-42.74-6.7s14.99-99.51,14.99-99.51l-73.99-72.35-56.13,99.46s-63.15,49.44-86.75,68.25c-23.6,18.82-61.24-20.73-30.3-44.01,30.94-23.28,71.12-54.54,71.12-54.54,0,0,67.62-140.39,131.4-200.16l-32.53-26.92s-41.78,31.26-63.47,47.84c-21.69,16.58-52.94-15.95-24.88-37.32,28.07-21.37,63.15-47.84,70.49-52.62s17.48-9.22,36.04,4.22Z"/>
    <ellipse class="cls-2" cx="670.89" cy="391.73" rx="395.78" ry="383.73"/>
  </g>
</svg>