<?xml version="1.0" encoding="UTF-8"?>
<svg id="Layer_2" data-name="Layer 2" xmlns="http://www.w3.org/2000/svg" viewBox="0 0 1422.58 505.42">
  <defs>
    <style>
      .cls-1, .cls-2 {
        stroke-width: 0px;
      }

      .cls-1, .cls-3 {
        fill: #000;
      }

      .cls-4 {
        fill: none;
      }

      .cls-4, .cls-3 {
        stroke: #fff;
        stroke-miterlimit: 10;
        stroke-width: 3px;
      }

      .cls-2 {
        fill: #fff;
      }
    </style>
  </defs>
  <g id="Layer_2-2" data-name="Layer 2">
    <g>
      <path class="cls-3" d="M1222.01,38.93c-69.97,0-141.05,32.17-195.52,82.51,44.14-39.7,98.26-64.49,150.93-64.49,101.47,0,159.09,91.99,128.68,205.47-30.41,113.48-137.32,205.47-238.79,205.47-52.66,0-93.51-24.79-116.37-64.49,27.49,50.34,81.33,82.51,151.3,82.51,123.43,0,250.31-100.06,283.38-223.49,33.07-123.43-40.18-223.49-163.61-223.49Z"/>
      <path class="cls-3" d="M935.82,274.05c.01-.05.02-.11.03-.16-.01.05-.02.11-.03.16Z"/>
      <path class="cls-3" d="M937,268.89c.07-.28.13-.55.19-.83-.07.28-.13.55-.19.83Z"/>
      <path class="cls-3" d="M942.04,250.81c-.02.05-.04.11-.05.16.02-.05.04-.11.05-.16Z"/>
      <path class="cls-3" d="M940.46,255.96c-.08.28-.17.55-.25.83.08-.28.17-.55.25-.83Z"/>
    </g>
  </g>
  <g id="Layer_3" data-name="Layer 3">
    <g>
      <path class="cls-1" d="M292.74,140.57c-129.11,6.29-134.21,11.39-140.5,140.5-6.29-129.11-11.39-134.21-140.5-140.5C140.85,134.28,145.95,129.18,152.24.07c6.29,129.11,11.39,134.21,140.5,140.5Z"/>
      <path class="cls-4" d="M292.74,140.57c-129.11,6.29-134.21,11.39-140.5,140.5-6.29-129.11-11.39-134.21-140.5-140.5C140.85,134.28,145.95,129.18,152.24.07c6.29,129.11,11.39,134.21,140.5,140.5Z"/>
    </g>
    <g>
      <path class="cls-1" d="M1422.51,364.85c-129.11,6.29-134.21,11.39-140.5,140.5-6.29-129.11-11.39-134.21-140.5-140.5,129.11-6.29,134.21-11.39,140.5-140.5,6.29,129.11,11.39,134.21,140.5,140.5Z"/>
      <path class="cls-4" d="M1422.51,364.85c-129.11,6.29-134.21,11.39-140.5,140.5-6.29-129.11-11.39-134.21-140.5-140.5,129.11-6.29,134.21-11.39,140.5-140.5,6.29,129.11,11.39,134.21,140.5,140.5Z"/>
    </g>
  </g>
  <g id="Layer_1-2" data-name="Layer 1">
    <g>
      <g>
        <polygon class="cls-1" points="3.62 330.08 28.93 304.77 117.95 304.77 144.6 278.12 55.58 278.12 162.42 171.28 330.02 171.28 304.71 196.59 215.54 196.59 159.32 252.81 248.49 252.81 223.18 278.12 223.03 278.12 171.07 330.08 3.62 330.08"/>
        <path class="cls-2" d="M326.4,172.78l-22.31,22.31h-89.17l-59.22,59.22h89.16l-22.31,22.31h-.15l-51.96,51.96H7.24l22.31-22.31h89.02l29.65-29.65H59.2l103.84-103.84h163.36M333.64,169.78h-171.84l-.88.88-103.84,103.84-5.12,5.12h89.02l-23.65,23.65H28.31l-.88.88-22.31,22.31-5.12,5.12h171.7l.88-.88,51.08-51.08h.15l.88-.88,22.31-22.31,5.12-5.12h-89.16l53.22-53.22h89.17l.88-.88,22.31-22.31,5.12-5.12h0Z"/>
      </g>
      <g>
        <polygon class="cls-1" points="177.92 330.07 203.23 304.76 292.24 304.76 318.89 278.11 229.87 278.11 336.71 171.27 415.15 171.27 333.62 252.8 344.2 252.8 425.73 171.27 504.17 171.27 345.37 330.07 177.92 330.07"/>
        <path class="cls-2" d="M500.55,172.77l-155.8,155.8h-163.21l22.31-22.31h89.02l29.65-29.65h-89.02l103.84-103.84h74.19l-81.53,81.53h14.82l81.53-81.53h74.19M507.79,169.77h-82.68l-.88.88-80.65,80.65h-6.34l76.41-76.41,5.12-5.12h-82.68l-.88.88-103.84,103.84-5.12,5.12h89.02l-23.65,23.65h-89.02l-.88.88-22.31,22.31-5.12,5.12h171.7l.88-.88,155.8-155.8,5.12-5.12h0Z"/>
      </g>
      <g>
        <polygon class="cls-1" points="351.99 330.04 510.78 171.24 589.22 171.24 455.67 304.79 544.63 304.79 519.37 330.04 351.99 330.04"/>
        <path class="cls-2" d="M585.6,172.74l-133.55,133.55h88.96l-22.26,22.25h-163.14l155.8-155.8h74.19M592.84,169.74h-82.68l-.88.88-155.8,155.8-5.12,5.12h171.63l.88-.88,22.26-22.25,5.12-5.12h-88.96l128.43-128.43,5.12-5.12h0Z"/>
      </g>
      <g>
        <path class="cls-1" d="M528.98,330.09l158.8-158.8h167.6l-106.84,106.84h-89.16l-26.65,26.65h89.02l-25.31,25.31h-167.45ZM695.41,252.82l56.22-56.22h-10.73l-56.22,56.22h10.73Z"/>
        <path class="cls-2" d="M851.75,172.79l-103.84,103.84h-89.17l-29.65,29.65h89.02l-22.31,22.31h-163.21l155.8-155.8h163.36M755.25,195.1h-14.97l-59.22,59.22h14.97l59.22-59.22M858.99,169.79h-171.84l-.88.88-155.8,155.8-5.12,5.12h171.69l.88-.88,22.31-22.31,5.12-5.12h-89.02l23.65-23.65h89.17l.88-.88,103.84-103.84,5.12-5.12h0ZM741.52,198.1h6.49l-53.22,53.22h-6.49l53.22-53.22h0Z"/>
      </g>
      <g>
        <polygon class="cls-1" points="792.28 330.08 925.77 196.59 915.18 196.59 781.7 330.08 703.26 330.08 862.06 171.28 1029.51 171.28 870.71 330.08 792.28 330.08"/>
        <path class="cls-2" d="M1025.89,172.78l-155.8,155.8h-74.19l133.49-133.49h-14.82l-133.49,133.49h-74.19l155.8-155.8h163.21M1033.13,169.78h-171.7l-.88.88-155.8,155.8-5.12,5.12h82.68l.88-.88,132.61-132.61h6.34l-128.37,128.37-5.12,5.12h82.68l.88-.88,155.8-155.8,5.12-5.12h0Z"/>
      </g>
      <g>
        <polygon class="cls-1" points="928.86 330.03 1062.35 196.54 1010.48 196.54 1035.73 171.29 1203.12 171.29 1177.86 196.54 1140.77 196.54 1111.57 225.75 1007.29 330.03 928.86 330.03"/>
        <path class="cls-2" d="M1199.5,172.79l-22.26,22.25h-37.09l-29.64,29.65-103.84,103.84h-74.19l133.49-133.49h-51.87l22.25-22.25h163.15M1206.75,169.79h-171.64l-.88.88-22.25,22.25-5.12,5.12h51.87l-128.37,128.37-5.12,5.12h82.68l.88-.88,103.84-103.84,28.76-28.77h37.09l.88-.88,22.26-22.25,5.12-5.12h0Z"/>
      </g>
      <g>
        <polygon class="cls-1" points="1139.97 330.09 1191.93 278.13 1181.35 278.13 1129.39 330.09 1050.95 330.09 1209.75 171.29 1288.19 171.29 1206.66 252.82 1217.24 252.82 1298.77 171.29 1377.2 171.29 1218.41 330.09 1139.97 330.09"/>
        <path class="cls-2" d="M1373.58,172.79l-155.8,155.8h-74.19l51.96-51.96h-14.82l-51.96,51.96h-74.19l155.8-155.8h74.19l-81.53,81.53h14.82l81.53-81.53h74.19M1380.83,169.79h-82.68l-.88.88-80.65,80.65h-6.34l76.41-76.41,5.12-5.12h-82.68l-.88.88-155.8,155.8-5.12,5.12h82.68l.88-.88,51.08-51.08h6.34l-46.84,46.84-5.12,5.12h82.68l.88-.88,155.8-155.8,5.12-5.12h0Z"/>
      </g>
    </g>
  </g>
</svg>