<?xml version="1.0" encoding="UTF-8"?>
<svg id="Layer_2" data-name="Layer 2" xmlns="http://www.w3.org/2000/svg" viewBox="0 0 1197.23 146.35">
  <defs>
    <style>
      .cls-1 {
        fill: #000;
        stroke-width: 0px;
      }
    </style>
  </defs>
  <g id="Layer_1-2" data-name="Layer 1">
    <g>
      <path class="cls-1" d="M0,141.07V5.38h26.04c19.28,0,32.86.97,40.74,2.92s14.78,5.21,20.72,9.78c7.79,5.99,13.69,13.66,17.7,22.99,4.02,9.33,6.02,20.08,6.02,32.25s-1.99,22.82-5.98,32.12c-3.99,9.3-9.9,16.95-17.75,22.94-5.93,4.57-12.68,7.83-20.25,9.78-7.57,1.95-19.36,2.92-35.36,2.92H0ZM16.31,125.87h10.29c16.68,0,28.24-.73,34.66-2.18,6.43-1.45,11.77-3.94,16.03-7.46,5.56-4.63,9.79-10.61,12.7-17.93,2.9-7.32,4.36-15.71,4.36-25.16s-1.44-17.87-4.31-25.07c-2.87-7.2-7.12-13.15-12.74-17.84-4.26-3.58-9.69-6.13-16.27-7.65-6.58-1.51-18.06-2.27-34.43-2.27h-10.29v105.57Z"/>
      <path class="cls-1" d="M276.48,73.5c0,9.7-1.79,18.85-5.38,27.44s-8.81,16.22-15.67,22.89c-6.86,6.67-14.76,11.82-23.7,15.43-8.94,3.62-18.19,5.42-27.78,5.42s-18.81-1.81-27.68-5.42c-8.87-3.61-16.74-8.76-23.6-15.43-6.93-6.73-12.2-14.4-15.81-22.99-3.62-8.59-5.42-17.7-5.42-27.34s1.81-18.86,5.42-27.48c3.62-8.62,8.89-16.3,15.81-23.03,6.8-6.61,14.65-11.71,23.56-15.29,8.9-3.58,18.15-5.38,27.73-5.38s18.93,1.79,27.87,5.38c8.93,3.58,16.8,8.68,23.6,15.29,6.86,6.67,12.09,14.32,15.67,22.94,3.59,8.62,5.38,17.81,5.38,27.57ZM203.96,129.48c7.42,0,14.49-1.4,21.2-4.22,6.71-2.81,12.75-6.91,18.14-12.28,5.32-5.31,9.37-11.34,12.15-18.07,2.78-6.73,4.18-13.87,4.18-21.41s-1.41-14.83-4.22-21.69c-2.81-6.86-6.85-12.91-12.1-18.17-5.32-5.31-11.33-9.36-18.04-12.14-6.71-2.78-13.81-4.17-21.29-4.17s-14.69,1.39-21.43,4.17c-6.74,2.78-12.71,6.83-17.9,12.14-5.32,5.38-9.37,11.46-12.15,18.26-2.78,6.8-4.17,14-4.17,21.6s1.38,14.64,4.13,21.32c2.75,6.67,6.82,12.73,12.2,18.17,5.44,5.44,11.49,9.55,18.14,12.33,6.65,2.78,13.71,4.17,21.2,4.17Z"/>
      <path class="cls-1" d="M285.2,5.38h17.43l34.39,99.82L372.88,0l36.24,105.2L443.69,5.38h17.42l-52.55,140.98-35.5-104.92-35.31,104.92L285.2,5.38Z"/>
      <path class="cls-1" d="M476.13,141.07V0l99.27,108.44V5.38h15.39v140.98l-99.27-107.24v101.95h-15.39Z"/>
      <path class="cls-1" d="M623.22,141.07V5.38h16.13v120.31h51.26v15.39h-67.38Z"/>
      <path class="cls-1" d="M841.87,73.5c0,9.7-1.79,18.85-5.38,27.44-3.59,8.59-8.81,16.22-15.67,22.89-6.87,6.67-14.76,11.82-23.7,15.43-8.94,3.62-18.19,5.42-27.78,5.42s-18.81-1.81-27.68-5.42c-8.87-3.61-16.74-8.76-23.6-15.43-6.92-6.73-12.2-14.4-15.81-22.99-3.62-8.59-5.43-17.7-5.43-27.34s1.81-18.86,5.43-27.48c3.62-8.62,8.89-16.3,15.81-23.03,6.8-6.61,14.66-11.71,23.56-15.29,8.9-3.58,18.15-5.38,27.73-5.38s18.93,1.79,27.87,5.38c8.93,3.58,16.8,8.68,23.6,15.29,6.86,6.67,12.09,14.32,15.67,22.94,3.58,8.62,5.38,17.81,5.38,27.57ZM769.34,129.48c7.42,0,14.49-1.4,21.2-4.22,6.71-2.81,12.75-6.91,18.14-12.28,5.32-5.31,9.37-11.34,12.15-18.07,2.78-6.73,4.17-13.87,4.17-21.41s-1.41-14.83-4.22-21.69c-2.81-6.86-6.85-12.91-12.1-18.17-5.32-5.31-11.33-9.36-18.04-12.14-6.71-2.78-13.81-4.17-21.29-4.17s-14.69,1.39-21.43,4.17c-6.74,2.78-12.71,6.83-17.9,12.14-5.32,5.38-9.37,11.46-12.15,18.26-2.78,6.8-4.17,14-4.17,21.6s1.38,14.64,4.13,21.32c2.75,6.67,6.82,12.73,12.2,18.17,5.44,5.44,11.49,9.55,18.14,12.33,6.65,2.78,13.71,4.17,21.2,4.17Z"/>
      <path class="cls-1" d="M907.77,0l61.73,141.07h-17.52l-17.61-41.62h-53.02l-17.61,41.62h-17.52L907.77,0ZM907.77,35.68l-21.6,49.96h43.19l-21.6-49.96Z"/>
      <path class="cls-1" d="M983.5,141.07V5.38h26.04c19.28,0,32.86.97,40.74,2.92,7.88,1.95,14.78,5.21,20.71,9.78,7.79,5.99,13.69,13.66,17.7,22.99,4.02,9.33,6.02,20.08,6.02,32.25s-1.99,22.82-5.98,32.12c-3.99,9.3-9.9,16.95-17.75,22.94-5.93,4.57-12.68,7.83-20.25,9.78-7.57,1.95-19.36,2.92-35.36,2.92h-31.88ZM999.81,125.87h10.29c16.68,0,28.24-.73,34.66-2.18,6.43-1.45,11.77-3.94,16.04-7.46,5.56-4.63,9.79-10.61,12.7-17.93,2.9-7.32,4.36-15.71,4.36-25.16s-1.44-17.87-4.31-25.07c-2.87-7.2-7.12-13.15-12.74-17.84-4.26-3.58-9.69-6.13-16.27-7.65-6.58-1.51-18.06-2.27-34.43-2.27h-10.29v105.57Z"/>
      <path class="cls-1" d="M1170.54,65.71c8.84,3.77,15.49,8.77,19.97,15.01,4.48,6.24,6.72,13.62,6.72,22.15,0,12.48-3.97,22.54-11.91,30.17-7.94,7.63-18.46,11.45-31.56,11.45-10.69,0-19.65-2.73-26.88-8.2s-12.11-13.24-14.64-23.31l14.64-7.23c1.98,8.22,5.24,14.44,9.78,18.68,4.54,4.23,10.24,6.35,17.1,6.35,8.09,0,14.64-2.33,19.65-7,5-4.67,7.51-10.74,7.51-18.21,0-6.05-1.75-11.32-5.24-15.8-3.49-4.48-8.76-8.26-15.8-11.35l-16.5-7.04c-9.02-3.77-15.74-8.62-20.16-14.55-4.42-5.93-6.63-13.04-6.63-21.32,0-9.64,3.58-17.61,10.75-23.91s16.31-9.45,27.44-9.45c8.16,0,15.21,1.73,21.18,5.19,5.96,3.46,10.61,8.56,13.95,15.29l-13.35,8.53c-3.03-5.25-6.43-9.16-10.2-11.72-3.77-2.56-8.03-3.85-12.79-3.85-6.06,0-11.01,1.85-14.88,5.56-3.86,3.71-5.79,8.43-5.79,14.18,0,4.82,1.48,8.99,4.45,12.51s7.57,6.64,13.81,9.36l19.37,8.53Z"/>
    </g>
  </g>
</svg>